<svg xmlns="http://www.w3.org/2000/svg" width="370.814" height="367.086" viewBox="0 0 370.814 367.086">
  <g id="Group_2241" data-name="Group 2241" transform="translate(-289.807 -34)" opacity="0.143">
    <path id="Path_11681" data-name="Path 11681" d="M466.317,580.351c-.161-.01-.294-.01-.427-.01l-12.246-.985a8.165,8.165,0,0,1,.645-16.3c.161,0,.37,0,.559.019,1.943.133,4.18.275,6.692.275,12.616,0,30.635-3.478,41.526-33.648,4.208-11.65,8.71-25.422,13.478-54.19a8.118,8.118,0,0,1,7.971-6.8c4.967-.057,9.933-.142,14.853-.265a1,1,0,0,1,.227-.018,8.113,8.113,0,0,1,6.114,2.758,8.012,8.012,0,0,1,1.953,6.626c-10.938,72.862-31.185,100.71-74.692,102.709h-.379c-.066,0-6.275-.17-6.275-.17" transform="translate(-28.211 -179.435)" fill="#d6ecd7"/>
    <path id="Path_11682" data-name="Path 11682" d="M465.305,565.07l-6.047-.2-12.265-.957c12.417.825,41.5,2.739,56.473-38.739,4.361-12.1,9-26.426,13.848-55.611,5-.056,10.009-.123,14.986-.275-10.72,71.506-28.976,94.037-66.995,95.781" transform="translate(-20.925 -172.135)" fill="#d6ecd7"/>
    <path id="Path_11683" data-name="Path 11683" d="M485.9,569.508c-8.446,0-17.934-2.36-29-7.27a2.034,2.034,0,0,1-.493-.256s-8.464-4.427-8.559-4.484l-5.355-3.109a8.185,8.185,0,0,1,4.142-15.232,8.038,8.038,0,0,1,4.009,1.1c9.763,5.536,17.82,8.332,24,8.332s14.237-2.474,22.038-21.829c4.635-11.46,8.237-27.327,11.706-51.45a8.182,8.182,0,0,1,8.085-7c.057,0,15.886.436,15.886.436a8.168,8.168,0,0,1,7.82,9.451c-7.346,46.189-17.583,91.307-54.274,91.307" transform="translate(-93.331 -180.393)" fill="#d6ecd7"/>
    <path id="Path_11684" data-name="Path 11684" d="M452.9,547.468l-8.237-4.322-5.346-3.1c29.232,16.6,45.914,11.517,57.629-17.517,5.5-13.6,9.147-31.943,12.209-53.355,4.341.132,8.748.246,13.2.379.8.028,1.621.028,2.455.076-11.393,71.544-26.17,98.075-71.914,77.838" transform="translate(-86.023 -173.102)" fill="#d6ecd7"/>
    <path id="Path_11685" data-name="Path 11685" d="M481.146,557.682c-9.668,0-20.673-4.407-33.611-13.469-.1-.066-3.678-2.824-3.678-2.824l-4.882-4A8.165,8.165,0,0,1,449.3,524.734c11.052,8.92,17.763,10.8,21.46,10.8,14.246,0,20.208-34.3,23.422-60.094a8.162,8.162,0,0,1,8.038-7.147c1.516-.028,3.042-.028,4.578-.028,3.384,0,6.853.028,10.389.085a8.142,8.142,0,0,1,7.991,9.289c-5.356,38.72-13.612,80.047-44.028,80.047" transform="translate(-114.063 -180.851)" fill="#d6ecd7"/>
    <path id="Path_11686" data-name="Path 11686" d="M444.908,530.211l-3.346-2.587-4.692-3.839c39.478,31.867,51.327-.531,58.1-54.644,4.768-.038,9.706-.009,14.8.047-8.645,62.483-21.943,91.051-64.862,61.023" transform="translate(-106.753 -173.541)" fill="#d6ecd7"/>
    <path id="Path_11687" data-name="Path 11687" d="M478.754,577.047a90.337,90.337,0,0,1-17.384-1.867c-.171-.028-.341-.076-.493-.114-3.792-.967-8.351-2.36-12.729-3.753a8.16,8.16,0,0,1,2.426-15.943,7.718,7.718,0,0,1,2.3.35,50.472,50.472,0,0,0,14,2.265c13.5,0,23.2-7.952,29.649-24.3,6.862-17.355,12.113-36.5,16.066-58.54a8.178,8.178,0,0,1,8.028-6.721h.2c4.825.133,9.706.218,14.587.256a8.2,8.2,0,0,1,7.971,9.507c-13.554,82.322-34.767,98.862-64.625,98.862" transform="translate(-59.586 -179.486)" fill="#d6ecd7"/>
    <path id="Path_11688" data-name="Path 11688" d="M455.644,559.86c-3.706-.919-8.218-2.322-12.35-3.621,13.735,4.019,39.715,8.151,53.544-26.853,7.763-19.649,12.853-39.753,16.5-60.1q7.279.185,14.691.266c-13.194,80.255-31.583,98.3-72.388,90.312" transform="translate(-52.296 -172.186)" fill="#d6ecd7"/>
    <path id="Path_11689" data-name="Path 11689" d="M454.613,495.155a7.212,7.212,0,0,1-2.3-.322c-1.791-.531-3.4-1.024-4.73-1.46a8.165,8.165,0,0,1,5-15.544l4.493,1.393a8.153,8.153,0,0,1-2.464,15.933" transform="translate(-63.616 -102.95)" fill="#d6ecd7"/>
    <path id="Path_11690" data-name="Path 11690" d="M447.294,479.729c-1.687-.5-3.2-.976-4.474-1.422,1.375.465,2.919.92,4.474,1.422" transform="translate(-56.306 -95.675)" fill="#d6ecd7"/>
    <path id="Path_11691" data-name="Path 11691" d="M471.46,579.084c-5.526-.161-10.844-.3-15.99-.408a8.161,8.161,0,0,1-7.915-9.365c2.692-18.019,4.455-26.644,5.517-31.83,12.824-62.919,36.739-94.776,71.137-94.776,13.222,0,27.592,4.957,42.757,14.739a8.164,8.164,0,0,1-4.436,15.014,8.257,8.257,0,0,1-3.763-.919c-8.189-4.256-16.085-6.408-23.45-6.408a36.871,36.871,0,0,0-21.554,7c-21.5,14.909-30.881,78.947-33.953,99.99a8.188,8.188,0,0,1-8.076,6.986l-.275-.019" transform="translate(-16.88 -397.521)" fill="#d6ecd7"/>
    <path id="Path_11692" data-name="Path 11692" d="M555.231,456.993c-17.517-9.081-36.19-10.8-53.4,1.128-20.607,14.265-30.938,61.384-37.4,105.525-5.555-.17-10.91-.313-16.095-.417,2.673-17.924,4.417-26.483,5.44-31.5,20.73-101.686,65.9-97.686,101.459-74.738" transform="translate(-9.58 -390.226)" fill="#d6ecd7"/>
    <path id="Path_11693" data-name="Path 11693" d="M474.3,569.317c-3.8-.18-7.507-.341-11.118-.521l-.512-.029c-1.232-.037-2.455-.094-3.649-.18a8.136,8.136,0,0,1-5.82-2.91,8.281,8.281,0,0,1-1.839-6.265c1.223-9.441,2.493-17.886,3.924-25.858,10.541-59.383,30.6-89.516,59.6-89.516,10.91,0,22.626,4.512,34.8,13.355.123.095.275.218.408.331,3.479,2.882,7.033,6.029,10.806,9.649a8.162,8.162,0,0,1-10.853,12.18c-9.422-7.858-18.066-11.83-25.687-11.83-5.735,0-10.977,2.256-16.086,6.91-10.825,9.943-19.412,39.393-25.526,87.544a8.142,8.142,0,0,1-8.076,7.138h-.37" transform="translate(15.616 -386.228)" fill="#d6ecd7"/>
    <path id="Path_11694" data-name="Path 11694" d="M537.585,456.673c3.668,3.052,7.137,6.2,10.379,9.289-15.232-12.692-34.692-20.967-52.5-4.654-15.507,14.208-23.365,55.155-28.095,92.53-3.8-.161-7.5-.341-11.09-.512-1.384-.066-2.758-.133-4.114-.189,1.09-8.531,2.341-17.024,3.839-25.46,16.957-95.392,53.744-91.213,81.582-71" transform="translate(22.918 -378.911)" fill="#d6ecd7"/>
    <path id="Path_11695" data-name="Path 11695" d="M451.682,588.8a8.162,8.162,0,0,1-8.066-9.374c8.863-59.213,27.952-137.9,91.071-137.9,18.644,0,40.066,7.26,63.7,21.582.133.095.256.152.4.237,1.791,1.251,3.763,2.626,5.772,4.095a8.167,8.167,0,0,1-4.805,14.768,8.234,8.234,0,0,1-4.587-1.412c-17.317-11.772-35.346-18.294-50.815-18.294-10,0-18.511,2.711-25.269,7.991-15.8,12.36-29.943,29.27-42.768,111.127a8.129,8.129,0,0,1-8.028,6.891c-5.706.029-11.232.123-16.332.284a2.519,2.519,0,0,1-.265.009" transform="translate(-50.353 -407.526)" fill="#d6ecd7"/>
    <path id="Path_11696" data-name="Path 11696" d="M586.846,462.782c1.753,1.2,3.659,2.54,5.6,3.971-31.09-21.165-64.644-26.464-85.705-9.971-17.612,13.772-32.682,32.6-45.8,116.274q-8.659.043-16.559.294c13.261-88.52,44-170.245,142.463-110.568" transform="translate(-43.054 -400.232)" fill="#d6ecd7"/>
    <path id="Path_11697" data-name="Path 11697" d="M476.853,557.191c-4.711-.085-9.422-.218-14.085-.351a8.152,8.152,0,0,1-7.839-9.08c.91-8.095,1.735-14.7,2.626-20.72,7.962-54.8,23.469-81.44,47.412-81.44,12.038,0,25.1,7.469,38.862,22.17,3.593,4.009,6.976,8.009,10.094,11.962l1.735,2.275a8.14,8.14,0,0,1-1.517,11.4,8.1,8.1,0,0,1-11.44-1.488l-.825-1.061c-15.839-20.455-24.995-23.526-29.052-23.526-7.128,0-20.236,10.739-27.706,82.549A8.129,8.129,0,0,1,477,557.191Z" transform="translate(45.916 -372.993)" fill="#d6ecd7"/>
    <path id="Path_11698" data-name="Path 11698" d="M530.561,466.049c4.493,5,7.82,9.09,9.659,11.45.55.749,1.1,1.441,1.659,2.142-50.294-65.867-65.516-2-72.17,62.094-4.673-.085-9.355-.209-13.971-.36.768-6.825,1.592-13.649,2.588-20.464,13.857-95.449,47.611-81.241,72.236-54.862" transform="translate(53.212 -365.699)" fill="#d6ecd7"/>
    <path id="Path_11699" data-name="Path 11699" d="M479.471,475a8.24,8.24,0,0,1-6.929-3.8c-1.071-1.716-2.218-3.441-3.384-5.147l-.541-.768a8.158,8.158,0,1,1,13.327-9.412s2.417,3.479,3.232,4.625c.123.209.246.4.351.587a13.489,13.489,0,0,0,.853,1.4,8.224,8.224,0,0,1-2.559,11.279A8.356,8.356,0,0,1,479.471,475" transform="translate(149.713 -315.228)" fill="#d6ecd7"/>
    <path id="Path_11700" data-name="Path 11700" d="M471.11,457.832c.322.55.663,1.118,1.042,1.706-1.336-2.114-2.73-4.19-4.17-6.265,1.1,1.592,2.2,3.166,3.128,4.559" transform="translate(157.032 -307.928)" fill="#d6ecd7"/>
    <path id="Path_11701" data-name="Path 11701" d="M456.537,654.582a8.179,8.179,0,0,1-6.881-3.763l-3.27-5.118-2.323-3.83a3.521,3.521,0,0,0-.2-.369c-10.5-19.63-12.341-34.739-5.678-46.123,10.578-18.009,39.725-22.237,80.265-23.014,4.853-.1,9.934-.143,15.185-.143,6.522,0,13.289.038,20.351.143,4.5.047,9.09.123,13.791.237h.114c.654,0,1.412.01,2.189.028,7.668.123,15.137.19,22.265.237,3.081.01,6.085.01,9.043.01h5.46c7.2-.038,14.019-.123,20.549-.247l14.73-.426c83.335-2.929,101.895-14.986,116.112-29.251,15.412-15.526,14.957-45.649-1.175-76.786a8.153,8.153,0,0,1,14.379-7.687c1.2,2.151,2.351,4.265,3.346,6.17.066.152.142.275.209.427,17.412,38.407,18.976,69.535,4.625,92.511-24.739,39.6-91.345,45.99-139.278,47.345-5.043.152-10.114.228-15.175.275-2.4.019-4.777.028-7.156.028-4.578,0-9.137-.038-13.669-.076-4.957-.076-9.9-.143-14.768-.265-7.621-.142-15.09-.379-22.322-.587,0,0-11.3-.322-15.63-.427-6.852-.189-13.535-.351-20.019-.446-3.431-.037-6.853-.085-10.161-.085-1.5,0-2.977,0-4.436.028-13.355.095-53.9.37-60.72,12.787-3.517,6.407,1.953,17.62,7.157,25.9a8.17,8.17,0,0,1-6.91,12.521" transform="translate(-128.715 -299.627)" fill="#d6ecd7"/>
    <path id="Path_11702" data-name="Path 11702" d="M511.315,573.226c4.824-.1,9.848-.123,15.033-.123q9.711,0,20.265.123,6.7.085,13.725.228c.739,0,1.45.019,2.18.038q11.744.171,22.512.256c5.014,0,9.877.019,14.578,0,7.251-.038,14.094-.142,20.663-.265l14.787-.436c85.307-3,105.838-15.763,121.677-31.649,18.843-18.948,17.592-52.891.294-86.284,1.137,2.1,2.266,4.161,3.242,6.028C807.947,566.3,722.545,586.922,632.8,589.482c-4.977.151-9.981.227-14.986.275-6.929.047-13.829,0-20.654-.066q-7.407-.086-14.691-.266c-7.6-.17-15.043-.36-22.265-.578-.806-.038-1.649-.038-2.446-.066q-6.7-.185-13.2-.379-10.337-.27-20.1-.426c-5.09-.057-10.028-.085-14.815-.047-54.095.37-87.25,8.389-60.388,51.175l-3.3-5.109-2.171-3.63c-24.6-46.018,5-55.933,67.535-57.137" transform="translate(-121.426 -292.327)" fill="#d6ecd7"/>
    <path id="Path_11703" data-name="Path 11703" d="M482.157,480.571a8.172,8.172,0,0,1-7.147-4.2c-2.066-3.706-4.275-7.583-6.3-11a8.163,8.163,0,0,1,2.749-11.128,8.457,8.457,0,0,1,4.284-1.175,8.12,8.12,0,0,1,6.891,3.8c2.5,4.019,4.8,7.962,6.768,11.782a8.133,8.133,0,0,1-3.393,10.929,8,8,0,0,1-3.849.986" transform="translate(153.445 -309.615)" fill="#d6ecd7"/>
    <path id="Path_11704" data-name="Path 11704" d="M474.838,465.091c-2.1-3.773-4.37-7.715-6.417-11.156,2.322,3.687,4.474,7.422,6.417,11.156" transform="translate(160.754 -302.315)" fill="#d6ecd7"/>
    <path id="Path_11705" data-name="Path 11705" d="M443.273,635.582a8.15,8.15,0,0,1-8.009-6.673c-.73-3.905-1.621-8.891-2.18-12.967l-.047-.484c-1.441-19.554,2.18-33.5,11.4-43.876,14.3-16.114,41.507-23.63,93.9-26,5.185-.217,10.654-.417,16.332-.531,6.474-.18,13.592-.265,21.147-.275,1.962-.028,3.962-.028,5.991-.028,3.412,0,6.891.028,10.455.038,6.768.057,13.839.123,21.147.265,3.384.048,6.825.114,10.351.18l4.881.114c5.972.123,12.436.228,19.175.294,3.024.047,6.066.047,9.185.047h4.929c48.976-.284,79.488-5.318,90.729-14.967,4.351-3.734,17.583-15.109.085-42.066a116.321,116.321,0,0,0-11.365-14.55,152.4,152.4,0,0,0-11-10.938l-.056-.057a7.2,7.2,0,0,1-1.09-1.194,8.11,8.11,0,0,1,5.649-13.014c.294-.01.6-.028.91-.028a7.972,7.972,0,0,1,4.5,1.375,7.763,7.763,0,0,1,.891.673l.019.028c11.905,10.407,33.336,31.763,43.156,57.867a8.088,8.088,0,0,1-.729,7.232,39.709,39.709,0,0,1-4.219,25.583c-11.27,20.512-41.231,31.886-91.544,34.739-8.493.484-17.308.749-26.957.806-1.734.019-3.5.019-5.242.019-3.09,0-6.17-.019-9.26-.057-6.54-.076-13.118-.209-19.687-.37-4.171-.095-8.379-.209-12.578-.332l-2.483-.066c-7.147-.2-14.265-.379-21.4-.521-5.441-.123-10.881-.18-16.293-.228h-3.517c-6.076,0-11.668.057-17.118.228-5.488.151-10.606.379-15.621.654-22.047,1.346-41.431,4.284-59.269,8.985-28.7,7.536-29.555,25.659-27.09,40.606a8.181,8.181,0,0,1-6.645,9.365,9.343,9.343,0,0,1-1.431.123" transform="translate(-141.857 -345.234)" fill="#d6ecd7"/>
    <path id="Path_11706" data-name="Path 11706" d="M769.457,504.414a156.151,156.151,0,0,0-9.146-16.038c16.748,30.01,16.558,67.042-80.208,72.559-8.844.5-17.668.768-26.521.806-4.778.028-9.573.019-14.36-.038-6.511-.076-13.042-.2-19.554-.389-5.014-.1-10.066-.256-15.071-.379-7.156-.209-14.3-.4-21.441-.531q-8.217-.2-16.445-.228c-6.948-.028-13.915.028-20.882.228-5.3.132-10.615.36-15.914.691-20.35,1.223-40.654,3.9-60.833,9.2C432.768,579.826,433.7,606,436,620.129c-.777-4.218-1.6-8.806-2.123-12.559-3.024-41.336,16.938-57.478,97.535-61.1q7.721-.355,16.151-.54c6.645-.161,13.64-.275,21-.284,5.251-.028,10.711-.009,16.369.01,6.73.057,13.754.161,21.052.275,3.384.066,6.816.123,10.322.19,1.583.047,3.2.076,4.863.114,6.028.114,12.521.237,19.289.294,4.626.038,9.412.066,14.237.028,37.886-.209,79.942-3.119,96.008-16.91,18.332-15.763,12.407-36.085,1.611-52.71a124.148,124.148,0,0,0-12.171-15.564,159.16,159.16,0,0,0-11.583-11.564l-.066-.076c17.374,15.176,33.469,34.787,40.966,54.682" transform="translate(-134.575 -337.951)" fill="#d6ecd7"/>
    <path id="Path_11707" data-name="Path 11707" d="M440.406,599.944a8.176,8.176,0,0,1-7.782-8.484l.483-12.284c.01-.143.01-.266.019-.408l.55-6.029c.01-.2.038-.408.066-.607,7.166-42.871,37-59.658,110.142-61.952,5.279-.171,10.929-.265,16.8-.275l3.545-.019c5.6,0,11.412.076,17.488.152,5.242.132,10.626.265,16.209.454q9.768.328,20.331.8c1.232.066,2.36.1,3.536.18h.578c3.612.2,7.289.379,11.062.512,6.057.294,12.275.55,18.616.778,4.569.132,9.213.266,13.858.331,3.535.066,7.119.114,10.673.114,59.487,0,72.388-9.915,74.8-15.82,2.72-6.729-4.692-19.317-20.341-34.511a8.148,8.148,0,0,1,5.7-14,8.017,8.017,0,0,1,5.649,2.265l2.038,1.953c2.4,2.427,6.114,6.256,10.607,11.375,16.294,19.3,21.355,35.952,15.213,49.63-8.256,18.379-35.829,27.914-84.208,29.109q-7.053.2-14.066.19c-2.55,0-5.081-.028-7.612-.057-4.739-.038-9.469-.152-14.208-.247-6.361-.18-12.7-.407-19.033-.616l-15.242-.616q-10.223-.4-20.417-.711-8.061-.27-16.075-.351-4.408-.071-8.768-.066-5.928,0-11.9.123c-1.118,0-2.161.038-3.2.057q-6.966.184-13.061.474c-28.616,1.3-42.673,4.114-54.645,6.891-37,8.559-38.217,31.564-38.881,43.943a8.148,8.148,0,0,1-8.133,7.734c-.114,0-.256,0-.379-.009" transform="translate(-142.81 -345.225)" fill="#d6ecd7"/>
    <path id="Path_11708" data-name="Path 11708" d="M731.417,451.666c2.1,2.114,5.763,5.886,10.17,10.91,23.27,27.573,33.384,62.776-63.07,65.194-7.138.2-14.256.209-21.384.133q-7.037-.085-14.085-.256-9.455-.269-18.91-.626-7.635-.284-15.232-.578c-6.853-.275-13.687-.531-20.531-.73-5.384-.161-10.777-.3-16.189-.36q-10.464-.142-20.948.057c-1.071.01-2.142.028-3.2.066-4.739.133-9.147.284-13.26.465-29.052,1.346-43.687,4.237-56.114,7.109-42.976,9.943-44.511,39.042-45.184,51.459l.493-12.294.54-6.01c6.256-37.422,30.635-52.91,102.331-55.127,5.28-.19,10.786-.266,16.559-.293,6.616-.048,13.564.028,20.872.161,5.185.114,10.54.256,16.1.426,6.464.209,13.223.484,20.227.806,1.356.057,2.73.133,4.114.2,3.593.171,7.28.351,11.09.5,6.028.275,12.294.531,18.663.739,4.616.152,9.308.284,13.972.379,64.7,1.052,130.653-6.274,70.994-64.265.645.635,1.3,1.28,1.981,1.934" transform="translate(-135.521 -337.951)" fill="#d6ecd7"/>
    <path id="Path_11709" data-name="Path 11709" d="M450.962,626.306a8.2,8.2,0,0,1-7.5-4.92s-2.54-5.886-2.587-6l-3.327-8.729c-.066-.171-.123-.351-.171-.5-6.208-20.294-5.327-35.611,2.673-46.891,13.469-18.967,45.668-24.028,89.885-25.792,5.005-.18,10.237-.35,15.678-.474,6.625-.152,13.535-.256,20.777-.313,5.308-.057,10.806-.066,16.484-.095,7.1-.029,14.454-.057,22.123-.057h14.834c6.521-.028,13.166-.038,20.019-.114,4.692-.057,9.488-.123,14.332-.246,21.45-.55,86.691-2.2,104.1-21.829,10.588-11.972,12.588-26.995,5.934-44.663a8.159,8.159,0,0,1,4.417-10.37,8.426,8.426,0,0,1,3.213-.673,8.178,8.178,0,0,1,7.346,4.588c12.028,24.616,13.185,45.744,3.469,62.824-13,22.872-45.45,36.568-96.4,40.739-4.786.4-13.725,1.166-33.109,1.725-4.36.132-9.2.246-14.653.323-6.057.132-12.863.227-20.54.284q-6.867.057-14.673.085c-2.938.029-6,.029-9.166.029l-14.18-.029c-1.469-.019-15.365-.085-15.365-.085l-8.37-.019c-4.076,0-8.057.019-11.981.057-5.213.028-10.294.114-15.185.208-23.924.607-39.877,2.294-51.7,5.517-12.388,3.336-19.838,7.858-22.767,13.857-3.175,6.522-1.9,16.408,3.905,30.218a8.2,8.2,0,0,1-4.322,10.692,8.488,8.488,0,0,1-3.2.654" transform="translate(-136.988 -296.346)" fill="#d6ecd7"/>
    <path id="Path_11710" data-name="Path 11710" d="M678.339,547.358c-5.2.445-14.056,1.156-32.682,1.706-4.3.094-9.128.237-14.54.322-6.057.094-12.844.209-20.464.265-4.578.038-9.469.057-14.644.067-6.891.028-14.351.028-22.436,0-1.753-.01-3.564-.028-5.384-.028-3.678-.01-7.27-.029-10.862-.038-7-.028-13.848-.028-20.408.029-5.27.028-10.37.114-15.336.237-21.3.521-39.649,1.991-53.621,5.773-30.265,8.17-37.27,24.132-24.265,55.136l-2.464-5.677-3.327-8.7c-14.568-47.649,13.289-59.27,85.1-62.142,4.957-.189,10.142-.332,15.526-.474q9.881-.185,20.683-.294c5.3-.057,10.787-.086,16.416-.114q10.635-.014,22.1-.018c2.767,0,5.574,0,8.417-.019h6.417c6.417-.01,13.156-.028,20.114-.114,4.749-.057,9.573-.123,14.445-.246,44.834-1.137,93.3-5.735,109.989-24.606,13.924-15.706,14.436-34.426,7.488-52.919,18.569,38.037,17.175,83.383-86.265,91.857" transform="translate(-129.722 -289.038)" fill="#d6ecd7"/>
    <path id="Path_11711" data-name="Path 11711" d="M465.305,565.07l-6.047-.2-12.265-.957c12.417.825,41.5,2.739,56.473-38.739,4.361-12.1,9-26.426,13.848-55.611,5-.056,10.009-.123,14.986-.275-10.72,71.506-28.976,94.037-66.995,95.781" transform="translate(-20.925 -172.135)" fill="#96d760"/>
    <path id="Path_11712" data-name="Path 11712" d="M452.9,547.468l-8.237-4.322-5.346-3.1c29.232,16.6,45.914,11.517,57.629-17.517,5.5-13.6,9.147-31.943,12.209-53.355,4.341.132,8.748.246,13.2.379.8.028,1.621.028,2.455.076-11.393,71.544-26.17,98.075-71.914,77.838" transform="translate(-86.023 -173.102)" fill="#96d760"/>
    <path id="Path_11713" data-name="Path 11713" d="M444.908,530.211l-3.346-2.587-4.692-3.839c39.478,31.867,51.327-.531,58.1-54.644,4.768-.038,9.706-.009,14.8.047-8.645,62.483-21.943,91.051-64.862,61.023" transform="translate(-106.753 -173.541)" fill="#96d760"/>
    <path id="Path_11714" data-name="Path 11714" d="M455.644,559.86c-3.706-.919-8.218-2.322-12.35-3.621,13.735,4.019,39.715,8.151,53.544-26.853,7.763-19.649,12.853-39.753,16.5-60.1q7.279.185,14.691.266c-13.194,80.255-31.583,98.3-72.388,90.312" transform="translate(-52.296 -172.186)" fill="#96d760"/>
    <path id="Path_11715" data-name="Path 11715" d="M447.294,479.729c-1.687-.5-3.2-.976-4.474-1.422,1.375.465,2.919.92,4.474,1.422" transform="translate(-56.306 -95.675)" fill="#96d760"/>
    <path id="Path_11716" data-name="Path 11716" d="M555.231,456.993c-17.517-9.081-36.19-10.8-53.4,1.128-20.607,14.265-30.938,61.384-37.4,105.525-5.555-.17-10.91-.313-16.095-.417,2.673-17.924,4.417-26.483,5.44-31.5,20.73-101.686,65.9-97.686,101.459-74.738" transform="translate(-9.58 -390.226)" fill="#96d760"/>
    <path id="Path_11717" data-name="Path 11717" d="M537.585,456.673c3.668,3.052,7.137,6.2,10.379,9.289-15.232-12.692-34.692-20.967-52.5-4.654-15.507,14.208-23.365,55.155-28.095,92.53-3.8-.161-7.5-.341-11.09-.512-1.384-.066-2.758-.133-4.114-.189,1.09-8.531,2.341-17.024,3.839-25.46,16.957-95.392,53.744-91.213,81.582-71" transform="translate(22.918 -378.911)" fill="#96d760"/>
    <path id="Path_11718" data-name="Path 11718" d="M586.846,462.782c1.753,1.2,3.659,2.54,5.6,3.971-31.09-21.165-64.644-26.464-85.705-9.971-17.612,13.772-32.682,32.6-45.8,116.274q-8.659.043-16.559.294c13.261-88.52,44-170.245,142.463-110.568" transform="translate(-43.054 -400.232)" fill="#96d760"/>
    <path id="Path_11719" data-name="Path 11719" d="M530.561,466.049c4.493,5,7.82,9.09,9.659,11.45.55.749,1.1,1.441,1.659,2.142-50.294-65.867-65.516-2-72.17,62.094-4.673-.085-9.355-.209-13.971-.36.768-6.825,1.592-13.649,2.588-20.464,13.857-95.449,47.611-81.241,72.236-54.862" transform="translate(53.212 -365.699)" fill="#96d760"/>
    <path id="Path_11720" data-name="Path 11720" d="M471.11,457.832c.322.55.663,1.118,1.042,1.706-1.336-2.114-2.73-4.19-4.17-6.265,1.1,1.592,2.2,3.166,3.128,4.559" transform="translate(157.032 -307.928)" fill="#6c3a79"/>
    <path id="Path_11721" data-name="Path 11721" d="M511.315,573.226c4.824-.1,9.848-.123,15.033-.123q9.711,0,20.265.123,6.7.085,13.725.228c.739,0,1.45.019,2.18.038q11.744.171,22.512.256c5.014,0,9.877.019,14.578,0,7.251-.038,14.094-.142,20.663-.265l14.787-.436c85.307-3,105.838-15.763,121.677-31.649,18.843-18.948,17.592-52.891.294-86.284,1.137,2.1,2.266,4.161,3.242,6.028C807.947,566.3,722.545,586.922,632.8,589.482c-4.977.151-9.981.227-14.986.275-6.929.047-13.829,0-20.654-.066q-7.407-.086-14.691-.266c-7.6-.17-15.043-.36-22.265-.578-.806-.038-1.649-.038-2.446-.066q-6.7-.185-13.2-.379-10.337-.27-20.1-.426c-5.09-.057-10.028-.085-14.815-.047-54.095.37-87.25,8.389-60.388,51.175l-3.3-5.109-2.171-3.63c-24.6-46.018,5-55.933,67.535-57.137" transform="translate(-121.426 -292.327)" fill="#6c3a79"/>
    <path id="Path_11722" data-name="Path 11722" d="M474.838,465.091c-2.1-3.773-4.37-7.715-6.417-11.156,2.322,3.687,4.474,7.422,6.417,11.156" transform="translate(160.754 -302.315)" fill="#6c3a79"/>
    <path id="Path_11723" data-name="Path 11723" d="M769.457,504.414a156.151,156.151,0,0,0-9.146-16.038c16.748,30.01,16.558,67.042-80.208,72.559-8.844.5-17.668.768-26.521.806-4.778.028-9.573.019-14.36-.038-6.511-.076-13.042-.2-19.554-.389-5.014-.1-10.066-.256-15.071-.379-7.156-.209-14.3-.4-21.441-.531q-8.217-.2-16.445-.228c-6.948-.028-13.915.028-20.882.228-5.3.132-10.615.36-15.914.691-20.35,1.223-40.654,3.9-60.833,9.2C432.768,579.826,433.7,606,436,620.129c-.777-4.218-1.6-8.806-2.123-12.559-3.024-41.336,16.938-57.478,97.535-61.1q7.721-.355,16.151-.54c6.645-.161,13.64-.275,21-.284,5.251-.028,10.711-.009,16.369.01,6.73.057,13.754.161,21.052.275,3.384.066,6.816.123,10.322.19,1.583.047,3.2.076,4.863.114,6.028.114,12.521.237,19.289.294,4.626.038,9.412.066,14.237.028,37.886-.209,79.942-3.119,96.008-16.91,18.332-15.763,12.407-36.085,1.611-52.71a124.148,124.148,0,0,0-12.171-15.564,159.16,159.16,0,0,0-11.583-11.564l-.066-.076c17.374,15.176,33.469,34.787,40.966,54.682" transform="translate(-134.575 -337.951)" fill="#6c3a79"/>
    <path id="Path_11724" data-name="Path 11724" d="M731.417,451.666c2.1,2.114,5.763,5.886,10.17,10.91,23.27,27.573,33.384,62.776-63.07,65.194-7.138.2-14.256.209-21.384.133q-7.037-.085-14.085-.256-9.455-.269-18.91-.626-7.635-.284-15.232-.578c-6.853-.275-13.687-.531-20.531-.73-5.384-.161-10.777-.3-16.189-.36q-10.464-.142-20.948.057c-1.071.01-2.142.028-3.2.066-4.739.133-9.147.284-13.26.465-29.052,1.346-43.687,4.237-56.114,7.109-42.976,9.943-44.511,39.042-45.184,51.459l.493-12.294.54-6.01c6.256-37.422,30.635-52.91,102.331-55.127,5.28-.19,10.786-.266,16.559-.293,6.616-.048,13.564.028,20.872.161,5.185.114,10.54.256,16.1.426,6.464.209,13.223.484,20.227.806,1.356.057,2.73.133,4.114.2,3.593.171,7.28.351,11.09.5,6.028.275,12.294.531,18.663.739,4.616.152,9.308.284,13.972.379,64.7,1.052,130.653-6.274,70.994-64.265.645.635,1.3,1.28,1.981,1.934" transform="translate(-135.521 -337.951)" fill="#6c3a79"/>
    <path id="Path_11725" data-name="Path 11725" d="M678.339,547.358c-5.2.445-14.056,1.156-32.682,1.706-4.3.094-9.128.237-14.54.322-6.057.094-12.844.209-20.464.265-4.578.038-9.469.057-14.644.067-6.891.028-14.351.028-22.436,0-1.753-.01-3.564-.028-5.384-.028-3.678-.01-7.27-.029-10.862-.038-7-.028-13.848-.028-20.408.029-5.27.028-10.37.114-15.336.237-21.3.521-39.649,1.991-53.621,5.773-30.265,8.17-37.27,24.132-24.265,55.136l-2.464-5.677-3.327-8.7c-14.568-47.649,13.289-59.27,85.1-62.142,4.957-.189,10.142-.332,15.526-.474q9.881-.185,20.683-.294c5.3-.057,10.787-.086,16.416-.114q10.635-.014,22.1-.018c2.767,0,5.574,0,8.417-.019h6.417c6.417-.01,13.156-.028,20.114-.114,4.749-.057,9.573-.123,14.445-.246,44.834-1.137,93.3-5.735,109.989-24.606,13.924-15.706,14.436-34.426,7.488-52.919,18.569,38.037,17.175,83.383-86.265,91.857" transform="translate(-129.722 -289.038)" fill="#6c3a79"/>
  </g>
</svg>
