<svg xmlns="http://www.w3.org/2000/svg" width="401.344" height="506.875" viewBox="0 0 401.344 506.875">
  <g id="Group_210" data-name="Group 210" transform="translate(0)">
    <g id="Group_186" data-name="Group 186" transform="translate(67.64 19.735)">
      <path id="Path_11273" data-name="Path 11273" d="M94.07,251.17s.993,14.406,4.73,17.307a10.616,10.616,0,0,1,11.207-2.041,23.9,23.9,0,0,1,9.272,6.418c.718.828,1.1,1.378,1.1,1.378s6.791,1.88,12.228-8.471c5.437-10.371,9.676-16.153,10.874-24.986a25.6,25.6,0,0,0,.228-3.38c-.012-7.246-3.168-12.911-5.664-15.121-2.9-2.559-5.437-1.876-10.709-.522a28.864,28.864,0,0,1-4.42.722l-.024.016c-5.256.5-11.761.09-14.744-1.578-3.937-2.218-10.006-5.178-10.387-2.607a7.282,7.282,0,0,0-.063.758c-.1,1.708-.043,5.029-.141,8.64-.11,4.255-.408,8.93-1.37,11.855C95.538,243.468,94.749,247.531,94.07,251.17Z" transform="translate(-94.07 -217.309)" fill="#f1b5ab"/>
      <path id="Path_11274" data-name="Path 11274" d="M94.07,257.885c.718.828,1.1,1.378,1.1,1.378s6.791,1.88,12.228-8.471c5.437-10.371,9.676-16.153,10.874-24.986a25.591,25.591,0,0,0,.228-3.38,220.286,220.286,0,0,1-12.134,22.748A34.966,34.966,0,0,1,94.07,257.885Z" transform="translate(-68.861 -202.34)" fill="#f5948d"/>
      <path id="Path_11275" data-name="Path 11275" d="M99.373,219.064c3.3,3.71,10.936,8.554,25.194,3.427-5.256.5-11.761.09-14.744-1.578-3.937-2.218-10.006-5.178-10.387-2.607A7.278,7.278,0,0,0,99.373,219.064Z" transform="translate(-95.742 -217.309)" fill="#f5948d"/>
    </g>
    <g id="Group_187" data-name="Group 187" transform="translate(265.193 193.076)">
      <path id="Path_11276" data-name="Path 11276" d="M56.851,312.773c3.753,12.911,13.26,39.416,13.26,39.416s-.526,11.117.522,15.129a2.971,2.971,0,0,0,.487,1.178c1.712,2.033,2.638-.51,2.638-.51s2.473,14.956,5.354,13.425-.338-23.792-1.358-27.871S73.676,319.9,73,308.518s-4.075-43.318-5.774-47.051c0,0-1.6.4-8.4,1.77a46.487,46.487,0,0,0-5.743,1.5,29.991,29.991,0,0,0-4.86,1.947C48.9,271.6,53.13,299.862,56.851,312.773Z" transform="translate(-48.223 -261.467)" fill="#f1b5ab"/>
      <path id="Path_11277" data-name="Path 11277" d="M59.222,310.339c3.753,12.911,13.26,39.416,13.26,39.416s-.526,11.117.522,15.129c-.055-5.876.444-15.612.322-15.989-.161-.506-11.89-40.428-13.6-52.656-1.6-11.474-2.583-24.012-4.271-33.94a29.991,29.991,0,0,0-4.86,1.947C51.273,269.169,55.5,297.428,59.222,310.339Z" transform="translate(-50.594 -259.033)" fill="#f5948d"/>
    </g>
    <path id="Path_11278" data-name="Path 11278" d="M83.877,528.207,89,531.288l.6.353.557.334s1.029-2.673,2.709-7.129c6.748-17.986,24-64.833,26.171-80.225,2.716-19.207-5.441-31.258-5.441-31.258a410.105,410.105,0,0,0,12.236-41.457c2.9-12.758,8.97-34.093,13.056-48.032l.071-.239c.993-3.4,1.865-6.3,2.532-8.577v-.008c.922-3.105,1.48-4.938,1.48-4.938l.259.137.031.016.024.016.938.483,2.241,1.174c.024.106.067.212.094.322,12.342,44.209,12.353,43.954,16.989,66.105,4.416,21.068,11.207,40.087,15.965,59.455,2.434,9.924,8.185,33.72,13.2,54.568,4.769,19.831,8.887,37,8.887,37l3.184.5.675.118,3.78.6s10.709-71.71,7.313-89.728c-3.4-18-15.973-33.634-15.973-33.634s2.724-58.941,2.041-80.182c-.13-4.184-.444-8.691-.883-13.256-.016-.3-.051-.6-.082-.895-1.182-12.4-3.125-24.962-4.255-31.789-.039-.235-.082-.475-.122-.691-.479-2.842-.773-4.506-.773-4.506s-.923.137-2.583.392c-3.529.5-10.395,1.394-18.85,2.069-.228.008-.463.039-.691.055-7.18.534-15.427.9-23.729.711a114.253,114.253,0,0,1-11.6-.852c-.263-.043-.506-.074-.762-.1a171.975,171.975,0,0,1-20.032-3.843c-.232-.067-.463-.13-.695-.173-8.114-2.088-13.468-4.028-13.468-4.028s-.283,1.924-.734,5.013c-.039.224-.082.448-.11.675-.95,6.328-2.528,16.817-3.925,25.924-.055.369-.122.734-.181,1.1-.538,3.553-1.072,6.877-1.5,9.586-2.206,13.586-8.153,72.7-9.515,92.41S83.877,528.207,83.877,528.207Z" transform="translate(-59.915 -42.966)" fill="#96d760"/>
    <path id="Path_11279" data-name="Path 11279" d="M83.877,488.089c4.769,19.831,8.887,37,8.887,37l3.184.5.675.118,3.78.6s10.709-71.711,7.313-89.729c-3.4-18-15.973-33.634-15.973-33.634S94.467,344,93.784,322.764c-.13-4.184-.444-8.691-.883-13.256-.016-.3-.051-.6-.082-.9-1.182-12.4-3.125-24.962-4.255-31.789-.039-.235-.082-.475-.122-.691-.479-2.842-.773-4.506-.773-4.506s-.923.137-2.583.392c.585,17.394,1.048,56.028.479,91.856-.612,37.37,1,48.931,1,48.931S100.517,454.621,83.877,488.089Z" transform="translate(48.914 -38.668)" fill="#78be3e"/>
    <path id="Path_11280" data-name="Path 11280" d="M102.765,280.334l-.055.145.031.016A.735.735,0,0,1,102.765,280.334Z" transform="translate(-19.4 -13.196)" fill="#892e28"/>
    <path id="Path_11281" data-name="Path 11281" d="M103.167,491.385c6.748-17.986,24-64.833,26.171-80.225,2.716-19.207-5.441-31.258-5.441-31.258a410.109,410.109,0,0,0,12.236-41.457c2.9-12.758,8.97-34.093,13.056-48.032l.071-.239c.993-3.4,1.865-6.3,2.532-8.577L116.981,377.6s1.484,13.507,1.142,41.531C117.884,438.937,108.6,473.045,103.167,491.385Z" transform="translate(-70.22 -9.504)" fill="#78be3e"/>
    <path id="Path_11282" data-name="Path 11282" d="M54.247,432.689c-3.56,13.256-2.881,31.765,1.2,46.9s10.187,42.3,10.187,42.3c.157.074.287.153.424.212a11.646,11.646,0,0,0,1.119.53l.067.031c.247.086.463.169.675.232,3.184,1,4-.844,4-.844s4.593-26.666,6.634-48.409,7.98-54.36,10.014-80.013c1.837-23.007,7.341-65.018,8.467-73.418.126-.981.192-1.5.192-1.5s.11.283.3.8v.016c1.566,4.31,8.97,24.75,13.81,37.92,5.437,14.768,18.183,48.071,18.183,48.071a129.242,129.242,0,0,0-9.692,24.8c-3.576,13.425-1.182,29.225,2.214,44s10.7,49.092,10.7,49.092c.22.094.428.184.64.271a6.394,6.394,0,0,0,.722.228,1.411,1.411,0,0,0,.243.063,8.321,8.321,0,0,0,6.371-1.409s.031-.184.071-.514c.381-3.611,2.842-26.5,4.864-45.52,2.222-20.73,8.153-65.752,8.153-65.752s-2.889-32.621-6.293-54.764c-.73-4.844-1.9-10.987-3.286-17.665-1.766-8.55-3.882-17.955-5.967-26.634-1.044-4.4-2.1-8.62-3.074-12.42-.094-.44-.2-.86-.31-1.28-1.288-5.04-2.45-9.323-3.333-12.3-.063-.224-.133-.44-.2-.644a24.9,24.9,0,0,0-1.319-3.737s-5.692,4.157-25.033,2.654c-23.325-1.81-32.55-12.84-32.55-12.84s.11-.33.3-.883a.916.916,0,0,0-.133-.082s-1.739,2.116-4.224,5.441l-.412.53c-2.285,3.066-5.111,7.023-7.788,11.235-.133.181-.259.4-.381.6A87.89,87.89,0,0,0,53.4,299.659c-5.61,12.883,1,43.341,3.4,59.828,2.371,16.467,8.157,47.726,8.157,47.726A119.226,119.226,0,0,0,54.247,432.689Z" transform="translate(131.754 -42.895)" fill="#96d760"/>
    <path id="Path_11283" data-name="Path 11283" d="M56.687,432.689c-3.56,13.256-2.881,31.765,1.2,46.9s10.187,42.3,10.187,42.3c.157.074.287.153.424.212a11.647,11.647,0,0,0,1.119.53l.067.031c-1.892-12.177-7.572-51.369-5.861-74.674,2.041-27.863,9.174-32.279,9.174-32.279l1.036,3.772c-.267-1.013-.71-2.661-1.374-5.131-3.737-13.931-8.836-64.554-8.836-64.554s16.314-31.934,28.095-43.832c11.8-11.89,24.581-7.2,33.83,2.72,6.261,6.724,15.231,21.041,20.911,29.665-1.766-8.55-3.882-17.955-5.967-26.634-1.044-4.4-2.1-8.62-3.074-12.42-.094-.44-.2-.86-.31-1.28-1.288-5.04-2.45-9.323-3.333-12.3-.063-.224-.133-.44-.2-.644a24.9,24.9,0,0,0-1.319-3.737s-5.692,4.157-25.033,2.654c-23.325-1.81-32.55-12.84-32.55-12.84s.11-.33.3-.883a.916.916,0,0,0-.133-.082s-1.739,2.116-4.224,5.441l-.412.53c-2.285,3.066-5.111,7.023-7.788,11.235-.133.181-.259.4-.381.6a87.89,87.89,0,0,0-6.387,11.674c-5.61,12.883,1,43.341,3.4,59.828,2.371,16.467,8.157,47.726,8.157,47.726A119.227,119.227,0,0,0,56.687,432.689Z" transform="translate(129.314 -42.895)" fill="#78be3e"/>
    <path id="Path_11284" data-name="Path 11284" d="M69.758,320.672c5.437,14.768,18.183,48.071,18.183,48.071a129.241,129.241,0,0,0-9.692,24.8c-3.576,13.425-1.182,29.225,2.214,44s10.7,49.092,10.7,49.092c.22.094.428.184.64.271a6.382,6.382,0,0,0,.722.228,1.406,1.406,0,0,0,.243.063c-2.987-13.677-9.551-43.632-8.915-60.708.856-22.418,9.755-56.052,9.755-56.052s-18.034-44.915-25.873-66.282-11.784-21.405-11.784-21.405C57.514,287.062,64.918,307.5,69.758,320.672Z" transform="translate(173.323 -6.122)" fill="#78be3e"/>
    <path id="Path_11285" data-name="Path 11285" d="M74.259,300.546v-.016l.216-.436a7.861,7.861,0,0,0,.259,1.986,1.122,1.122,0,0,0,.071.212,10.806,10.806,0,0,0,2.654,4.608c.051.047.09.1.145.145a11.435,11.435,0,0,0,.95.852v.118a141.8,141.8,0,0,1-2.037,18.913,159.074,159.074,0,0,1-5.641,21.382c-.188.553-.3.883-.3.883a25.943,25.943,0,0,0,5.056,4.208c4.962,3.313,13.794,7.568,27.494,8.632,2.96.232,5.613.322,7.977.322,12.978,0,17.056-2.976,17.056-2.976-1.374-11.129,2.461-38.018,3.274-43.53.071-.463.122-.777.137-.915v-.008a.182.182,0,0,0,.016-.067v4.369a.637.637,0,0,0,.106-.047,30.73,30.73,0,0,1,4.416-1.731,129.157,129.157,0,0,1,14.477-3.435s-.137-1.229-.4-3.219c-.027-.216-.059-.455-.078-.683-.789-6.257-2.489-18.654-4.463-26.513-2.712-10.874-5.759-29.045-11.035-32.44-5.036-3.25-12.84-5.947-19.8-6.815-.3-.031-.581-.063-.879-.086a.1.1,0,0,0-.067-.016c-4.483-.451-8.506-.667-12.122-.726-.247-.008-.491-.008-.722-.008-16.31-.192-23.93,3-26.528,4.416-.232.13-.436.243-.581.345a2.52,2.52,0,0,0-.287.169c-1.523,1.025-5.26,6.453-10.669,16.813-3.788,7.282-7.882,19.435-9.986,26.014-.067.228-.153.444-.22.675v.016c-.758,2.383-1.2,3.878-1.2,3.878a39.766,39.766,0,0,1,18.144,5.445c1.923,1.174,2.979,2.147,2.979,2.438Z" transform="translate(133.607 -120.942)" fill="#6c3a79"/>
    <path id="Path_11286" data-name="Path 11286" d="M55.238,268.491a30.733,30.733,0,0,1,4.416-1.731l-.922-5.927a4.867,4.867,0,0,0-3.439,4.318C55.254,266.006,55.238,267.2,55.238,268.491Z" transform="translate(210.061 -70.248)" fill="#54295f"/>
    <path id="Path_11287" data-name="Path 11287" d="M69.762,310.262c-.188.553-.3.883-.3.883a25.945,25.945,0,0,0,5.056,4.208,105.467,105.467,0,0,0,5.641-24.664c1.468-15.847,2.461-18.638,2.461-18.638s-8.538-9.17-6.147-15.541l-7.894,6.724c1.923,1.174,2.979,2.147,2.979,2.438l1.586-3.176v-.016l.216-.436a7.859,7.859,0,0,0,.259,1.986,1.12,1.12,0,0,0,.071.212,10.807,10.807,0,0,0,2.654,4.608c.051.047.09.1.145.145a11.429,11.429,0,0,0,.95.852v.118A141.806,141.806,0,0,1,75.4,288.879,159.078,159.078,0,0,1,69.762,310.262Z" transform="translate(134.72 -82.892)" fill="#54295f"/>
    <path id="Path_11288" data-name="Path 11288" d="M81.057,301.9c.078-.024.479-.145,1.13-.338.137-.035.283-.09.428-.137.97-.267,2.34-.62,4-.966.216-.039.459-.082.691-.114a49.309,49.309,0,0,1,9.582-.95c2.72,0,5.464.13,7.961.306,5.464.4,9.7,1.04,9.7,1.04l-.039.33H114.5l-1.248,8.687-.055.33s.126,0,.338.008c.844.016,3.152.031,6.4.063,5.452.008,13.512.031,21.621-.071,14.269-.184,27.019-1.715,30.583.079,1.923.95,6.073,3.034,9.672,4.981a41.15,41.15,0,0,1,5.994,3.69,2.788,2.788,0,0,1,.31.322,13.145,13.145,0,0,1,1.617,3.878v.016c.793,3.144.561,6.968-4.33,7.081-.436,0-.875,0-1.335-.027h-.055a37.6,37.6,0,0,1-4.455-.455,1.314,1.314,0,0,1-.177-.043,74.8,74.8,0,0,1-11.458-3l-.027-.016c-.326-.114-.5-.169-.5-.169s-.161,0-.463.008h-.012a37.456,37.456,0,0,0-4.978.514c-.338.063-.691.114-1.056.192a31.014,31.014,0,0,0-5.661,1.657c-3.132,1.3-12.036,5.9-21.535,10.355-4.675,2.2-9.5,4.365-13.849,6.073a78.5,78.5,0,0,1-8,2.732c-1.076.29-2.163.589-3.25.887.628,13.916,1.209,26.65,1.209,26.65s2.8,1.013,7.431,2.363c8.754,2.559,24.012,6.293,39.129,6.63a282.607,282.607,0,0,0,43.337-2.85c1.621-.239,2.516-.377,2.516-.377l2.218-19.871-1.346-9.908v-.016c-.283-2.108-.628-4.648-1.044-7.741-2.367-17.665-11.961-34.32-11.961-34.32s4-1.032,16.554,1.535a136.473,136.473,0,0,1,13.692,3.541c5.087,1.6,8.212,2.9,8.212,2.9.491-1.8.95-3.662,1.39-5.594.051-.216.09-.444.145-.675,4.024-18.093,5.625-40.059,1.531-46.729,0-.024-.02-.039-.047-.071l-.016-.023c-4.6-7.451-14.285-15.2-32.727-20.793-7.674-2.344-13.6-4.185-18.438-5.625-6.838-2.026-11.5-3.223-15.875-3.714l-14.948,1.131s-7.286,2.65-15.918,5.88c-7.191,2.681-15.317,5.778-20.942,8.1-12.408,5.091-18.348,13.072-21.92,22.764-2.434,6.579-6.049,17.994-8.114,24.656-.094.283-.177.546-.243.8v.016c-.514,1.617-.9,2.877-1.127,3.643C81.152,301.6,81.073,301.874,81.057,301.9Z" transform="translate(-65.634 -148.3)" fill="#6c3a79"/>
    <path id="Path_11289" data-name="Path 11289" d="M94.716,241.163c23.086,10.379,40.491,1.048,46.741-3.3-6.838-2.026-11.5-3.223-15.875-3.714l-14.948,1.131S103.348,237.932,94.716,241.163Z" transform="translate(-26.711 -148.3)" fill="#54295f"/>
    <path id="Path_11290" data-name="Path 11290" d="M81.057,292.006c5.087,1.6,8.212,2.9,8.212,2.9.491-1.8.95-3.662,1.39-5.594.051-.216.09-.444.145-.675,4.024-18.093,5.625-40.06,1.531-46.729,0-.024-.02-.039-.047-.071C92.885,254.007,87.515,279.3,81.057,292.006Z" transform="translate(73.638 -125.827)" fill="#54295f"/>
    <path id="Path_11291" data-name="Path 11291" d="M88.588,270.592c.628,13.916,1.209,26.65,1.209,26.65s2.8,1.013,7.431,2.363c-1.425-8.726-3.549-22.273-3.7-26.889a35.514,35.514,0,0,0,10.085-3.847s8.852,12.067,34.05,16.558c25.178,4.51,41.041,4.059,41.041,4.059l.989,13.9c1.621-.239,2.516-.377,2.516-.377l2.218-19.871-1.346-9.908v-.016c-19.71-1.778-61.43-5.543-62.423-5.519-.5,0-3.462-3.015-6.972-6.8-4.675,2.2-9.5,4.365-13.849,6.073a78.5,78.5,0,0,1-8,2.732C90.763,270,89.675,270.294,88.588,270.592Z" transform="translate(-45.627 -70.05)" fill="#54295f"/>
    <path id="Path_11292" data-name="Path 11292" d="M125.2,282.432c-.079-3.7-.13-7.984-.122-12.675.071-15.831,0-26.128,0-26.128l-14.964,28.346c5.464.4,9.7,1.04,9.7,1.04l-.039.33h-.016l-1.248,8.687-.055.33s.126,0,.338.008C119.64,282.385,121.948,282.4,125.2,282.432Z" transform="translate(-70.893 -120.576)" fill="#54295f"/>
    <path id="Path_11293" data-name="Path 11293" d="M103.619,245.518c-.93.895-10.516,28.358-12.389,38.733l12.742,8.389-5.6-6.811s.239-8.817,1.617-18.7S103.619,245.518,103.619,245.518Z" transform="translate(24.458 -115.049)" fill="#54295f"/>
    <g id="Group_188" data-name="Group 188" transform="translate(29.084 231.22)">
      <path id="Path_11294" data-name="Path 11294" d="M85.437,298.768c6.116-5.928,11.984-15.765,15.667-22.65-4.824-1.178-8.809-2.328-11.741-3.274.027-.228.071-.451.11-.675,2.964.938,7.023,2.147,11.977,3.344.879-1.688,1.637-3.168,2.226-4.33.232.043.463.106.695.173-.589,1.166-1.335,2.63-2.218,4.318a200.548,200.548,0,0,0,23.879,4.188c-.883-2.548-1.535-4.455-1.629-4.663.255.024.5.055.762.1.271.777.852,2.446,1.617,4.648,1.547.161,3.125.33,4.746.459A186.583,186.583,0,0,0,162.4,280.3c-.828-1.986-1.472-3.682-1.9-4.86.228-.016.463-.047.691-.055.451,1.2,1.1,2.9,1.931,4.86,4.781-.42,9.025-.95,12.5-1.48a.332.332,0,0,1,.463-.122.235.235,0,0,1,.039.055c3.125-.475,5.6-.938,7.27-1.268.039.216.082.455.122.691-1.672.346-4.075.773-7.062,1.229,1.217,2.783,4.848,13.653,6.74,27.062,1.668,1.335,3.25,2.524,4.577,3.5.031.3.067.6.082.895-1.3-.942-2.854-2.116-4.538-3.435a115.2,115.2,0,0,1,1,12.436c.491,20.9.192,86.584.161,89.913,1.013,1.185,10.088,12.55,12.856,35.828,2.532,21.213-3.957,68.81-5.763,81.454l-.675-.118c1.814-12.612,8.287-60.138,5.755-81.254C193.764,421.337,184,410.185,183.9,410.075a.334.334,0,0,1-.09-.228c.008-.683.338-68.7-.169-90.027a118.015,118.015,0,0,0-1.072-13.048,84.227,84.227,0,0,1-10.4-9.66c-4.059-4.64-7.337-11.18-9.5-16.169-5.135.428-10.87.714-16.9.714-4.632,0-9.449-.165-14.316-.585-1.488-.122-2.972-.267-4.44-.42,1.28,3.7,2.952,8.6,4.455,13.064a.333.333,0,0,1-.2.436.269.269,0,0,1-.1.016.339.339,0,0,1-.33-.239c-1.036-3.019-3.046-8.97-4.554-13.355A204.168,204.168,0,0,1,101.81,276.3c-3.8,7.152-10.014,17.606-16.554,23.569C85.315,299.5,85.382,299.137,85.437,298.768Zm87.248-2.116a81.689,81.689,0,0,0,9.731,9.131,129.165,129.165,0,0,0-6.658-26.336c-3.47.514-7.666,1.028-12.369,1.433C165.513,285.8,168.716,292.15,172.685,296.652Z" transform="translate(-75.121 -271.184)" fill="#a6ddeb"/>
      <path id="Path_11295" data-name="Path 11295" d="M101.812,504.578l.6.353c.106-.353.243-.738.381-1.173,8.55-26.6,13.971-45.434,16.149-55.993.663-3.274,1.409-6.493,2.147-9.606,3.584-15.337,6.983-29.81,1.939-52.283L151.7,297.164l.071-.239,4.326-13.355.012-.063a.184.184,0,0,0-.012-.114l.938.659,2.049,1.464a.415.415,0,0,0,.192.063.119.119,0,0,0,.094-.031.277.277,0,0,0,.188-.118.355.355,0,0,0-.078-.483l-7.9-5.594a.333.333,0,1,0-.389.542l4.5,3.207a.315.315,0,0,0-.232.208L122.346,385.754a.309.309,0,0,0,0,.169c5.025,22.387,1.66,36.809-1.927,52.075-.722,3.121-1.48,6.355-2.163,9.629-2.147,10.532-7.572,29.363-16.122,55.93C102.016,503.95,101.91,504.291,101.812,504.578Z" transform="translate(-101.812 -247.475)" fill="#a6ddeb"/>
    </g>
    <path id="Path_11296" data-name="Path 11296" d="M34.939,335.869c4.016,1.264,11.368,5.9,13.127,17.119H25.93s-2.34-11.851-4.224-15.663Z" transform="translate(353.279 149.27)" fill="#6c3a79"/>
    <path id="Path_11297" data-name="Path 11297" d="M82.447,288.752c2.391,1.633,27.1,15.1,49.229,17.853,23.262,2.893,34.815,3.223,42.642-6.293,7.8-9.515,13.916-38.23,13.916-38.23s-1.209-1.641-7.38-3.823a84.268,84.268,0,0,0-9.931-2.783c-14.952-3.4-22.265-2.226-22.265-2.226-.145,2.587-.5,6.756-.844,10.615,1.182,1.617,4.923,10.807-2.712,10.976-7.651.157-18.01-3.71-18.01-3.71a36.4,36.4,0,0,0-12.122,2.363l-.051.023c-3.58,1.48-14.548,7.2-25.39,12.134C87.138,286.742,84.743,287.8,82.447,288.752Z" transform="translate(-25.327 -93.006)" fill="#f1b5ab"/>
    <path id="Path_11298" data-name="Path 11298" d="M92.27,289.772c.161,4.039,1.091,7.4,3.168,9.563,7.011,7.337,20.287,4.09,32.263.887,1.087-.3,2.175-.6,3.25-.887a89.029,89.029,0,0,0,10.909-3.91c12.719-5.307,28.1-13.425,32.472-15.235l0-.016.047-.008A36.4,36.4,0,0,1,186.5,277.8s10.359,3.867,18.01,3.71a4.575,4.575,0,0,0,3.925-1.715c1.916-2.791-.338-8.067-1.213-9.26-1.189-1.609-12.4-7.215-15.977-8.993-3.564-1.794-16.314-.263-30.583-.079-14.269.169-28.362,0-28.362,0l.071-.483v-.031l1.288-8.832s-3.8-.565-8.832-.966c-2.716-.22-5.786-.381-8.832-.381a54.216,54.216,0,0,0-15.835,2.5v.016C96.607,264.232,91.85,279.306,92.27,289.772Z" transform="translate(-84.741 -99.679)" fill="#f1b5ab"/>
    <path id="Path_11299" data-name="Path 11299" d="M56.679,334.859l.055-.514a22.066,22.066,0,0,1,5.044.514c6.795,1.531,17.833,11.152,17.833,11.152l-30.917.055s.236-9.26,0-10.359A8.058,8.058,0,0,0,56.679,334.859Z" transform="translate(215.788 144.808)" fill="#d64e27"/>
    <path id="Path_11300" data-name="Path 11300" d="M81.156,334.464l4.93,13.256s-7.639.345-15.278.067A101.862,101.862,0,0,1,74.867,334.3s.153.09.44.22C80.029,337.008,81.156,334.464,81.156,334.464Z" transform="translate(122.51 144.689)" fill="#d64e27"/>
    <path id="Path_11301" data-name="Path 11301" d="M101.189,222.989c3.341,1.66,1.409,17.657-9.515,15.879a75.629,75.629,0,0,1,7.015-15.835A2.642,2.642,0,0,1,101.189,222.989Z" transform="translate(24.014 -181.817)" fill="#f1b5ab"/>
    <path id="Path_11302" data-name="Path 11302" d="M112.054,226.11c.852-1.7-2.206-4.255-8.149-5.1s-8.157,1.358-8.157,1.358-.471,1.358,5.456,1.872A66.336,66.336,0,0,1,112.054,226.11Z" transform="translate(-1.466 -187.316)" fill="#441211"/>
    <path id="Path_11303" data-name="Path 11303" d="M113.4,224.1c1.472-.942-4.247-4.762-9.853-4.079v2.661S111.532,225.286,113.4,224.1Z" transform="translate(-33.556 -189.888)" fill="#441211"/>
    <path id="Path_11304" data-name="Path 11304" d="M113.59,339.711s-8.663-4.624-16.644-4.279S85.908,343.3,85.908,343.3l27.682.114Z" transform="translate(35.731 147.937)" fill="#d64e27"/>
    <path id="Path_11305" data-name="Path 11305" d="M146.482,342.168s-6.285-7.305-14.779-7.129-15.459,9.033-15.459,9.033,27.859.636,30.238.381Z" transform="translate(-116.244 146.834)" fill="#d64e27"/>
    <path id="Path_11306" data-name="Path 11306" d="M94.1,265.878c-2.858,7.188-4.448,15.427,3.71,22.23a20.617,20.617,0,0,0,2.43,1.731,32.55,32.55,0,0,0,8.51,3.6,38.268,38.268,0,0,0,16.079,1c.369-.071.742-.122,1.083-.208.444-.1.84-.216,1.252-.338a15.245,15.245,0,0,0,1.9-.695c7.474-3.4,10.367-11.38,12.408-21.147.188-.922.42-1.818.679-2.716a74.129,74.129,0,0,1,7.007-15.831c1.1-1.986,2.1-3.725,2.83-5.15,2.614-5.029,1.876-14.246-5.9-23.4h-.012l-.031-.047c-7.812-9.17-16.142-12.012-24.46-12.565-7.655-.506-20.389,2.214-26.324,6.108a6.977,6.977,0,0,0-2.583,3.407c-2.3,5.794-.275,15.784.585,19.871.53,2.548,1.272,5.672,1.872,8.165.616,2.493,1.076,4.373,1.076,4.373,1.927-5.853,1.209-18.685,1.574-21.253.381-2.571,6.45.389,10.387,2.607,3.925,2.2,13.916,2.2,19.188.84s7.812-2.037,10.709.522c2.622,2.308,5.951,8.42,5.641,16.157v.012a22.912,22.912,0,0,1-.2,2.332c-1.2,8.832-5.437,14.615-10.874,24.986-2.9,5.515-6.187,7.568-8.616,8.275l-.024.016a7.157,7.157,0,0,1-3.588.181,23.411,23.411,0,0,0-10.375-7.8,10.616,10.616,0,0,0-11.207,2.041C95.09,280.284,94.1,265.878,94.1,265.878Z" transform="translate(-26.457 -212.282)" fill="#591813"/>
    <path id="Path_11307" data-name="Path 11307" d="M85.137,254.01v5.773L62.543,256.9v-5.949Z" transform="translate(155.905 -99.155)" fill="#fff"/>
    <path id="Path_11308" data-name="Path 11308" d="M129.585,249.57l-1.527,8.495s-18.689-4.762-25.143-4.247l2.885-7.98S115.147,245.66,129.585,249.57Z" transform="translate(-47.024 -114.12)" fill="#fff"/>
    <g id="Group_189" data-name="Group 189" transform="translate(140.298 246.819)">
      <path id="Path_11309" data-name="Path 11309" d="M76.58,513.937a10.384,10.384,0,0,0,2.289-.236,8.22,8.22,0,0,0,6.387-6.241c1.625-6.3-2.446-15.639-9.453-21.728a34.692,34.692,0,0,0-16.153-8.02c-3.933-20.036-6.375-54.2-5.107-75.856,1.723-29.5,13.127-62.333,30.5-87.809,18.948-27.788,40.11-35.522,52.692-30.87,8.832,3.274,23.4,24,38.964,55.44,8.157,16.463,40.3,82.25,48.644,103.366,8.228,20.825,27.164,68.382,27.357,68.849a3.4,3.4,0,1,0,6.312-2.512c-.192-.471-19.121-48.02-27.349-68.833-8.428-21.331-40.688-87.365-48.872-103.888-11.89-24-28.939-53.7-42.7-58.792-8.2-3.026-18.379-1.865-28.66,3.3-11.4,5.727-22.473,16.138-32,30.108-18.042,26.45-29.881,60.57-31.675,91.252-1.24,21.245,1.036,54.372,4.8,75.251a142.5,142.5,0,0,0-19.627.208,3.4,3.4,0,1,0,.424,6.783c8.742-.55,15.345-.6,20.628-.024.338,1.449.683,2.8,1.036,4.028C61.6,510.648,71.476,513.937,76.58,513.937ZM61.364,485.164a27.515,27.515,0,0,1,9.982,5.7c5.959,5.178,8.083,11.977,7.329,14.9-.232.915-.628,1.166-1.225,1.3-4.609.973-11.3-5.189-15.906-21.229C61.486,485.611,61.423,485.387,61.364,485.164Z" transform="translate(-29.738 -275.158)" fill="#b15026"/>
    </g>
    <path id="Path_11310" data-name="Path 11310" d="M28.349,334.24c2.83,1.111,21.284,5.205,21.115,8.495s-24.919-2.76-24.919-2.76Z" transform="translate(340.731 144.505)" fill="#ab463e"/>
    <path id="Path_11311" data-name="Path 11311" d="M85.947,317.369l2.037,21.453,1.574,16.652,3.156,33.253c0,4.978,15.725,9.009,35.113,9.009,2.084,0,4.122-.039,6.1-.137,16.475-.738,29.005-4.424,29.005-8.872,0,0,1.723-16.232,3.549-33.174.071-.691.145-1.374.216-2.065.53-4.923,1.056-9.853,1.562-14.407,1.276-11.788,2.324-21.068,2.446-21.3-.981,2.512-6.807,4.73-15.517,6.222a161.92,161.92,0,0,1-26.787,2.026C105.464,326.033,86.767,322.186,85.947,317.369Z" transform="translate(-21.542 95.149)" fill="#a6ddeb"/>
    <path id="Path_11312" data-name="Path 11312" d="M85.947,397.288c16.475-.738,29.005-4.424,29.005-8.872,0,0,1.723-16.232,3.549-33.174.071-.691.145-1.374.216-2.065.53-4.923,1.056-9.853,1.562-14.407,1.276-11.788,2.324-21.068,2.446-21.3-.981,2.512-6.807,4.73-15.517,6.222C102.516,347.2,94.618,382.112,85.947,397.288Z" transform="translate(26.443 95.459)" fill="#66c8ce"/>
    <path id="Path_11313" data-name="Path 11313" d="M85.909,323.993c0,4.977,19.027,8.993,42.485,8.993a163.093,163.093,0,0,0,27.168-2.076c8.491-1.511,14.171-3.706,15.137-6.171a2.1,2.1,0,0,0,.149-.746c0-3.144-7.553-5.9-19.023-7.506a171.081,171.081,0,0,0-23.431-1.5C104.936,314.992,85.909,319.02,85.909,323.993Z" transform="translate(-21.531 88.195)" fill="#e69548"/>
    <path id="Path_11314" data-name="Path 11314" d="M86.57,322.834l1.574,16.652c5.982,1.5,18.022,3.7,39.69,4.538a147.565,147.565,0,0,0,17.908-.3c9.417-.812,15.517-2.544,19.329-4.161.071-.691.145-1.374.216-2.065.53-4.923,1.056-9.853,1.562-14.407a72.707,72.707,0,0,1-17.205,4.294,142.609,142.609,0,0,1-22.74,1.182C105.923,328.149,93.188,325.087,86.57,322.834Z" transform="translate(-20.127 111.137)" fill="#a3d6b7"/>
    <path id="Path_11315" data-name="Path 11315" d="M136.18,350.164a17.871,17.871,0,1,0-17.873,17.873A17.868,17.868,0,0,0,136.18,350.164Z" transform="translate(-43.9 138.838)" fill="#703e3e"/>
    <path id="Path_11316" data-name="Path 11316" d="M115.268,360.932a13.8,13.8,0,1,0-13.79-13.8A13.809,13.809,0,0,0,115.268,360.932Z" transform="translate(-40.861 141.872)" fill="#e78234"/>
    <path id="Path_11317" data-name="Path 11317" d="M105.589,344.676a9.256,9.256,0,1,0-9.26,9.26A9.26,9.26,0,0,0,105.589,344.676Z" transform="translate(39.148 147.933)" fill="#703e3e"/>
    <path id="Path_11318" data-name="Path 11318" d="M93.293,346.818a5.184,5.184,0,1,0-5.178-5.182A5.192,5.192,0,0,0,93.293,346.818Z" transform="translate(42.183 150.973)" fill="#e78234"/>
    <g id="Group_190" data-name="Group 190" transform="translate(207.516 126.987)">
      <path id="Path_11319" data-name="Path 11319" d="M69.206,244.976c4.212,7.8,6.658,25.155,6.685,25.355a.345.345,0,0,0,.338.3h.043a.351.351,0,0,0,.3-.385c-.126-.828-2.5-17.731-6.783-25.614C69.556,244.761,69.352,244.874,69.206,244.976Z" transform="translate(-69.206 -244.631)" fill="#601112"/>
    </g>
    <g id="Group_191" data-name="Group 191" transform="translate(246.139 123.321)">
      <path id="Path_11320" data-name="Path 11320" d="M58.432,261.15l.122,4.4.024.789.844,29.963a.34.34,0,0,0,.342.322h.012a.319.319,0,0,0,.33-.338l-1-34.984,10.222-7.023a.3.3,0,0,0,.137-.247.315.315,0,0,0-.082-.267c-2.838-3.129-7.093-7.922-8.675-9.983-.3-.031-.581-.063-.879-.086,1.358,1.963,5.8,6.956,8.793,10.238l-10.045,6.909A.378.378,0,0,0,58.432,261.15Z" transform="translate(-58.432 -243.697)" fill="#601112"/>
    </g>
    <g id="Group_192" data-name="Group 192" transform="translate(229.405 122.213)">
      <path id="Path_11321" data-name="Path 11321" d="M78.143,267.216a.331.331,0,0,0,.294-.169.337.337,0,0,0-.126-.459l-16.483-9.374,5.154-13.335a.346.346,0,0,0-.192-.444.342.342,0,0,0-.44.208l-5.26,13.6a.355.355,0,0,0,.157.42l16.726,9.515A.328.328,0,0,0,78.143,267.216Z" transform="translate(-61.072 -243.415)" fill="#601112"/>
    </g>
    <path id="Path_11322" data-name="Path 11322" d="M56.108,447.119c1.621-17.005,11.16-33.932,11.992-35.376-.153-1.425-1.7-16.444-2.815-37.791-.4-7.537-1.4-15.71-2.359-23.62C61,334.521,59,318.191,61.725,306.238a146.673,146.673,0,0,1,6.728-21.559,23.562,23.562,0,0,1-3.066.2,23.029,23.029,0,0,1-6.626-.95c.122-.2.247-.416.381-.6a23,23,0,0,0,9.594.636,65.325,65.325,0,0,1,4.035-8.589c-2.292-1.15-4.251-2.285-5.841-3.282l.412-.53a80.649,80.649,0,0,0,30.776,11.027c16.161,2.332,27.239-.055,32.185-1.578.067.2.137.42.2.644a52.111,52.111,0,0,1-5.339,1.319,75.235,75.235,0,0,0,8.671,10.979c.11.42.216.84.31,1.28-4.86-4.526-9.441-11.733-9.688-12.122a73.363,73.363,0,0,1-13.182,1.127,92.8,92.8,0,0,1-13.268-.981,83.6,83.6,0,0,1-15.937-3.925,31.48,31.48,0,0,1-12.828,5.237,149.049,149.049,0,0,0-6.866,21.833c-2.7,11.824-.7,28.106,1.213,43.848.977,7.922,1.971,16.11,2.363,23.678,1.182,22.309,2.826,37.7,2.842,37.849a.364.364,0,0,1-.043.216c-.106.169-10.3,17.633-11.977,35.192-1.5,15.686,7.984,61.579,10.112,71.648-.228-.063-.475-.161-.742-.263C63.845,507.713,54.628,462.692,56.108,447.119Zm25.17-168.065a81.48,81.48,0,0,1-7.918-3.392,66.451,66.451,0,0,0-3.823,8.181A30.394,30.394,0,0,0,81.278,279.054Z" transform="translate(132.782 -38.841)" fill="#a6ddeb"/>
    <g id="Group_193" data-name="Group 193" transform="translate(228.48 270.885)">
      <path id="Path_11323" data-name="Path 11323" d="M56.227,287.332a.35.35,0,0,0,.3.385.356.356,0,0,0,.385-.287,2.345,2.345,0,0,1,.106-.4v-.016a37.7,37.7,0,0,1,2.2-4.577c1.81,4.777,12.514,33.158,17.912,50.419,3.388,10.854,8.032,23.231,11.105,31.4,1.943,5.174,3.615,9.645,3.678,10.336-1.9,2.206-8.628,20.707-9.456,37.48-.773,15.788,7.6,63.628,10.41,79.11a6.37,6.37,0,0,0,.722.228c-2.732-15.074-11.223-63.467-10.45-79.306.9-18.147,8.126-35.9,9.221-37.076a.334.334,0,0,0,.165-.137c.251-.338.016-1.107-3.655-10.866-3.07-8.173-7.706-20.53-11.1-31.38-5.873-18.815-18.065-50.823-18.187-51.145a.336.336,0,0,0-.283-.216.321.321,0,0,0-.33.169C58.711,281.934,56.388,286.135,56.227,287.332Z" transform="translate(-56.224 -281.288)" fill="#a6ddeb"/>
    </g>
    <g id="Group_194" data-name="Group 194" transform="translate(86.211 107.943)">
      <path id="Path_11324" data-name="Path 11324" d="M102.716,268.645a.329.329,0,0,0,.322-.231c3.564-10.8,9.04-27.1,9.617-28.059a.322.322,0,0,0,.059-.393.342.342,0,0,0-.459-.145c-.161.082-.577.306-9.413,27.035l-3.867-25.739a.325.325,0,0,0-.385-.283.343.343,0,0,0-.283.393l4.071,27.133a.338.338,0,0,0,.306.29Z" transform="translate(-98.303 -239.78)" fill="#601112"/>
    </g>
    <g id="Group_195" data-name="Group 195" transform="translate(90.283 112.005)">
      <path id="Path_11325" data-name="Path 11325" d="M100.4,265.618a.339.339,0,0,0,.338-.3L103.55,241.2a.347.347,0,0,0-.3-.381.351.351,0,0,0-.381.3l-2.807,24.118a.348.348,0,0,0,.3.385Z" transform="translate(-100.058 -240.814)" fill="#601112"/>
    </g>
    <g id="Group_196" data-name="Group 196" transform="translate(38.226 160.704)">
      <path id="Path_11326" data-name="Path 11326" d="M121.083,254.64a.342.342,0,0,0,.016-.683c-.051,0-5.794-.29-8.974-.734a.322.322,0,0,0-.377.283.329.329,0,0,0,.29.385c3.2.451,8.97.742,9.032.75Z" transform="translate(-111.744 -253.22)" fill="#601112"/>
    </g>
    <path id="Path_11327" data-name="Path 11327" d="M97.567,223.722a.344.344,0,0,1,.471.082.329.329,0,0,1-.078.467,14.894,14.894,0,0,0-2.654,2.7c.039.024.086.024.122.055.408.491,1.7,2.139,1,2.972a1.634,1.634,0,0,1-1.288.416,7.033,7.033,0,0,1-1.633-.224A9.986,9.986,0,0,0,93,232.209a.325.325,0,0,1-.33.29h-.047a.348.348,0,0,1-.29-.389C93.021,227.039,97.379,223.859,97.567,223.722Zm-1.653,5.841c.212-.259-.342-1.3-.989-2.069a12.988,12.988,0,0,0-1.158,2.053C94.619,229.756,95.675,229.846,95.914,229.563Z" transform="translate(26.023 -178.986)" fill="#983222"/>
    <g id="Group_197" data-name="Group 197" transform="translate(77.011 34.712)">
      <path id="Path_11328" data-name="Path 11328" d="M106.27,244.036a10.547,10.547,0,0,0,5.248-1.433.343.343,0,0,0,.126-.467.338.338,0,0,0-.459-.134,9.544,9.544,0,0,1-8.491.636,30.072,30.072,0,0,0,4.714-8.495c1.774-5.127.082-12.448.008-12.758a.333.333,0,0,0-.408-.251.345.345,0,0,0-.255.4c.02.071,1.723,7.439.012,12.385a28.99,28.99,0,0,1-4.868,8.609.364.364,0,0,0-.082.275.327.327,0,0,0,.169.239A9.4,9.4,0,0,0,106.27,244.036Z" transform="translate(-101.812 -221.124)" fill="#983222"/>
    </g>
    <path id="Path_11329" data-name="Path 11329" d="M120.816,227.328c-.338,0-7.36,2.155-13.017,1.127a68.642,68.642,0,0,0-8.432-1.127s2.881,8.373,9.449,8.718S120.816,227.328,120.816,227.328Z" transform="translate(-24.328 -168.264)" fill="#fff"/>
    <path id="Path_11330" data-name="Path 11330" d="M97.7,226.574c-.126,2.375.408,4.322,1.182,4.361s1.519-1.841,1.649-4.2-.408-4.322-1.189-4.361S97.825,224.211,97.7,226.574Z" transform="translate(2.562 -182.772)" fill="#601112"/>
    <path id="Path_11331" data-name="Path 11331" d="M103.566,225.815c-.126,2.359.4,4.314,1.185,4.361s1.519-1.841,1.641-4.208-.4-4.318-1.182-4.365S103.691,223.452,103.566,225.815Z" transform="translate(-26.332 -185.012)" fill="#601112"/>
    <g id="Group_198" data-name="Group 198" transform="translate(123.013 159.574)">
      <path id="Path_11332" data-name="Path 11332" d="M109.348,256.165a.342.342,0,0,0,.33-.279.332.332,0,0,0-.259-.4c-15.678-3.372-22.093-2.453-22.356-2.414a.336.336,0,0,0-.287.381.341.341,0,0,0,.393.287c.059-.008,6.579-.938,22.108,2.414A.205.205,0,0,0,109.348,256.165Z" transform="translate(-86.773 -252.933)" fill="#601112"/>
    </g>
    <g id="Group_199" data-name="Group 199" transform="translate(124.101 153.918)">
      <path id="Path_11333" data-name="Path 11333" d="M82.059,252.274a.6.6,0,0,0,.059.126.311.311,0,0,0,.338.161,65.846,65.846,0,0,1,39.8,8.495c.051-.216.09-.444.145-.675a66.768,66.768,0,0,0-40.052-8.5.383.383,0,0,0-.287.4Z" transform="translate(-82.056 -251.492)" fill="#601112"/>
    </g>
    <g id="Group_200" data-name="Group 200" transform="translate(16.785 145.829)">
      <path id="Path_11334" data-name="Path 11334" d="M111.117,252.784c12.5-4.891,30.195-1.7,32.817-1.182.208.047.33.071.341.071a.356.356,0,0,0,.4-.224l.008-.039a.191.191,0,0,0,.016-.09.386.386,0,0,0-.271-.314c-.012,0-.133-.023-.342-.067-2.622-.514-20.055-3.666-32.723,1.048C111.266,252.269,111.184,252.532,111.117,252.784Z" transform="translate(-111.117 -249.431)" fill="#601112"/>
    </g>
    <g id="Group_201" data-name="Group 201" transform="translate(264.849 161.309)">
      <path id="Path_11335" data-name="Path 11335" d="M51.733,286.9a.193.193,0,0,0,.11.078.335.335,0,0,0,.314-.008c6.183-3.337,14.775-4.624,18.442-5.044-.027-.216-.059-.455-.079-.683-3.5.412-11.407,1.594-17.547,4.554l.255-.408c1.142-.7,15.2-9.975,9.531-31.761a.346.346,0,0,0-.408-.24.327.327,0,0,0-.243.42c5.747,22.081-9.135,30.96-9.284,31.039a.3.3,0,0,0-.122.106l-.707,1.1-.016.008v.008l-.267.428A.33.33,0,0,0,51.733,286.9Z" transform="translate(-51.651 -253.374)" fill="#601112"/>
    </g>
    <path id="Path_11336" data-name="Path 11336" d="M65.79,261.421c12.381-.447,20.844,7.749,21.429,8.318a2.439,2.439,0,0,0,.082.267v.016c.137.538.3,1.052.475,1.535a1.122,1.122,0,0,0,.071.212,14.923,14.923,0,0,0,2.654,4.608c.051.047.09.1.145.145a9.615,9.615,0,0,0,.95.97,13.706,13.706,0,0,0,2.124,1.531,16.3,16.3,0,0,0,8.1,1.978,20.954,20.954,0,0,0,5.68-.758.329.329,0,0,0,.22-.424.335.335,0,0,0-.428-.212c-.063.012-7.466,2.132-13.233-1.182-3.058-1.759-5.138-4.722-6.187-8.817l7.521-15.192a.341.341,0,0,0-.612-.3l-7.352,14.874c-1.688-1.562-9.884-8.585-21.417-8.247C65.943,260.974,65.857,261.19,65.79,261.421Z" transform="translate(120.564 -90.418)" fill="#601112"/>
    <path id="Path_11337" data-name="Path 11337" d="M95.946,263.809a4.846,4.846,0,0,1,.781-.62c3.462-2.375,15.706-8.212,15.706-8.212s-1.574-3.831-3.407-8.287c-2.571-6.194-5.657-13.617-5.766-13.617h-.039c-.412.122-.809.239-1.252.338-.341.086-.714.137-1.083.208.039,2.026.055,9.46-1.566,15.462-.016.071-.035.133-.051.2C97.32,256.334,95.946,263.809,95.946,263.809Z" transform="translate(-2.516 -151.46)" fill="#54295f"/>
    <path id="Path_11338" data-name="Path 11338" d="M100.163,255.145c5.5,2.182,20.562,8.824,21.676,9.323-.824-.53-3.439-7.341-5.978-14.775-2.049-5.99-4.059-12.389-5.052-16.232l-.059-.153-1.562-.467-5.9,14.583Z" transform="translate(-28.476 -152.138)" fill="#54295f"/>
    <path id="Path_11339" data-name="Path 11339" d="M91.621,280.394a32.551,32.551,0,0,0,8.51,3.6,38.267,38.267,0,0,0,16.079,1c.369-.071.742-.122,1.083-.208.444-.1.84-.216,1.252-.338a15.256,15.256,0,0,0,1.9-.695c7.474-3.4,10.367-11.38,12.408-21.147.188-.923.42-1.818.679-2.716a74.128,74.128,0,0,1,7.007-15.831c1.1-1.986,2.1-3.725,2.83-5.15,2.614-5.029,1.876-14.246-5.9-23.4a50.379,50.379,0,0,1-2.379,28.185v.012a22.923,22.923,0,0,1-.2,2.332c-1.2,8.832-5.437,14.615-10.874,24.986-2.9,5.515-6.187,7.568-8.616,8.275l-.024.016C110.982,281.642,101.926,283.354,91.621,280.394Z" transform="translate(-17.842 -202.837)" fill="#441211"/>
    <path id="Path_11340" data-name="Path 11340" d="M107.422,234.592c.53,2.548,1.272,5.672,1.872,8.165.616,2.493,1.076,4.373,1.076,4.373,1.927-5.853,1.209-18.685,1.574-21.252a41.986,41.986,0,0,1-5.107-11.156C104.537,220.515,106.562,230.505,107.422,234.592Z" transform="translate(-40.61 -205.145)" fill="#441211"/>
    <path id="Path_11341" data-name="Path 11341" d="M96.814,249.08a30.959,30.959,0,0,0,9.708-2.391c-2.571-6.194-5.657-13.617-5.766-13.617h-.039c-.412.122-.809.239-1.252.338-.342.086-.714.137-1.083.208C98.42,235.643,98.435,243.078,96.814,249.08Z" transform="translate(-0.012 -151.46)" fill="#6c3a79"/>
    <path id="Path_11342" data-name="Path 11342" d="M101.686,247.423a78.674,78.674,0,0,0,12.569,2.269c-2.049-5.99-4.059-12.389-5.052-16.232l-.059-.153-1.562-.467Z" transform="translate(-26.87 -152.138)" fill="#6c3a79"/>
    <path id="Path_11343" data-name="Path 11343" d="M89.646,329.8c8.491-1.511,14.171-3.706,15.137-6.171a2.1,2.1,0,0,0,.149-.746c0-3.144-7.553-5.9-19.023-7.506A18.939,18.939,0,0,1,89.646,329.8Z" transform="translate(44.385 89.31)" fill="#d2833b"/>
    <g id="Group_202" data-name="Group 202" transform="translate(77.466 387.554)">
      <path id="Path_11344" data-name="Path 11344" d="M148.892,335.13a2.027,2.027,0,0,0,1.884-2.8l-7.137-17.5a2.01,2.01,0,0,0-1.77-1.264L96,311.012a2.086,2.086,0,0,0-2.065,1.433l-5.6,18.355a2.038,2.038,0,0,0,3.9,1.193l5.138-16.821,42.984,2.394,6.65,16.3A2.035,2.035,0,0,0,148.892,335.13Z" transform="translate(-88.244 -311.01)" fill="#d45927"/>
    </g>
    <g id="Group_203" data-name="Group 203" transform="translate(177.813 174.673)">
      <path id="Path_11345" data-name="Path 11345" d="M59.407,280.964c.232,1.079,2.139,5.288,5.343,10.54,3.792,6.226,9.409,13.908,16.24,19.537,12.558,10.348,33.8,18.5,33.8,18.5.675,4.758,4.754,10.878,6.618,10.709a1.835,1.835,0,0,0,.3-.063c1.441-.55.381-4.008.381-4.008s3.576,6.791,5.613,6.469c1.943-.314-1.048-6.371-1.331-6.952,2.391,3.243,6.591,7.949,7.949,6.752s-5.6-12.742-5.6-12.742,5.1,3.4,6.116,2.716-2.041-3.894-5.091-6.956-9.692-3.733-11.219-3.918c-1.515-.161-8.149-7.3-16.825-17.15-.133-.145-.255-.3-.393-.444l-.016-.016c-8.612-9.884-20.3-25.362-20.3-25.362.844-1.2,7.121-14.269,7.121-14.269a17.367,17.367,0,0,0-2.728-1.861,52.088,52.088,0,0,0-7.627-3.564C69.943,255.822,66.72,257,66.72,257,65.008,259.033,58.892,278.578,59.407,280.964Z" transform="translate(-59.376 -256.779)" fill="#f1b5ab"/>
      <path id="Path_11346" data-name="Path 11346" d="M67.972,275.374s12.6,15.25,22.693,24.342c-8.613-9.884-20.3-25.362-20.3-25.362.844-1.2,7.121-14.269,7.121-14.269a17.367,17.367,0,0,0-2.728-1.861C69.574,266.349,68.149,272.59,67.972,275.374Z" transform="translate(-48.75 -252.554)" fill="#f5948d"/>
      <path id="Path_11347" data-name="Path 11347" d="M62.771,265.625c3.792,6.226,9.409,13.908,16.24,19.537,12.558,10.348,33.8,18.5,33.8,18.5.675,4.758,4.754,10.878,6.618,10.709a1.832,1.832,0,0,0,.3-.063,70.946,70.946,0,0,1-5.476-12.342,191.1,191.1,0,0,1-28.448-16.137A126.063,126.063,0,0,1,62.771,265.625Z" transform="translate(-57.398 -230.9)" fill="#f5948d"/>
    </g>
    <path id="Path_11348" data-name="Path 11348" d="M82.447,284.872c2.391,1.633,27.1,15.1,49.229,17.853,23.262,2.893,34.815,3.223,42.642-6.293,7.8-9.515,13.916-38.23,13.916-38.23s-1.209-1.641-7.38-3.823c-1.535,7.215-5.409,30.721-18.089,40.358,0,0-22.78,5.1-41.885,0a140.628,140.628,0,0,1-31.353-12.966C87.138,282.862,84.743,283.918,82.447,284.872Z" transform="translate(-25.327 -89.127)" fill="#f5948d"/>
    <path id="Path_11349" data-name="Path 11349" d="M92.066,261.111H92.05v.015Z" transform="translate(33.144 -69.431)" fill="#f5948d"/>
    <path id="Path_11350" data-name="Path 11350" d="M92.435,274.126c.161,4.039,1.091,7.4,3.168,9.562,7.011,7.337,20.287,4.09,32.264.887,1.087-.3,2.175-.6,3.25-.887a89.014,89.014,0,0,0,10.909-3.91c12.719-5.307,28.1-13.425,32.472-15.235l0-.016.047-.008a36.4,36.4,0,0,1,12.122-2.363s10.359,3.867,18.01,3.71a4.575,4.575,0,0,0,3.925-1.716c-3.87-.714-11.553-2.3-15.152-4.408-4.919-2.877-9.676-3.91-12.059-3.556-2.375.322-17.327,7.812-47.388,14.94C111.964,276.348,99.611,276.532,92.435,274.126Z" transform="translate(-84.906 -84.033)" fill="#f5948d"/>
    <path id="Path_11351" data-name="Path 11351" d="M111.484,260.27l7.545.565.055-.137v-.031l1.288-8.832s-3.8-.565-8.832-.966C111.676,255.76,111.484,260.27,111.484,260.27Z" transform="translate(-71.448 -99.395)" fill="#f5948d"/>
    <g id="Group_204" data-name="Group 204" transform="translate(54.189 128.823)">
      <path id="Path_11352" data-name="Path 11352" d="M91.574,313.422a.314.314,0,0,0,.118-.024c4.679-1.723,20.84-9.46,33.582-15.639,7.557-3.674,10.3-3.176,14.116-2.477.628.106,1.288.235,2,.345a33.826,33.826,0,0,1,5.307,1.433c3.6,1.174,7.317,2.391,10.889,1.335a6.064,6.064,0,0,0,3.89-2.783,4.106,4.106,0,0,0,.279-3.031,15.539,15.539,0,0,0-1.88-5.527c.094-1.087.746-8.97.789-9.712.016-.2,1.366-19.989,4.793-31.8a.341.341,0,0,0-.652-.2c-3.45,11.906-4.8,31.765-4.816,31.957-.051.773-.8,9.72-.8,9.806a.358.358,0,0,0,.055.212,15.31,15.31,0,0,1,1.857,5.413,3.617,3.617,0,0,1-.224,2.587,5.407,5.407,0,0,1-3.478,2.422c-3.372,1-7-.177-10.489-1.319a34.488,34.488,0,0,0-5.413-1.464c-.707-.106-1.358-.224-1.986-.338-3.929-.73-6.771-1.241-14.528,2.528-12.723,6.183-28.868,13.9-33.52,15.619a.334.334,0,0,0-.2.428A.347.347,0,0,0,91.574,313.422Z" transform="translate(-91.23 -245.099)" fill="#601112"/>
    </g>
    <g id="Group_205" data-name="Group 205" transform="translate(15.423 122.708)">
      <path id="Path_11353" data-name="Path 11353" d="M109.97,274.431c.078-.024.479-.145,1.13-.337.137-.035.283-.09.428-.137a31.578,31.578,0,0,1,4-.966c.216-.039.459-.082.691-.114a50.408,50.408,0,0,1,7.827-.593h.149a134.669,134.669,0,0,1,19.215,1.319h.016a.322.322,0,0,0,.369-.243c.322-1.264.691-2.87,1.087-4.679a.412.412,0,0,1,.024-.13c2.014-9.437,4.5-24.275,4.5-24.664a.337.337,0,0,0-.326-.345.364.364,0,0,0-.357.345c-.024.483-2.418,14.85-4.432,24.283-.055.228-.09.443-.149.663-.326,1.543-.648,2.909-.93,4.059a136.958,136.958,0,0,0-19.019-1.284h-.149a40.381,40.381,0,0,0-13.845,2.065C110.064,274.132,109.986,274.407,109.97,274.431Z" transform="translate(-109.97 -243.541)" fill="#601112"/>
    </g>
    <g id="Group_206" data-name="Group 206" transform="translate(234.775 103.01)">
      <path id="Path_11354" data-name="Path 11354" d="M60.246,254.578v.1c.345,3.926-.679,6.469,2.037,11.561,2.724,5.107,6.96,10.544,9.515,10.03s1.519-11.4.993-15.8a13.592,13.592,0,0,1,.911-5.559,37.455,37.455,0,0,1,2.261-5.205,5.53,5.53,0,0,0-.6-.1c-5.735-1.15-11.455-6.1-15.152-11.082C60.124,242.437,59.99,251.45,60.246,254.578Z" transform="translate(-60.097 -238.523)" fill="#f1b5ab"/>
      <path id="Path_11355" data-name="Path 11355" d="M60.246,254.578c4.923,1.849,10.249,1.1,13.457.33a37.455,37.455,0,0,1,2.261-5.205,5.53,5.53,0,0,0-.6-.1c-5.735-1.15-11.455-6.1-15.152-11.082C60.124,242.437,59.99,251.45,60.246,254.578Z" transform="translate(-60.097 -238.523)" fill="#f5948d"/>
    </g>
    <g id="Group_207" data-name="Group 207" transform="translate(82.29 81.153)">
      <path id="Path_11356" data-name="Path 11356" d="M98.885,232.955c.012.063.027.114.043.169.809,3.176,2.336,8.114,3.992,13.1,2.913,8.754,6.249,17.739,7.105,17.924,0,0,1.374-7.474,3.321-14.528.212-.766.4-1.57.569-2.383a66.947,66.947,0,0,0,1.048-13.28A38.268,38.268,0,0,1,98.885,232.955Z" transform="translate(-98.885 -232.955)" fill="#f1b5ab"/>
      <path id="Path_11357" data-name="Path 11357" d="M98.885,232.955c.012.063.027.114.043.169.809,3.176,2.336,8.114,3.992,13.1a32.123,32.123,0,0,0,11,1.013,66.947,66.947,0,0,0,1.048-13.28A38.268,38.268,0,0,1,98.885,232.955Z" transform="translate(-98.885 -232.955)" fill="#f5948d"/>
    </g>
    <path id="Path_11358" data-name="Path 11358" d="M73.056,288.49a15.9,15.9,0,0,0,9.574,1.825A14.561,14.561,0,0,0,95.2,278.676c1.786-9.292-.711-25.178-.181-29.374s1.1-4.016,2.956-4.2c0,0,3.454-5.657,3.129-9.1a17.539,17.539,0,0,0-.813-4.832c-1.185-3.58-4.169-7.855-11.7-7.855-12.679,0-18.579,13.57-17.672,24.287s7.666,24.464,5.182,27.149c-2.512,2.685-8.4.161-9.657-2.508C66.442,272.242,63.243,283.316,73.056,288.49Z" transform="translate(126.57 -180.004)"/>
    <path id="Path_11359" data-name="Path 11359" d="M65.943,285.149A14.561,14.561,0,0,0,78.509,273.51c1.786-9.292-.711-25.178-.181-29.374s1.1-4.016,2.956-4.2c0,0,3.454-5.657,3.129-9.1A17.539,17.539,0,0,0,83.6,226c-7.031-2.23-15.388-1.3-15.086,12.86.357,16.675,7.156,25.759,3.757,35.69A31.629,31.629,0,0,1,65.943,285.149Z" transform="translate(143.257 -174.838)" fill="#2c2c2c"/>
    <g id="Group_208" data-name="Group 208" transform="translate(218.005 68.551)">
      <path id="Path_11360" data-name="Path 11360" d="M55.226,251.293c1.955,4.648,9.814,9.288,9.814,9.288a24.9,24.9,0,0,0,3.886,7.113,40.612,40.612,0,0,0,2.638,3.184c3.717,4.016,8.506,7.49,13.288,8.463.212.031.416.055.636.09,8.656,1.519,16.091-1.586,20.982-10.991,5-9.645,4.283-31.965,1.786-34.819-12.5,2.316-25.115-2.446-29.048-3.517s-4.695.122-8.263,5.115a20.52,20.52,0,0,0-1.818,3.2v.016a69.526,69.526,0,0,0-4.086,12.675c0-1.621-1.971-4.463-4.224-6.426a9.123,9.123,0,0,0-3.635-2.147C53.966,241.817,53.255,246.649,55.226,251.293Z" transform="translate(-54.131 -229.745)" fill="#f1b5ab"/>
      <path id="Path_11361" data-name="Path 11361" d="M65.065,244.815c1.955,4.648,9.814,9.288,9.814,9.288a24.894,24.894,0,0,0,3.886,7.113A40.612,40.612,0,0,0,81.4,264.4c-4.879-10.881-3.427-25.908-2.438-32.44a69.526,69.526,0,0,0-4.086,12.675c0-1.621-1.971-4.463-4.224-6.426a9.123,9.123,0,0,0-3.635-2.147C63.805,235.339,63.095,240.171,65.065,244.815Z" transform="translate(-63.97 -223.266)" fill="#f5948d"/>
    </g>
    <path id="Path_11362" data-name="Path 11362" d="M68.311,226.673a6.45,6.45,0,0,1,6.63,2.069,46.766,46.766,0,0,0-3.494,8.793C63.02,235.714,64.449,227.961,68.311,226.673Z" transform="translate(155.48 -170.981)" fill="#6c3a79"/>
    <path id="Path_11363" data-name="Path 11363" d="M53.874,259.5c2.253,1.963,4.224,4.8,4.224,6.426a76.291,76.291,0,0,1,2.928-9.9A27.179,27.179,0,0,1,64,250.036c3.568-4.993,4.338-6.179,8.263-5.115s16.546,5.833,29.048,3.517c3.556-.663,4.754-6.253,1.927-10.9s-23.714-15.356-34.788-12.326c-3.655,1.009-6.583,4.322-8.844,8.554-.039.086-.1.177-.141.279a46.389,46.389,0,0,0-3.356,8.522C54.125,249.376,53.395,256.281,53.874,259.5Z" transform="translate(170.816 -176.011)"/>
    <path id="Path_11364" data-name="Path 11364" d="M65.838,234.234a.356.356,0,0,1,.506.031c.153.169,3.772,4.216,4.255,7.588a.367.367,0,0,1-.3.408h-.051a.363.363,0,0,1-.357-.3,6.219,6.219,0,0,0-.349-1.342,2.648,2.648,0,0,1-1.013.232,1.665,1.665,0,0,1-1.209-.479c-.919-.879-.306-3.172-.09-3.863-.769-1.044-1.4-1.755-1.413-1.778A.354.354,0,0,1,65.838,234.234Zm1.978,5.629a1.277,1.277,0,0,0,1.46.1,17.031,17.031,0,0,0-1.523-2.689C67.526,238.257,67.393,239.462,67.817,239.863Z" transform="translate(157.953 -148.327)" fill="#983222"/>
    <g id="Group_209" data-name="Group 209" transform="translate(256.057 88.479)">
      <path id="Path_11365" data-name="Path 11365" d="M61.8,251.28c1.582,0,2.862-.047,2.873-.047a.347.347,0,0,0,.287-.161.352.352,0,0,0,.043-.314s-5.237-15.333-5.354-15.686a.359.359,0,0,0-.683.22c.106.322,4.334,12.683,5.205,15.243-.919.016-3,.055-4.852-.024a2.529,2.529,0,0,1-1.833-.573.668.668,0,0,1-.2-.444.37.37,0,0,0-.338-.377.356.356,0,0,0-.377.322,1.329,1.329,0,0,0,.365.958,3.2,3.2,0,0,0,2.359.836C60.123,251.272,61,251.28,61.8,251.28Z" transform="translate(-56.564 -234.821)" fill="#983222"/>
    </g>
    <path id="Path_11366" data-name="Path 11366" d="M73.319,242.649a18.013,18.013,0,0,1-8.126-.711c-4.255-1.429-7.113-2.524-7.113-2.524s3.572,5.971,8.691,7.046S73.319,242.649,73.319,242.649Z" transform="translate(185.241 -132.906)" fill="#fff"/>
    <path id="Path_11367" data-name="Path 11367" d="M74.77,237.076c.239-.84-2.858-4.169-6.909-4.408a14.979,14.979,0,0,0-7.843,2.2,48.064,48.064,0,0,1,8.8.534A33.57,33.57,0,0,1,74.77,237.076Z" transform="translate(176.17 -152.689)" fill="#d0412b"/>
    <path id="Path_11368" data-name="Path 11368" d="M54.744,236.622a8.985,8.985,0,0,1,5.413-3.172,7.987,7.987,0,0,1,5.955,1.586,18.157,18.157,0,0,1-5.688.919A28.464,28.464,0,0,0,54.744,236.622Z" transform="translate(205.542 -150.609)" fill="#d0412b"/>
    <path id="Path_11369" data-name="Path 11369" d="M56.436,238.071c.236,1.81,1.1,3.2,1.908,3.082s1.28-1.672,1.036-3.482-1.1-3.188-1.912-3.089C56.652,234.7,56.189,236.254,56.436,238.071Z" transform="translate(205.829 -147.058)" fill="#601112"/>
    <path id="Path_11370" data-name="Path 11370" d="M61.634,237.489c.243,1.817,1.1,3.2,1.916,3.089s1.28-1.661,1.036-3.478-1.1-3.2-1.916-3.081C61.857,234.117,61.394,235.684,61.634,237.489Z" transform="translate(180.207 -148.709)" fill="#601112"/>
    <path id="Path_11371" data-name="Path 11371" d="M65.028,252.526c2.253,1.963,4.224,4.8,4.224,6.426a76.293,76.293,0,0,1,2.928-9.9c-1.488-7.435-1.625-16.589-1.558-21.987a46.389,46.389,0,0,0-3.356,8.522C65.279,242.4,64.549,249.3,65.028,252.526Z" transform="translate(159.662 -169.033)" fill="#2c2c2c"/>
    <path id="Path_11372" data-name="Path 11372" d="M86.57,343.532c9.417-.813,15.517-2.544,19.329-4.161.071-.691.145-1.374.216-2.065.53-4.923,1.056-9.853,1.562-14.407a72.707,72.707,0,0,1-17.205,4.294C89.451,331.626,87.857,338.433,86.57,343.532Z" transform="translate(39.045 111.33)" fill="#89c09c"/>
  </g>
</svg>
