<svg xmlns="http://www.w3.org/2000/svg" width="83.792" height="83.792" viewBox="0 0 83.792 83.792">
  <g id="chef" transform="translate(0)">
    <g id="Group_22" data-name="Group 22" transform="translate(0 0)">
      <g id="Group_21" data-name="Group 21">
        <path id="Path_28" data-name="Path 28" d="M110.475,215.237a1.9,1.9,0,1,0-3.809,0c0,5,5.516,11.867,6.145,12.635a1.905,1.905,0,0,0,2.946-2.418C113.714,222.966,110.475,217.993,110.475,215.237Z" transform="translate(-87.623 -175.246)" fill="#6c3a79"/>
        <path id="Path_29" data-name="Path 29" d="M316.954,213.333a1.9,1.9,0,0,0-1.9,1.9c0,2.747-3.24,7.725-5.281,10.219a1.9,1.9,0,0,0,2.946,2.416c.629-.768,6.145-7.634,6.145-12.635A1.9,1.9,0,0,0,316.954,213.333Z" transform="translate(-254.11 -175.246)" fill="#6c3a79"/>
        <path id="Path_30" data-name="Path 30" d="M225.9,213.333a1.9,1.9,0,0,0-1.9,1.9v11.426a1.9,1.9,0,0,0,3.809,0V215.237A1.9,1.9,0,0,0,225.9,213.333Z" transform="translate(-184.008 -175.246)" fill="#6c3a79"/>
        <path id="Path_31" data-name="Path 31" d="M62.844,7.617A19.946,19.946,0,0,0,59.231,8,22.777,22.777,0,0,0,24.56,8a19.965,19.965,0,0,0-3.612-.385,20.94,20.94,0,0,0-9.477,39.616l-.037,28.779a7.772,7.772,0,0,0,7.77,7.779H64.6a7.778,7.778,0,0,0,7.77-7.77V47.205A20.936,20.936,0,0,0,62.844,7.617Zm5.713,68.4A3.967,3.967,0,0,1,64.6,79.983H19.2a3.962,3.962,0,0,1-3.961-3.967l.01-7.46h53.3Zm1.179-31.781a1.707,1.707,0,0,0-.285.147,1.906,1.906,0,0,0-.874,1.337,1.842,1.842,0,0,0-.021.32v18.7h-53.3l.024-18.677a1.961,1.961,0,0,0-.019-.312,1.909,1.909,0,0,0-.3-.789,1.887,1.887,0,0,0-.565-.552,1.994,1.994,0,0,0-.3-.154,17.132,17.132,0,0,1,6.851-32.837c.369,0,.759.045,1.142.075a22.687,22.687,0,0,0-3.046,11.351,1.9,1.9,0,0,0,3.809,0,19.044,19.044,0,1,1,38.087,0,1.9,1.9,0,0,0,3.809,0A22.687,22.687,0,0,0,61.7,11.5c.383-.03.773-.075,1.142-.075a17.129,17.129,0,0,1,6.892,32.815Z" fill="#6c3a79"/>
      </g>
    </g>
  </g>
</svg>
