<svg xmlns="http://www.w3.org/2000/svg" width="85.466" height="88.548" viewBox="0 0 85.466 88.548">
  <path id="Union_1" data-name="Union 1" d="M17.653,88.1.454,71.1a1.52,1.52,0,0,1-.185-1.945c.054-.08,5.521-8.076,6.415-12.725l1.7-5.971L6.937,49.031a11.9,11.9,0,0,1,0-16.949L35.854,3.511a12.227,12.227,0,0,1,17.15,0l12.389,12.24,2.059-.6L69.341,7.3a1.556,1.556,0,0,1,3.018,0L74.25,15.15l8.673,2.536a1.527,1.527,0,0,1,0,2.939L74.25,23.16l-.262,1.084,7.932,7.838a11.9,11.9,0,0,1,0,16.949L53,77.6a12.229,12.229,0,0,1-17.15,0l-.2-.2a70.764,70.764,0,0,1-6.821,4.984L19.593,88.3a1.565,1.565,0,0,1-1.94-.2Zm-1.339-54.16L9.7,57.135c-.788,4.119-4.563,10.232-6.159,12.683L18.96,85.055l8.188-5.237a67.944,67.944,0,0,0,11.1-8.874L57.521,51.9a2.193,2.193,0,0,0,0-3.127,2.31,2.31,0,0,0-3.165,0l-10.99,10.86a0,0,0,0,0,0,0l-.831.821a1.565,1.565,0,0,1-2.194,0,1.521,1.521,0,0,1,0-2.167L52.162,46.61l4.454-4.4a2.3,2.3,0,0,0,0-3.271,2.365,2.365,0,0,0-3.31,0L37.861,54.2a1.563,1.563,0,0,1-2.194,0,1.521,1.521,0,0,1,0-2.167L51.111,36.77l0,0,5.465-5.4a2.245,2.245,0,0,0,0-3.2,2.314,2.314,0,0,0-3.239,0L32.431,48.831a1.565,1.565,0,0,1-2.194,0,1.519,1.519,0,0,1,0-2.167l16.384-16.19a2.242,2.242,0,0,0,0-3.2,2.363,2.363,0,0,0-3.237,0L21.115,49.278a1.565,1.565,0,0,1-1.848.256,1.526,1.526,0,0,1-.761-1.685l3.085-13.208A2.589,2.589,0,0,0,21,32.769a2.655,2.655,0,0,0-1.816-.961q-.139-.014-.276-.013A2.622,2.622,0,0,0,16.314,33.939ZM58.773,26a5.285,5.285,0,0,1,0,7.535l-2.008,1.984a5.421,5.421,0,0,1,2.045,1.25,5.343,5.343,0,0,1,0,7.608l-1.062,1.049a5.1,5.1,0,0,1,1.966,1.185,5.229,5.229,0,0,1,0,7.46L40.445,73.112c-.791.782-1.608,1.539-2.436,2.284l.038.038a9.1,9.1,0,0,0,12.764,0L79.726,46.864a8.858,8.858,0,0,0,0-12.614l-6.582-6.5L72.359,31a1.555,1.555,0,0,1-3.017,0L67.453,23.16l-8.675-2.536a1.528,1.528,0,0,1,0-2.941l3.23-.944L50.812,5.677a9.1,9.1,0,0,0-12.764,0L9.132,34.249a8.855,8.855,0,0,0,0,12.614l.218.216L13.3,33.236a5.689,5.689,0,0,1,6.183-4.481,5.754,5.754,0,0,1,3.93,2.079,5.618,5.618,0,0,1,1.257,4.226,1.553,1.553,0,0,1-.03.175l-1.891,8.1L41.191,25.106a5.566,5.566,0,0,1,7.624,0,5.253,5.253,0,0,1,1.244,1.969L51.147,26a5.446,5.446,0,0,1,7.626,0Zm11.489-9.278a1.539,1.539,0,0,1-1.069,1.115l-4.506,1.318,4.506,1.318a1.538,1.538,0,0,1,1.069,1.115l.588,2.442.59-2.442a1.54,1.54,0,0,1,1.069-1.115l4.506-1.318-4.506-1.318a1.54,1.54,0,0,1-1.069-1.115l-.59-2.442ZM64.616,80.237a5.066,5.066,0,1,1,5.067,5.006A5.042,5.042,0,0,1,64.616,80.237Zm2.9,0a2.171,2.171,0,1,0,2.171-2.146A2.161,2.161,0,0,0,67.512,80.237ZM79.109,67.5a1.548,1.548,0,1,1,1.547,1.529A1.539,1.539,0,0,1,79.109,67.5ZM6.72,18.02V15.16a1.447,1.447,0,0,1,2.895,0v2.86a1.447,1.447,0,0,1-2.895,0Zm4.341-4.29a1.43,1.43,0,1,1,0-2.86h2.895a1.43,1.43,0,1,1,0,2.86Zm-8.684,0a1.43,1.43,0,1,1,0-2.86H5.272a1.43,1.43,0,1,1,0,2.86ZM6.72,9.439V6.579a1.447,1.447,0,0,1,2.895,0v2.86a1.447,1.447,0,0,1-2.895,0Z" fill="#6c3a79"/>
</svg>
