<svg xmlns="http://www.w3.org/2000/svg" width="72.811" height="85.394" viewBox="0 0 72.811 85.394">
  <g id="washer" transform="translate(0)">
    <g id="Group_212" data-name="Group 212" transform="translate(22.682 6.025)">
      <g id="Group_211" data-name="Group 211">
        <path id="Path_11373" data-name="Path 11373" d="M179.014,36.126a5.3,5.3,0,1,0,5.3,5.3A5.3,5.3,0,0,0,179.014,36.126Zm0,8.09a2.794,2.794,0,1,1,2.794-2.794A2.8,2.8,0,0,1,179.014,44.216Z" transform="translate(-173.718 -36.126)" fill="#6c3a79"/>
      </g>
    </g>
    <g id="Group_214" data-name="Group 214" transform="translate(8.356 6.025)">
      <g id="Group_213" data-name="Group 213" transform="translate(0)">
        <path id="Path_11374" data-name="Path 11374" d="M93.121,36.126a5.3,5.3,0,1,0,5.3,5.3A5.3,5.3,0,0,0,93.121,36.126Zm0,8.09a2.794,2.794,0,1,1,2.794-2.794A2.8,2.8,0,0,1,93.121,44.216Z" transform="translate(-87.825 -36.126)" fill="#6c3a79"/>
      </g>
    </g>
    <g id="Group_216" data-name="Group 216" transform="translate(42.339 6.025)">
      <g id="Group_215" data-name="Group 215" transform="translate(0)">
        <path id="Path_11375" data-name="Path 11375" d="M308.818,36.126H294.43a2.855,2.855,0,0,0-2.852,2.852v4.888a2.855,2.855,0,0,0,2.852,2.852h14.388a2.855,2.855,0,0,0,2.852-2.852V38.978A2.855,2.855,0,0,0,308.818,36.126Zm.35,7.74a.35.35,0,0,1-.35.35H294.43a.35.35,0,0,1-.35-.35V38.978a.35.35,0,0,1,.35-.35h14.388a.35.35,0,0,1,.35.35Z" transform="translate(-291.578 -36.126)" fill="#6c3a79"/>
      </g>
    </g>
    <g id="Group_218" data-name="Group 218" transform="translate(13.412 25.624)">
      <g id="Group_217" data-name="Group 217">
        <path id="Path_11376" data-name="Path 11376" d="M141.131,153.637a22.774,22.774,0,0,0-14.039,4.784,1.251,1.251,0,1,0,1.529,1.98,20.294,20.294,0,0,1,12.51-4.263,20.492,20.492,0,1,1-15.89,7.554,1.251,1.251,0,0,0-1.939-1.581,22.992,22.992,0,1,0,17.829-8.475Z" transform="translate(-118.139 -153.637)" fill="#6c3a79"/>
      </g>
    </g>
    <g id="Group_220" data-name="Group 220" transform="translate(0)">
      <g id="Group_219" data-name="Group 219" transform="translate(0)">
        <path id="Path_11377" data-name="Path 11377" d="M110.532,75.683V9.614A9.624,9.624,0,0,0,100.92,0H47.335a9.624,9.624,0,0,0-9.612,9.614V75.782a9.623,9.623,0,0,0,9.612,9.612H100.92a9.622,9.622,0,0,0,9.608-9.47C110.534,75.877,110.535,75.716,110.532,75.683Zm-2.5-1.152H97.675a1.251,1.251,0,0,0,0,2.5H107.92a7.122,7.122,0,0,1-7,5.859H47.335a7.122,7.122,0,0,1-7-5.859H92.671a1.251,1.251,0,0,0,0-2.5H40.225V22.642H108.03Zm0-54.39H40.225V9.614A7.119,7.119,0,0,1,47.335,2.5H100.92a7.119,7.119,0,0,1,7.11,7.112Z" transform="translate(-37.723 0)" fill="#6c3a79"/>
      </g>
    </g>
    <g id="Group_222" data-name="Group 222" transform="translate(19.227 31.439)">
      <g id="Group_221" data-name="Group 221" transform="translate(0)">
        <path id="Path_11378" data-name="Path 11378" d="M170.18,188.5a17.186,17.186,0,0,0-17,19.655v0a17.179,17.179,0,0,0,34,0v0a17.186,17.186,0,0,0-17-19.656Zm9.647,28.237a14.679,14.679,0,0,1-24.04-8.181l.771-.525a3.879,3.879,0,0,1,4.323,0,6.4,6.4,0,0,0,7.138,0,3.886,3.886,0,0,1,4.323,0,6.4,6.4,0,0,0,7.138,0,3.871,3.871,0,0,1,4.322,0l.771.525A14.672,14.672,0,0,1,179.827,216.739Zm5.029-11-.027-.015a6.545,6.545,0,0,0-2.169-.776,6.227,6.227,0,0,0-2.888.2,6.351,6.351,0,0,0-1.7.82,3.88,3.88,0,0,1-4.323,0,6.34,6.34,0,0,0-7.138,0,3.874,3.874,0,0,1-4.323,0,6.336,6.336,0,0,0-6.757-.239l-.027.015c0-.02,0-.041,0-.061a14.676,14.676,0,0,1,29.352,0C184.856,205.7,184.856,205.72,184.856,205.741Z" transform="translate(-153.002 -188.502)" fill="#6c3a79"/>
      </g>
    </g>
  </g>
</svg>
