<svg xmlns="http://www.w3.org/2000/svg" width="229.353" height="90.824" viewBox="0 0 229.353 90.824">
  <g id="Group_2293" data-name="Group 2293" transform="translate(-358.941 -441.526)">
    <path id="Path_11531" data-name="Path 11531" d="M409.632,478.049a6.93,6.93,0,0,1-7.554-7.468V447.834a1.751,1.751,0,0,1,1.751-1.751h5.152a1.753,1.753,0,0,1,1.749,1.751v20.5a1.815,1.815,0,0,1-.043.39,1.178,1.178,0,0,0,.13.783,1.725,1.725,0,0,0,1.206.305h24.343a1.757,1.757,0,0,1,1.755,1.753v4.715a1.753,1.753,0,0,1-1.753,1.749s-21.952.022-26.736.022" transform="translate(44.566 4.709)" fill="#edf6f2"/>
    <path id="Path_11532" data-name="Path 11532" d="M435.475,470.673H411.132c-3.774,0-3.042-3.231-3.042-3.231v-20.5h-5.15v22.8s-.464,5.665,5.8,5.665c4.786,0,26.734-.018,26.734-.018Z" transform="translate(45.457 5.599)" fill="#edf6f2"/>
    <path id="Path_11533" data-name="Path 11533" d="M418.552,478.049c-4.789,0-37.543-.022-37.543-.022a1.748,1.748,0,0,1-1.747-1.749v-4.715a1.751,1.751,0,0,1,1.749-1.753h35.146a1.732,1.732,0,0,0,1.206-.3,1.206,1.206,0,0,0,.124-.813,1.442,1.442,0,0,1-.039-.362v-20.5a1.75,1.75,0,0,1,1.749-1.751h5.154a1.752,1.752,0,0,1,1.751,1.751V470.58a6.929,6.929,0,0,1-7.55,7.468" transform="translate(20.998 4.709)" fill="#edf6f2"/>
    <path id="Path_11534" data-name="Path 11534" d="M380.121,470.673h35.146c3.778,0,3.042-3.231,3.042-3.231v-20.5h5.152v22.8s.458,5.665-5.8,5.665c-4.788,0-37.541-.018-37.541-.018Z" transform="translate(21.885 5.599)" fill="#edf6f2"/>
    <path id="Path_11535" data-name="Path 11535" d="M432.873,474.544a12.007,12.007,0,0,1-8.8-3.66,12.562,12.562,0,0,1,8.78-21.433,12.675,12.675,0,0,1,6.34,1.682,12.385,12.385,0,0,1,6.328,10.843,12.528,12.528,0,0,1-1.679,6.308,12.146,12.146,0,0,1-4.6,4.6,12.639,12.639,0,0,1-6.37,1.659m.067-16.742a3.58,3.58,0,0,0-2.749,1.13,4.2,4.2,0,0,0-1.112,3.062,4.31,4.31,0,0,0,1.1,3.133,3.533,3.533,0,0,0,2.743,1.116A3.615,3.615,0,0,0,435.7,465.1a4.879,4.879,0,0,0,.022-6.189,3.606,3.606,0,0,0-2.78-1.112" transform="translate(63.541 8.189)" fill="#edf6f2"/>
    <path id="Path_11536" data-name="Path 11536" d="M431.966,450.314a10.949,10.949,0,0,1,5.48,1.448,10.644,10.644,0,0,1,5.439,9.323,10.713,10.713,0,0,1-1.45,5.435,10.409,10.409,0,0,1-3.945,3.955,10.9,10.9,0,0,1-5.506,1.425,10.27,10.27,0,0,1-7.56-3.146,10.806,10.806,0,0,1,7.542-18.44m.085,4.845a5.331,5.331,0,0,0-4.012,1.669,5.927,5.927,0,0,0-1.6,4.274,6.016,6.016,0,0,0,1.584,4.341,5.3,5.3,0,0,0,4.008,1.661,5.37,5.37,0,0,0,4.038-1.68,6.611,6.611,0,0,0,.026-8.613,5.36,5.36,0,0,0-4.046-1.653" transform="translate(64.429 9.081)" fill="#edf6f2"/>
    <path id="Path_11537" data-name="Path 11537" d="M419.56,469.147c-.1,0-.2,0-.305-.01l-.069-.006a1.761,1.761,0,0,1-1.716-1.751v-4.811a1.748,1.748,0,0,1,1.749-1.753c.032,0,.061,0,.094.006.1,0,.2.012.3.02h.019a3.583,3.583,0,0,0,2.759-1.132,4.23,4.23,0,0,0,1.116-3.048c-.006-.081-.008-.161-.008-.24a1.749,1.749,0,0,1,1.749-1.751h5.207a1.749,1.749,0,0,1,1.749,1.7c.006.077.01.146.01.209a12.555,12.555,0,0,1-1.678,6.305,12.2,12.2,0,0,1-4.6,4.606,12.7,12.7,0,0,1-6.372,1.655" transform="translate(60.479 13.584)" fill="#edf6f2"/>
    <path id="Path_11538" data-name="Path 11538" d="M424.354,455.533c0,.061.016.118.016.177a6,6,0,0,1-1.612,4.323,5.364,5.364,0,0,1-4.038,1.681c-.132,0-.258-.03-.39-.037v4.815c.12,0,.23.014.344.014a10.892,10.892,0,0,0,5.5-1.425,10.4,10.4,0,0,0,3.945-3.953,10.763,10.763,0,0,0,1.446-5.437c0-.051,0-.1,0-.158Z" transform="translate(61.367 14.474)" fill="#edf6f2"/>
    <path id="Path_11539" data-name="Path 11539" d="M387.028,469.147a12.681,12.681,0,0,1-6.373-1.655,12.163,12.163,0,0,1-4.6-4.606,12.525,12.525,0,0,1-1.677-6.305,1.84,1.84,0,0,1,.012-.238,1.747,1.747,0,0,1,1.748-1.671h5.205a1.75,1.75,0,0,1,1.749,1.783,1.878,1.878,0,0,1-.008.191,4.235,4.235,0,0,0,1.124,3.064,3.6,3.6,0,0,0,2.769,1.137q.146-.019.3-.024c.028,0,.057-.006.087-.006a1.745,1.745,0,0,1,1.753,1.753v4.811a1.751,1.751,0,0,1-1.714,1.751l-.071.006c-.106.006-.2.01-.3.01" transform="translate(15.95 13.584)" fill="#edf6f2"/>
    <path id="Path_11540" data-name="Path 11540" d="M380.457,455.533c0,.061-.012.118-.012.177a6,6,0,0,0,1.606,4.323,5.373,5.373,0,0,0,4.038,1.681c.132,0,.256-.03.388-.037v4.815c-.114,0-.226.014-.336.014a10.878,10.878,0,0,1-5.506-1.425,10.418,10.418,0,0,1-3.951-3.953,10.768,10.768,0,0,1-1.45-5.437c0-.051.016-.1.016-.158Z" transform="translate(16.838 14.474)" fill="#edf6f2"/>
    <path id="Path_11541" data-name="Path 11541" d="M390.246,466.826a1.755,1.755,0,0,1-1.753-1.753V456.6a1.757,1.757,0,0,1,1.753-1.751,1.443,1.443,0,0,1,.246.02l5.2.744a1.741,1.741,0,0,1,1.5,1.73v7.729a1.752,1.752,0,0,1-1.749,1.753Z" transform="translate(30.537 13.768)" fill="#edf6f2"/>
    <path id="Path_11542" data-name="Path 11542" d="M389.355,455.712v8.472h5.2v-7.728Z" transform="translate(31.427 14.658)" fill="#edf6f2"/>
    <path id="Path_11543" data-name="Path 11543" d="M396.234,464.619a1.753,1.753,0,0,1-1.753-1.753,4.438,4.438,0,0,0-1.1-3.18,3.493,3.493,0,0,0-2.727-1.125,3.428,3.428,0,0,0-2.444.939,1.747,1.747,0,0,1-1.891.3,1.749,1.749,0,0,1-1.041-1.6v-2.517h-.832a1.747,1.747,0,0,1-1.051-3.146,11.7,11.7,0,0,1,7.171-2.414,12.6,12.6,0,0,1,10.925,6.385,12.756,12.756,0,0,1,1.649,6.33c0,.028,0,.067,0,.1a1.756,1.756,0,0,1-1.751,1.68Z" transform="translate(24.548 8.889)" fill="#edf6f2"/>
    <path id="Path_11544" data-name="Path 11544" d="M399.076,456.481a10.534,10.534,0,0,0-3.963-4.014,10.65,10.65,0,0,0-5.433-1.476,9.915,9.915,0,0,0-6.12,2.058h2.58v4.266a5.192,5.192,0,0,1,3.623-1.391,5.26,5.26,0,0,1,4.012,1.68,6.144,6.144,0,0,1,1.568,4.366v.006H400.5v-.025a10.946,10.946,0,0,0-1.426-5.469" transform="translate(25.439 9.78)" fill="#edf6f2"/>
    <path id="Path_11545" data-name="Path 11545" d="M386.428,466.69a1.761,1.761,0,0,1-1.242-.512l-3.642-3.642a1.757,1.757,0,0,1-.006-2.473l13.275-13.383a1.752,1.752,0,0,1,1.242-.521h7.257a1.751,1.751,0,0,1,1.242,2.983L387.67,466.174a1.751,1.751,0,0,1-1.242.516" transform="translate(22.827 4.788)" fill="#edf6f2"/>
    <path id="Path_11546" data-name="Path 11546" d="M395.167,447.023l-13.275,13.383,3.648,3.642,16.882-17.025Z" transform="translate(23.715 5.68)" fill="#edf6f2"/>
    <path id="Path_11547" data-name="Path 11547" d="M415.594,469.488a4.42,4.42,0,1,1,4.424-4.418,4.426,4.426,0,0,1-4.424,4.418" transform="translate(53.973 19.758)" fill="#edf6f2"/>
    <path id="Path_11548" data-name="Path 11548" d="M417.373,464.179a2.669,2.669,0,1,1-2.67-2.67,2.674,2.674,0,0,1,2.67,2.67" transform="translate(54.864 20.649)" fill="#edf6f2"/>
    <path id="Path_11549" data-name="Path 11549" d="M423.657,470.549a1.75,1.75,0,0,1-1.671-2.267,8.678,8.678,0,0,0,.36-2.548,6.885,6.885,0,0,0-1.617-4.821,5.348,5.348,0,0,0-7.879.026,6.143,6.143,0,0,0-.726.994,1.739,1.739,0,0,1-1.513.864h-.083a1.741,1.741,0,0,1-1.507-1.017l-2.444-5.319a1.738,1.738,0,0,1,.352-1.968.965.965,0,0,1,.09-.1,13.542,13.542,0,0,1,9.648-4.04,14.013,14.013,0,0,1,7.369,2.088,14.619,14.619,0,0,1,5.352,5.653,15.864,15.864,0,0,1,1.905,7.617,16.258,16.258,0,0,1-.382,3.451,1.761,1.761,0,0,1-1.712,1.385Z" transform="translate(49.056 9.124)" fill="#edf6f2"/>
    <path id="Path_11550" data-name="Path 11550" d="M426.95,458.032a12.772,12.772,0,0,0-4.719-4.984,12.262,12.262,0,0,0-6.456-1.83,11.768,11.768,0,0,0-8.41,3.524c-.035.035-.059.069-.089.1l2.446,5.321a7.382,7.382,0,0,1,.933-1.275,7.1,7.1,0,0,1,10.49-.031,8.645,8.645,0,0,1,2.062,5.992,10.3,10.3,0,0,1-.441,3.062h5.541a14.594,14.594,0,0,0,.341-3.087,14.033,14.033,0,0,0-1.7-6.789" transform="translate(49.945 10.015)" fill="#edf6f2"/>
    <path id="Path_11551" data-name="Path 11551" d="M360.827,481.851a1.755,1.755,0,0,1-1.751-1.755v-.856c-.006-.077-.01-.161-.01-.24a13.466,13.466,0,0,1,1.8-6.773,13.146,13.146,0,0,1,4.953-4.957,12.825,12.825,0,0,1,1.383-.685,2,2,0,0,1,.321-.415,1.792,1.792,0,0,1,1.21-.478c.029,0,.065,0,.1.006l.99.057a1.27,1.27,0,0,1,.132.01c.382-.073.769-.13,1.155-.171a2.457,2.457,0,0,0,1.045-.667,3.25,3.25,0,0,0,.852-2.316c0-.038,0-.081,0-.12v-.177l-.014-.923a1.707,1.707,0,0,1,.126-.7,13.475,13.475,0,0,1,13.247-11.706,13.658,13.658,0,0,1,6.808,1.8,13.358,13.358,0,0,1,6.806,11.665,13.462,13.462,0,0,1-1.8,6.773,13.154,13.154,0,0,1-4.945,4.951,13.619,13.619,0,0,1-6.842,1.779,12.894,12.894,0,0,1-8.1-2.727,13.713,13.713,0,0,1-1.438.949,13.2,13.2,0,0,1-1.391.691,1.759,1.759,0,0,1-.321.411,1.731,1.731,0,0,1-1.2.476h-.106l-.986-.057-.132-.014c-.382.075-.769.13-1.155.175a2.52,2.52,0,0,0-1.045.659,3.29,3.29,0,0,0-.86,2.367c0,.057.008.114.012.177l.016,1.006a1.776,1.776,0,0,1-.5,1.259,1.751,1.751,0,0,1-1.247.522Zm22.747-18.892a3.087,3.087,0,0,0,.8,1.995,2.622,2.622,0,0,0,2.06.829,2.673,2.673,0,0,0,2.1-.858,3.315,3.315,0,0,0,.86-2.454,3.206,3.206,0,0,0-.834-2.428,3.027,3.027,0,0,0-4.17.014,2.988,2.988,0,0,0-.8,1.745v.4c.006.077.012.165.012.252,0,.153-.012.3-.026.449l0,.057" transform="translate(0.129 7.712)" fill="#edf6f2"/>
    <path id="Path_11552" data-name="Path 11552" d="M395.773,455.713a11.555,11.555,0,0,0-4.351-4.291,11.926,11.926,0,0,0-5.947-1.572,11.723,11.723,0,0,0-11.555,10.614h-.069l.018.96v.266a5,5,0,0,1-1.338,3.562,4.263,4.263,0,0,1-1.954,1.173,11.74,11.74,0,0,0-1.425.217c-.033,0-.236-.026-.315-.032l-.99-.057v.437a11.221,11.221,0,0,0-2.047.913,11.392,11.392,0,0,0-4.3,4.3,11.771,11.771,0,0,0-1.572,5.9,1.375,1.375,0,0,0,.012.161v.935h7.1l-.018-.954a.773.773,0,0,0-.012-.163,5.013,5.013,0,0,1,1.348-3.668,4.243,4.243,0,0,1,1.958-1.179,13.044,13.044,0,0,0,1.421-.209c.03,0,.238.026.313.026l.992.059v-.431a11.61,11.61,0,0,0,2.05-.919,11.4,11.4,0,0,0,2.314-1.749,11.212,11.212,0,0,0,8.086,3.3,11.879,11.879,0,0,0,5.974-1.55,11.418,11.418,0,0,0,4.3-4.3,11.714,11.714,0,0,0,1.57-5.9,11.568,11.568,0,0,0-1.562-5.85m-6.868,9.54a4.429,4.429,0,0,1-3.361,1.391,4.379,4.379,0,0,1-3.327-1.368,4.913,4.913,0,0,1-1.287-3.195c.006-.171.032-.342.032-.519a1.234,1.234,0,0,0-.012-.158v-.6a4.774,4.774,0,0,1,1.285-2.851,4.384,4.384,0,0,1,3.329-1.378,4.435,4.435,0,0,1,3.367,1.36,4.989,4.989,0,0,1,1.32,3.644,5.045,5.045,0,0,1-1.346,3.672" transform="translate(1.018 8.602)" fill="#edf6f2"/>
    <path id="Path_11553" data-name="Path 11553" d="M361.292,475.04a1.753,1.753,0,0,1-1.749-1.671,2.064,2.064,0,0,1-.016-.24,12.543,12.543,0,0,1,1.682-6.305,12.186,12.186,0,0,1,4.6-4.605A12.58,12.58,0,0,1,368.1,461.2a1.765,1.765,0,0,1,1.1-.386.62.62,0,0,1,.09.006c.079,0,.161.012.24.02a11.926,11.926,0,0,1,1.3-.2,3.439,3.439,0,0,0,1.527-.942,4.2,4.2,0,0,0,1.118-3.048c-.006-.083-.008-.157-.008-.238a1.748,1.748,0,0,1,1.749-1.749h5.207a1.748,1.748,0,0,1,1.751,1.7c.006.079.008.148.008.212a12.534,12.534,0,0,1-1.678,6.305,12.233,12.233,0,0,1-6.891,5.616,1.746,1.746,0,0,1-1.1.39.939.939,0,0,1-.106,0,2.013,2.013,0,0,1-.224-.022,13.029,13.029,0,0,1-1.305.2,3.511,3.511,0,0,0-1.525.929,4.274,4.274,0,0,0-1.121,3.064,1.443,1.443,0,0,1,.008.163,1.747,1.747,0,0,1-1.747,1.82Z" transform="translate(0.606 13.584)" fill="#edf6f2"/>
    <path id="Path_11554" data-name="Path 11554" d="M379.535,455.533h-5.207c0,.061.014.118.014.177a6,6,0,0,1-1.61,4.323,5.258,5.258,0,0,1-2.467,1.452,11.2,11.2,0,0,0-1.439.218c-.043,0-.088.012-.132.012-.134,0-.258-.03-.384-.037v.134a10.572,10.572,0,0,0-2.523,1.035,10.446,10.446,0,0,0-3.949,3.955,10.75,10.75,0,0,0-1.448,5.435c0,.055.012.11.012.163h5.207c-.006-.065-.014-.12-.014-.179A5.993,5.993,0,0,1,367.2,467.9a5.223,5.223,0,0,1,2.46-1.452,11.968,11.968,0,0,0,1.44-.211c.049,0,.09-.012.136-.012.134,0,.254.022.386.032v-.138a10.787,10.787,0,0,0,2.523-1.033,10.435,10.435,0,0,0,3.947-3.953,10.786,10.786,0,0,0,1.448-5.437c0-.051-.01-.1-.01-.158" transform="translate(1.496 14.474)" fill="#edf6f2"/>
    <path id="Path_11555" data-name="Path 11555" d="M378.824,474.544a12.016,12.016,0,0,1-8.8-3.66,12.563,12.563,0,0,1,8.778-21.433,12.7,12.7,0,0,1,6.344,1.682,12.382,12.382,0,0,1,6.326,10.843,12.519,12.519,0,0,1-1.681,6.308,12.129,12.129,0,0,1-4.593,4.6,12.643,12.643,0,0,1-6.374,1.659m.069-16.742a3.576,3.576,0,0,0-2.749,1.13,4.19,4.19,0,0,0-1.114,3.062,4.3,4.3,0,0,0,1.1,3.133,3.518,3.518,0,0,0,2.739,1.116,3.607,3.607,0,0,0,2.773-1.139,4.275,4.275,0,0,0,1.122-3.111,4.226,4.226,0,0,0-1.1-3.08,3.6,3.6,0,0,0-2.778-1.112" transform="translate(7.689 8.189)" fill="#edf6f2"/>
    <path id="Path_11556" data-name="Path 11556" d="M377.914,450.314a10.942,10.942,0,0,1,5.48,1.448,10.519,10.519,0,0,1,4,3.943,10.85,10.85,0,0,1-.016,10.815,10.393,10.393,0,0,1-3.938,3.955,10.906,10.906,0,0,1-5.508,1.425,10.265,10.265,0,0,1-7.558-3.146,10.807,10.807,0,0,1,7.537-18.44m.09,4.845a5.337,5.337,0,0,0-4.012,1.669,5.921,5.921,0,0,0-1.6,4.274,6.025,6.025,0,0,0,1.584,4.341,5.3,5.3,0,0,0,4.009,1.661,5.369,5.369,0,0,0,4.038-1.68,6.608,6.608,0,0,0,.029-8.613A5.363,5.363,0,0,0,378,455.159" transform="translate(8.579 9.081)" fill="#edf6f2"/>
    <path id="Path_11557" data-name="Path 11557" d="M387.962,497.753a1.751,1.751,0,0,1-1.726-1.46L384.459,485.7l-3.611,10.852a1.753,1.753,0,0,1-1.659,1.2h-4.605a1.753,1.753,0,0,1-1.665-1.206l-3.583-10.86L367.511,496.3a1.747,1.747,0,0,1-1.724,1.454h-5.1a1.756,1.756,0,0,1-1.726-2.05l4.754-27.761a1.756,1.756,0,0,1,1.726-1.454h5.089a1.742,1.742,0,0,1,1.663,1.2l4.709,14.325,4.752-14.327a1.753,1.753,0,0,1,1.659-1.2h5.089a1.748,1.748,0,0,1,1.728,1.462l4.6,27.763a1.746,1.746,0,0,1-1.724,2.04Z" transform="translate(0 25.795)" fill="#edf6f2"/>
    <path id="Path_11558" data-name="Path 11558" d="M364.554,467.351h5.091l6.363,19.363,6.42-19.363h5.088l4.6,27.757h-5.049l-2.946-17.529L378.3,495.108h-4.608l-5.778-17.529L364.9,495.108H359.8Z" transform="translate(0.889 26.686)" fill="#edf6f2"/>
    <path id="Path_11559" data-name="Path 11559" d="M386.23,496.485a13.62,13.62,0,1,1,13.259-16.021,1.78,1.78,0,0,1,.193.734l.032.939v12.511a1.749,1.749,0,0,1-1.753,1.745h-6.677a1.733,1.733,0,0,1-1.206-.48,13.218,13.218,0,0,1-3.849.571m0-16.889a3.269,3.269,0,0,0,0,6.537,3.158,3.158,0,0,0,2.4-1.139l.876-1.021-.069-.882c0-.057-.006-.114-.006-.173,0-.079.006-.155.014-.23a3.26,3.26,0,0,0-3.215-3.093" transform="translate(14.26 28.645)" fill="#edf6f2"/>
    <path id="Path_11560" data-name="Path 11560" d="M385.339,493.849a11.872,11.872,0,1,1,11.612-13.473h.092l.028.935V493.76h-6.677v-1.074l-.238.108a11.522,11.522,0,0,1-4.817,1.055m0-16.891a5.022,5.022,0,0,0,0,10.043,4.912,4.912,0,0,0,3.731-1.757l1.324-1.537v-.675h-.026l-.079-.964c0-.057.01-.114.018-.169a4.986,4.986,0,0,0-4.967-4.941" transform="translate(15.15 29.532)" fill="#edf6f2"/>
    <path id="Path_11561" data-name="Path 11561" d="M385.759,495.071a12.683,12.683,0,1,1,12.495-13.806,1.79,1.79,0,0,1,.063.458V493.23a1.754,1.754,0,0,1-1.749,1.751h-4.821a1.75,1.75,0,0,1-1.456-.773,12.287,12.287,0,0,1-4.532.862m0-16.884a4.206,4.206,0,0,0,0,8.412,4.049,4.049,0,0,0,3.107-1.464,1.757,1.757,0,0,1,1.126-.6V483.1a1.774,1.774,0,0,1-.1-.71l.01-.075a4.175,4.175,0,0,0-4.14-4.125" transform="translate(14.731 29.12)" fill="#edf6f2"/>
    <path id="Path_11562" data-name="Path 11562" d="M395.639,480.831a10.8,10.8,0,1,0-10.77,11.6,10.593,10.593,0,0,0,4.433-.972v-6.073a5.811,5.811,0,0,1-4.433,2.072,5.957,5.957,0,1,1,5.895-5.954c0,.033-.012.073-.012.114h.106v10.72h4.821v-11.5Z" transform="translate(15.622 30.013)" fill="#edf6f2"/>
    <rect id="Rectangle_4873" data-name="Rectangle 4873" width="8.73" height="23.371" rx="0.86" transform="translate(411.48 499.511)" fill="#edf6f2"/>
    <rect id="Rectangle_4874" data-name="Rectangle 4874" width="5.232" height="19.869" transform="translate(413.23 501.259)" fill="#edf6f2"/>
    <path id="Path_11563" data-name="Path 11563" d="M387.363,493.152a1.755,1.755,0,0,1-1.405-.706l-3.062-4.1a1.753,1.753,0,0,1,1.116-2.775,3.447,3.447,0,0,0,2-1.068,4.274,4.274,0,0,0,1.106-3.06c-.006-.079-.008-.153-.008-.232a1.746,1.746,0,0,1,1.749-1.751h5.148a1.752,1.752,0,0,1,1.753,1.7c0,.071.008.136.008.2a12.666,12.666,0,0,1-1.655,6.3,12.2,12.2,0,0,1-4.555,4.609,12.9,12.9,0,0,1-1.543.75,1.8,1.8,0,0,1-.652.126" transform="translate(24.393 39.198)" fill="#edf6f2"/>
    <path id="Path_11564" data-name="Path 11564" d="M393.119,480.32h-5.146c0,.061.01.116.01.181a6.033,6.033,0,0,1-1.59,4.321,5.218,5.218,0,0,1-2.985,1.584l3.066,4.107a10.9,10.9,0,0,0,1.324-.643,10.344,10.344,0,0,0,3.9-3.957,10.864,10.864,0,0,0,1.427-5.433c0-.055-.006-.106-.006-.161" transform="translate(25.282 40.087)" fill="#edf6f2"/>
    <path id="Rectangle_4875" data-name="Rectangle 4875" d="M.86,0H7.734A.862.862,0,0,1,8.6.862V31.1a.859.859,0,0,1-.859.859H.86A.86.86,0,0,1,0,31.1V.86A.86.86,0,0,1,.86,0Z" transform="translate(439.309 492.136)" fill="#edf6f2"/>
    <rect id="Rectangle_4876" data-name="Rectangle 4876" width="5.1" height="28.462" transform="translate(441.059 493.885)" fill="#edf6f2"/>
    <path id="Path_11565" data-name="Path 11565" d="M389.48,476.068a4.88,4.88,0,0,1-3.585-1.531,5.112,5.112,0,0,1-1.456-3.621,4.969,4.969,0,0,1,1.444-3.546,4.859,4.859,0,0,1,3.536-1.484,4.92,4.92,0,0,1,3.574,1.5,5.144,5.144,0,0,1,.014,7.174,4.84,4.84,0,0,1-3.528,1.507" transform="translate(26.347 25.171)" fill="#edf6f2"/>
    <path id="Path_11566" data-name="Path 11566" d="M388.53,466.748a3.137,3.137,0,0,1,2.322.976,3.378,3.378,0,0,1,.008,4.721,3.044,3.044,0,0,1-2.271.978,3.1,3.1,0,0,1-2.326-1,3.322,3.322,0,0,1-.962-2.4,3.192,3.192,0,0,1,.94-2.318,3.1,3.1,0,0,1,2.289-.958" transform="translate(27.238 26.062)" fill="#edf6f2"/>
    <path id="Path_11567" data-name="Path 11567" d="M399.788,496.485a13.62,13.62,0,1,1,13.263-16.014,1.638,1.638,0,0,1,.189.728s.037.982.037,1v12.452a1.748,1.748,0,0,1-1.751,1.745h-6.679a1.717,1.717,0,0,1-1.2-.48,13.27,13.27,0,0,1-3.855.571m0-16.889a3.269,3.269,0,0,0,0,6.537,3.164,3.164,0,0,0,2.405-1.139l.874-1.021L403,483.1a1.591,1.591,0,0,1-.006-.219c0-.063.008-.12.012-.173a3.258,3.258,0,0,0-3.217-3.109" transform="translate(28.274 28.645)" fill="#edf6f2"/>
    <path id="Path_11568" data-name="Path 11568" d="M398.9,493.849a11.872,11.872,0,1,1,11.618-13.473h.088l.032.935V493.76h-6.679v-1.074l-.238.108a11.533,11.533,0,0,1-4.821,1.055m0-16.891a5.022,5.022,0,0,0,0,10.043,4.923,4.923,0,0,0,3.735-1.757l1.324-1.537v-.675h-.029l-.077-.964c0-.057.008-.112.014-.169a4.986,4.986,0,0,0-4.967-4.941" transform="translate(29.163 29.532)" fill="#edf6f2"/>
    <path id="Path_11569" data-name="Path 11569" d="M399.317,495.071a12.682,12.682,0,1,1,12.5-13.794,1.683,1.683,0,0,1,.059.445V493.23a1.751,1.751,0,0,1-1.745,1.751H405.3a1.747,1.747,0,0,1-1.45-.773,12.307,12.307,0,0,1-4.536.862m0-16.884a4.206,4.206,0,0,0,0,8.412,4.053,4.053,0,0,0,3.109-1.46,1.751,1.751,0,0,1,1.126-.6V483.1a1.708,1.708,0,0,1-.1-.645c0-.039.006-.1.014-.151a4.179,4.179,0,0,0-4.146-4.115" transform="translate(28.745 29.12)" fill="#edf6f2"/>
    <path id="Path_11570" data-name="Path 11570" d="M409.2,480.831a10.8,10.8,0,1,0-10.777,11.6,10.635,10.635,0,0,0,4.439-.972v-6.073a5.827,5.827,0,0,1-4.439,2.072,5.957,5.957,0,1,1,5.9-5.954c0,.033-.016.073-.016.114h.106v10.72h4.823v-11.5Z" transform="translate(29.636 30.013)" fill="#edf6f2"/>
    <path id="Path_11571" data-name="Path 11571" d="M430.64,494.625a1.754,1.754,0,0,1-1.749-1.749v-12.3a1.654,1.654,0,0,1-.03-.567l.03-.214a1.913,1.913,0,0,0-.053-.336,1.52,1.52,0,0,0-.694-.935,1.394,1.394,0,0,0-.7-.2,1.43,1.43,0,0,0-1.3.882c.043.748.051,1.492.024,2.271v11.4a1.755,1.755,0,0,1-1.753,1.749H419.79a1.753,1.753,0,0,1-1.753-1.749V480.569a1.7,1.7,0,0,1-.03-.563s.024-.175.027-.208a1.542,1.542,0,0,0-.047-.329c-.016-.045-.037-.1-.055-.144l-.029-.075a1.763,1.763,0,0,1-.1-.877,9.968,9.968,0,0,1,3.009-5.817,9.625,9.625,0,0,1,12.2-.872,9.886,9.886,0,0,1,3.593,4.727,1.639,1.639,0,0,1,.045.163,18.34,18.34,0,0,1,.38,4.9v11.407a1.754,1.754,0,0,1-1.753,1.749Z" transform="translate(60.806 29.328)" fill="#edf6f2"/>
    <path id="Path_11572" data-name="Path 11572" d="M434.068,476.119a8.184,8.184,0,0,0-2.952-3.9,7.88,7.88,0,0,0-9.988.718,8.168,8.168,0,0,0-2.478,4.8,2.934,2.934,0,0,1,.246,1.193,3.715,3.715,0,0,1-.039.4h.043v12.656h4.638V480.549a22.072,22.072,0,0,0-.045-2.462,3.187,3.187,0,0,1,3.064-2.4,3.122,3.122,0,0,1,1.59.441,3.251,3.251,0,0,1,1.5,2.043,3.372,3.372,0,0,1,.1.76,2.919,2.919,0,0,1-.041.4h.045v12.656h4.638V480.549a16.976,16.976,0,0,0-.323-4.43" transform="translate(61.697 30.217)" fill="#edf6f2"/>
    <path id="Path_11573" data-name="Path 11573" d="M436.1,494.625a1.751,1.751,0,0,1-1.749-1.749v-12.3a1.678,1.678,0,0,1-.031-.594l.016-.081c0-.03.012-.069.014-.1a1.729,1.729,0,0,0-.057-.346,1.469,1.469,0,0,0-.689-.927,1.329,1.329,0,0,0-.693-.2,1.435,1.435,0,0,0-1.3.884,22.028,22.028,0,0,1,.026,2.265v11.407a1.751,1.751,0,0,1-1.749,1.749h-4.638a1.752,1.752,0,0,1-1.753-1.749V480.569a1.692,1.692,0,0,1-.026-.563s.02-.175.022-.208a1.461,1.461,0,0,0-.051-.329.655.655,0,0,0-.047-.132l-.033-.087a1.808,1.808,0,0,1-.1-.877,9.969,9.969,0,0,1,3.011-5.817,9.623,9.623,0,0,1,12.2-.872,9.866,9.866,0,0,1,3.593,4.727,1.208,1.208,0,0,1,.047.163,18.115,18.115,0,0,1,.378,4.9v11.4a1.754,1.754,0,0,1-1.749,1.749Z" transform="translate(66.45 29.328)" fill="#edf6f2"/>
    <path id="Path_11574" data-name="Path 11574" d="M439.529,476.119a8.161,8.161,0,0,0-2.954-3.9,7.88,7.88,0,0,0-9.988.718,8.156,8.156,0,0,0-2.479,4.8,2.32,2.32,0,0,1,.151.433,3.165,3.165,0,0,1,.1.76,2.87,2.87,0,0,1-.035.4h.041v12.656H429V480.549a22.529,22.529,0,0,0-.045-2.462,3.191,3.191,0,0,1,3.07-2.4,3.12,3.12,0,0,1,1.586.441,3.346,3.346,0,0,1,1.6,2.8,2.642,2.642,0,0,1-.041.4h.041v12.656h4.642V480.549a17.02,17.02,0,0,0-.325-4.43" transform="translate(67.338 30.217)" fill="#edf6f2"/>
    <path id="Path_11575" data-name="Path 11575" d="M421.152,496.3a12.721,12.721,0,0,1-9.378-3.947,13.648,13.648,0,0,1,.5-19.532,12.825,12.825,0,0,1,8.859-3.5,13.388,13.388,0,0,1,6.747,1.806,13.161,13.161,0,0,1,4.953,4.947,13.637,13.637,0,0,1-.008,13.477,13.036,13.036,0,0,1-4.9,4.959,13.37,13.37,0,0,1-6.775,1.785m.063-16.744a2.571,2.571,0,0,0-2.021.838,3.287,3.287,0,0,0-.846,2.418,3.43,3.43,0,0,0,.834,2.5,2.559,2.559,0,0,0,2.015.811,2.612,2.612,0,0,0,2.056-.842,3.365,3.365,0,0,0,.85-2.466,3.257,3.257,0,0,0-.825-2.442,2.633,2.633,0,0,0-2.062-.813" transform="translate(50.593 28.722)" fill="#edf6f2"/>
    <path id="Path_11576" data-name="Path 11576" d="M420.262,493.656a11.03,11.03,0,0,1-8.133-3.426,11.9,11.9,0,0,1,.435-17.009,11.12,11.12,0,0,1,7.678-3.038,11.663,11.663,0,0,1,5.876,1.578,11.4,11.4,0,0,1,4.3,4.292,11.628,11.628,0,0,1,1.545,5.848,11.819,11.819,0,0,1-1.553,5.9,11.271,11.271,0,0,1-4.25,4.3,11.6,11.6,0,0,1-5.9,1.555m.063-16.744a4.333,4.333,0,0,0-3.294,1.377,5.035,5.035,0,0,0-1.326,3.631,5.137,5.137,0,0,0,1.307,3.693,4.3,4.3,0,0,0,3.294,1.364,4.361,4.361,0,0,0,3.329-1.388,5.741,5.741,0,0,0,.02-7.314,4.352,4.352,0,0,0-3.331-1.362" transform="translate(51.483 29.612)" fill="#edf6f2"/>
    <path id="Path_11577" data-name="Path 11577" d="M414.029,494.877a11.871,11.871,0,0,1-8.725-3.662,12.707,12.707,0,0,1,.467-18.178,11.912,11.912,0,0,1,8.237-3.253,12.488,12.488,0,0,1,6.287,1.688c.183.1.348.218.512.332l.169.112a1.748,1.748,0,0,1,.165,2.8l-.132.1c-.035.037-.075.061-.11.1a9.879,9.879,0,0,0-2.277,3.036,1.762,1.762,0,0,1-1.092.925,1.6,1.6,0,0,1-.49.067,1.78,1.78,0,0,1-.927-.262,3.664,3.664,0,0,0-2.021-.549,3.474,3.474,0,0,0-2.694,1.125,4.248,4.248,0,0,0-1.1,3.072,4.345,4.345,0,0,0,1.09,3.137,3.456,3.456,0,0,0,2.69,1.11,3.585,3.585,0,0,0,2.017-.567,1.77,1.77,0,0,1,.949-.277,1.712,1.712,0,0,1,.474.063,1.762,1.762,0,0,1,1.1.925,10.011,10.011,0,0,0,1.9,2.69c.187.187.395.378.641.588a1.762,1.762,0,0,1,.608,1.442,1.741,1.741,0,0,1-.783,1.352l-.15.106c-.159.11-.321.216-.492.315a12.443,12.443,0,0,1-6.311,1.661" transform="translate(44.189 29.199)" fill="#edf6f2"/>
    <path id="Path_11578" data-name="Path 11578" d="M418.384,489.753a11.744,11.744,0,0,1-2.233-3.158,5.345,5.345,0,0,1-2.967.846,5.211,5.211,0,0,1-3.965-1.659,6.064,6.064,0,0,1-1.564-4.341,5.977,5.977,0,0,1,1.584-4.278A5.245,5.245,0,0,1,413.2,475.5a5.454,5.454,0,0,1,2.948.809,11.7,11.7,0,0,1,2.668-3.564c.1-.089.2-.167.307-.254-.2-.126-.382-.27-.59-.386a10.718,10.718,0,0,0-5.417-1.458,10.168,10.168,0,0,0-7.054,2.8,10.947,10.947,0,0,0-.4,15.654,10.109,10.109,0,0,0,7.478,3.144,10.705,10.705,0,0,0,5.439-1.425c.2-.114.366-.246.551-.366-.254-.22-.5-.447-.746-.693" transform="translate(45.077 30.088)" fill="#edf6f2"/>
    <path id="Path_11579" data-name="Path 11579" d="M420.682,494.879a11.854,11.854,0,0,1-8.723-3.666,12.7,12.7,0,0,1,.468-18.178,11.922,11.922,0,0,1,8.235-3.251,12.556,12.556,0,0,1,6.287,1.681,12.3,12.3,0,0,1,4.609,4.6,12.439,12.439,0,0,1,1.649,6.246,12.641,12.641,0,0,1-1.659,6.3,12.076,12.076,0,0,1-4.555,4.6,12.407,12.407,0,0,1-6.312,1.666m.063-16.745a3.471,3.471,0,0,0-2.69,1.123,4.249,4.249,0,0,0-1.1,3.072,4.343,4.343,0,0,0,1.088,3.137,3.446,3.446,0,0,0,2.688,1.11,3.492,3.492,0,0,0,2.721-1.133,4.926,4.926,0,0,0,.028-6.206,3.526,3.526,0,0,0-2.731-1.1" transform="translate(51.063 29.199)" fill="#edf6f2"/>
    <path id="Path_11580" data-name="Path 11580" d="M419.771,470.643a10.737,10.737,0,0,1,5.417,1.458,10.444,10.444,0,0,1,3.959,3.948,10.677,10.677,0,0,1,1.419,5.376,10.861,10.861,0,0,1-1.431,5.435,10.374,10.374,0,0,1-3.9,3.953,10.705,10.705,0,0,1-5.443,1.428,10.1,10.1,0,0,1-7.477-3.148,10.954,10.954,0,0,1,.4-15.654,10.181,10.181,0,0,1,7.054-2.8m.083,4.853a5.247,5.247,0,0,0-3.963,1.669,5.962,5.962,0,0,0-1.584,4.278,6.059,6.059,0,0,0,1.566,4.337,5.21,5.21,0,0,0,3.963,1.659,5.266,5.266,0,0,0,3.993-1.677,6.676,6.676,0,0,0,.026-8.613,5.271,5.271,0,0,0-4-1.653" transform="translate(51.954 30.087)" fill="#edf6f2"/>
    <path id="Path_11581" data-name="Path 11581" d="M450.463,492.437c-.035,0-.063,0-.092,0l-2.627-.211a1.751,1.751,0,0,1,.138-3.5c.035,0,.079,0,.12,0,.417.029.9.059,1.436.059,2.706,0,6.572-.746,8.908-7.218a59.12,59.12,0,0,0,2.891-11.625,1.742,1.742,0,0,1,1.71-1.458c1.065-.012,2.131-.031,3.186-.057a.215.215,0,0,1,.049,0,1.74,1.74,0,0,1,1.311.591,1.718,1.718,0,0,1,.419,1.421c-2.347,15.63-6.69,21.6-16.023,22.033h-.081l-1.346-.037" transform="translate(90.097 27.798)" fill="#edf6f2"/>
    <path id="Path_11582" data-name="Path 11582" d="M450.921,489.836l-1.3-.043-2.631-.205c2.664.177,8.9.588,12.114-8.31a61.281,61.281,0,0,0,2.971-11.93c1.074-.012,2.147-.026,3.215-.059-2.3,15.339-6.216,20.173-14.372,20.547" transform="translate(90.985 28.688)" fill="#edf6f2"/>
    <path id="Path_11583" data-name="Path 11583" d="M448.632,490.023a15.532,15.532,0,0,1-6.222-1.56.431.431,0,0,1-.106-.055s-1.816-.949-1.836-.962l-1.149-.667a1.756,1.756,0,0,1,.889-3.267,1.726,1.726,0,0,1,.86.236,11.284,11.284,0,0,0,5.148,1.787c1.324,0,3.054-.531,4.728-4.683a49.121,49.121,0,0,0,2.511-11.037,1.755,1.755,0,0,1,1.734-1.5l3.408.093a1.752,1.752,0,0,1,1.677,2.027c-1.576,9.908-3.772,19.587-11.643,19.587" transform="translate(82.161 27.681)" fill="#edf6f2"/>
    <path id="Path_11584" data-name="Path 11584" d="M442.229,485.97l-1.767-.927-1.147-.665c6.271,3.56,9.849,2.47,12.362-3.758a51.723,51.723,0,0,0,2.619-11.446c.931.028,1.877.053,2.832.081.171.006.348.006.527.016-2.444,15.348-5.614,21.039-15.427,16.7" transform="translate(83.052 28.57)" fill="#edf6f2"/>
    <path id="Path_11585" data-name="Path 11585" d="M445.691,487.443c-2.074,0-4.435-.945-7.21-2.889-.022-.014-.789-.606-.789-.606l-1.047-.858a1.751,1.751,0,0,1,2.214-2.715c2.371,1.913,3.81,2.316,4.6,2.316,3.056,0,4.335-7.359,5.024-12.891a1.751,1.751,0,0,1,1.724-1.533c.325-.006.653-.006.982-.006.726,0,1.47.006,2.228.018a1.746,1.746,0,0,1,1.714,1.993c-1.149,8.306-2.92,17.171-9.445,17.171" transform="translate(79.634 27.626)" fill="#edf6f2"/>
    <path id="Path_11586" data-name="Path 11586" d="M438.594,482.228l-.718-.555-1.006-.823c8.469,6.836,11.011-.114,12.464-11.722,1.023-.008,2.082,0,3.174.01-1.855,13.4-4.707,19.532-13.914,13.091" transform="translate(80.525 28.517)" fill="#edf6f2"/>
    <path id="Path_11587" data-name="Path 11587" d="M450.225,491.724a19.4,19.4,0,0,1-3.729-.4c-.036-.006-.073-.016-.106-.024-.813-.208-1.791-.506-2.731-.805a1.75,1.75,0,0,1,.52-3.42,1.652,1.652,0,0,1,.494.075,10.824,10.824,0,0,0,3,.486c2.9,0,4.978-1.706,6.36-5.213a65.167,65.167,0,0,0,3.447-12.558,1.754,1.754,0,0,1,1.722-1.442h.043c1.035.029,2.082.047,3.129.055a1.758,1.758,0,0,1,1.71,2.039c-2.908,17.659-7.458,21.208-13.863,21.208" transform="translate(86.274 27.792)" fill="#edf6f2"/>
    <path id="Path_11588" data-name="Path 11588" d="M445.942,488.713c-.795-.2-1.763-.5-2.649-.777,2.946.862,8.52,1.749,11.486-5.76a67.083,67.083,0,0,0,3.54-12.893q1.561.04,3.152.057c-2.83,17.216-6.775,21.088-15.529,19.373" transform="translate(87.162 28.682)" fill="#edf6f2"/>
    <path id="Path_11589" data-name="Path 11589" d="M444.673,481.247a1.546,1.546,0,0,1-.494-.069c-.384-.114-.73-.22-1.015-.313a1.752,1.752,0,0,1,1.074-3.335l.964.3a1.749,1.749,0,0,1-.529,3.418" transform="translate(85.783 37.12)" fill="#edf6f2"/>
    <path id="Path_11590" data-name="Path 11590" d="M443.78,478.612c-.362-.108-.687-.209-.96-.305.295.1.626.2.96.305" transform="translate(86.673 38.006)" fill="#edf6f2"/>
    <path id="Path_11591" data-name="Path 11591" d="M452.616,471.961c-1.185-.035-2.326-.065-3.43-.087a1.751,1.751,0,0,1-1.7-2.009c.578-3.865.956-5.716,1.184-6.828,2.751-13.5,7.881-20.331,15.26-20.331a17.212,17.212,0,0,1,9.172,3.162,1.751,1.751,0,0,1-.952,3.221,1.771,1.771,0,0,1-.807-.2,10.987,10.987,0,0,0-5.03-1.374,7.909,7.909,0,0,0-4.624,1.5c-4.612,3.2-6.625,16.935-7.283,21.449a1.757,1.757,0,0,1-1.733,1.5l-.059,0" transform="translate(91.479 1.219)" fill="#edf6f2"/>
    <path id="Path_11592" data-name="Path 11592" d="M471.263,446.447c-3.758-1.948-7.763-2.316-11.456.242-4.42,3.06-6.637,13.168-8.023,22.637-1.192-.037-2.34-.067-3.453-.089.573-3.845.948-5.681,1.167-6.757,4.447-21.813,14.136-20.955,21.765-16.033" transform="translate(92.368 2.108)" fill="#edf6f2"/>
    <path id="Path_11593" data-name="Path 11593" d="M456.236,470.912c-.815-.039-1.61-.073-2.385-.112l-.11-.006c-.264-.008-.527-.02-.783-.039a1.745,1.745,0,0,1-1.249-.624,1.777,1.777,0,0,1-.395-1.344c.262-2.025.535-3.837.842-5.547,2.261-12.739,6.564-19.2,12.786-19.2a12.947,12.947,0,0,1,7.464,2.865c.026.02.059.047.087.071.746.618,1.509,1.293,2.318,2.07a1.751,1.751,0,0,1-2.328,2.613c-2.021-1.686-3.876-2.537-5.51-2.537a5.014,5.014,0,0,0-3.451,1.482c-2.322,2.133-4.164,8.451-5.475,18.78a1.747,1.747,0,0,1-1.733,1.531h-.079" transform="translate(95.439 2.596)" fill="#edf6f2"/>
    <path id="Path_11594" data-name="Path 11594" d="M470.488,447.426c.787.655,1.531,1.33,2.226,1.993-3.268-2.723-7.442-4.5-11.262-1-3.327,3.048-5.012,11.832-6.027,19.849-.815-.034-1.608-.073-2.379-.11-.3-.014-.592-.029-.882-.041.234-1.83.5-3.652.824-5.462,3.637-20.464,11.529-19.566,17.5-15.232" transform="translate(96.329 3.487)" fill="#edf6f2"/>
    <path id="Path_11595" data-name="Path 11595" d="M445.273,473.119a1.75,1.75,0,0,1-1.73-2.011c1.9-12.7,6-29.583,19.536-29.583,4,0,8.595,1.557,13.664,4.63.028.02.055.033.085.051.384.268.807.563,1.238.878a1.752,1.752,0,0,1-1.031,3.168,1.767,1.767,0,0,1-.984-.3c-3.715-2.525-7.582-3.924-10.9-3.924a8.583,8.583,0,0,0-5.421,1.714c-3.39,2.651-6.423,6.279-9.174,23.839a1.744,1.744,0,0,1-1.722,1.478c-1.224.006-2.41.026-3.5.061-.018,0-.039,0-.057,0" transform="translate(87.399 0)" fill="#edf6f2"/>
    <path id="Path_11596" data-name="Path 11596" d="M474.944,446.761c.376.258.785.545,1.2.852-6.669-4.54-13.867-5.677-18.385-2.139-3.778,2.954-7.011,6.993-9.825,24.943q-1.857.009-3.552.063c2.845-18.989,9.439-36.52,30.561-23.719" transform="translate(88.288 0.889)" fill="#edf6f2"/>
    <path id="Path_11597" data-name="Path 11597" d="M459.591,469.537c-1.011-.018-2.021-.047-3.021-.075a1.749,1.749,0,0,1-1.682-1.948c.2-1.736.372-3.154.563-4.445,1.708-11.755,5.034-17.47,10.171-17.47,2.582,0,5.384,1.6,8.337,4.756.771.86,1.5,1.718,2.165,2.566l.372.488a1.746,1.746,0,0,1-.325,2.446,1.738,1.738,0,0,1-2.454-.319l-.177-.228c-3.4-4.388-5.362-5.047-6.232-5.047-1.529,0-4.341,2.3-5.943,17.708a1.744,1.744,0,0,1-1.74,1.568Z" transform="translate(99.132 4.209)" fill="#edf6f2"/>
    <path id="Path_11598" data-name="Path 11598" d="M471.788,450.662c.964,1.071,1.678,1.95,2.072,2.456.118.161.236.309.356.459-10.789-14.13-14.054-.429-15.482,13.32-1-.018-2.007-.045-3-.077.165-1.464.342-2.928.555-4.39,2.973-20.475,10.213-17.427,15.5-11.769" transform="translate(100.021 5.098)" fill="#edf6f2"/>
    <path id="Path_11599" data-name="Path 11599" d="M434.924,471.372a1.756,1.756,0,0,1-1.712-1.4c-.067-.309-.136-.681-.205-1.092a1.753,1.753,0,0,1,1.425-2.011,1.994,1.994,0,0,1,.307-.026,1.755,1.755,0,0,1,1.718,1.434c.063.352.13.693.187,1.008a1.745,1.745,0,0,1-1.374,2.043,1.537,1.537,0,0,1-.346.039" transform="translate(76.508 26.166)" fill="#edf6f2"/>
    <path id="Path_11600" data-name="Path 11600" d="M433.844,467.71c.065.356.128.7.191,1.017-.063-.285-.128-.632-.191-1.017" transform="translate(77.398 27.056)" fill="#edf6f2"/>
    <path id="Path_11601" data-name="Path 11601" d="M469.769,457.257a1.768,1.768,0,0,1-1.486-.815c-.23-.368-.476-.738-.726-1.1l-.116-.165a1.75,1.75,0,1,1,2.859-2.019s.518.746.693.992c.026.045.053.085.075.126a2.908,2.908,0,0,0,.183.3,1.764,1.764,0,0,1-.549,2.42,1.793,1.793,0,0,1-.933.264" transform="translate(111.782 11.249)" fill="#edf6f2"/>
    <path id="Path_11602" data-name="Path 11602" d="M468.653,454.251c.069.118.142.24.224.366-.287-.453-.586-.9-.895-1.344.236.342.472.679.671.978" transform="translate(112.674 12.138)" fill="#edf6f2"/>
    <path id="Path_11603" data-name="Path 11603" d="M439.054,497.226a1.755,1.755,0,0,1-1.476-.807l-.7-1.1-.5-.821a.758.758,0,0,0-.042-.079c-2.253-4.211-2.647-7.452-1.218-9.894,2.269-3.863,8.522-4.77,17.218-4.937,1.041-.022,2.131-.031,3.257-.031,1.4,0,2.851.008,4.365.031.966.01,1.95.026,2.959.051h.024c.14,0,.3,0,.47.006,1.645.027,3.247.041,4.776.051.661,0,1.305,0,1.94,0H471.3c1.545-.008,3.007-.026,4.408-.053l3.16-.091c17.877-.628,21.858-3.215,24.908-6.275,3.306-3.331,3.209-9.792-.252-16.472a1.749,1.749,0,0,1,3.085-1.649c.258.461.5.915.718,1.324.014.033.03.059.045.091,3.735,8.239,4.071,14.917.992,19.845-5.307,8.5-19.6,9.866-29.878,10.156-1.082.033-2.17.049-3.255.059-.515,0-1.025.006-1.535.006-.982,0-1.96-.008-2.932-.016-1.063-.016-2.123-.031-3.168-.057-1.635-.03-3.237-.081-4.789-.126,0,0-2.424-.069-3.353-.092-1.47-.041-2.9-.075-4.294-.1-.736-.008-1.47-.018-2.18-.018-.321,0-.639,0-.952.006-2.865.021-11.562.079-13.026,2.743-.754,1.374.419,3.78,1.535,5.555a1.752,1.752,0,0,1-1.482,2.686" transform="translate(77.849 13.15)" fill="#edf6f2"/>
    <path id="Path_11604" data-name="Path 11604" d="M451.48,480.45c1.035-.023,2.113-.026,3.225-.026q2.083,0,4.347.026,1.437.018,2.944.049c.158,0,.311,0,.468.008q2.519.037,4.829.055c1.076,0,2.119,0,3.127,0,1.556-.008,3.024-.031,4.433-.057l3.172-.093c18.3-.645,22.7-3.382,26.1-6.789,4.042-4.065,3.774-11.346.063-18.509.244.451.486.893.7,1.293,10.228,22.557-8.092,26.982-27.344,27.531-1.068.032-2.141.049-3.215.059-1.486.01-2.966,0-4.431-.014q-1.589-.019-3.151-.057c-1.631-.037-3.227-.077-4.776-.124-.173-.008-.354-.008-.525-.014q-1.436-.04-2.832-.082-2.218-.058-4.313-.091c-1.092-.012-2.151-.018-3.178-.01-11.6.079-18.716,1.8-12.954,10.978l-.708-1.1-.466-.779c-5.276-9.872,1.072-12,14.488-12.257" transform="translate(78.737 14.04)" fill="#edf6f2"/>
    <path id="Path_11605" data-name="Path 11605" d="M470.69,458.973a1.753,1.753,0,0,1-1.533-.9c-.443-.795-.917-1.627-1.352-2.358a1.751,1.751,0,0,1,.59-2.387,1.814,1.814,0,0,1,.919-.252,1.742,1.742,0,0,1,1.478.815c.537.862,1.029,1.708,1.452,2.527a1.745,1.745,0,0,1-.728,2.344,1.715,1.715,0,0,1-.826.211" transform="translate(112.237 11.933)" fill="#edf6f2"/>
    <path id="Path_11606" data-name="Path 11606" d="M469.8,456.328c-.451-.809-.937-1.655-1.376-2.393.5.791.96,1.592,1.376,2.393" transform="translate(113.127 12.822)" fill="#edf6f2"/>
    <path id="Path_11607" data-name="Path 11607" d="M434.991,488.925a1.748,1.748,0,0,1-1.718-1.431c-.157-.838-.348-1.907-.468-2.782l-.01-.1c-.309-4.195.468-7.185,2.446-9.412,3.068-3.457,8.9-5.069,20.142-5.578,1.112-.047,2.285-.089,3.5-.114,1.389-.039,2.916-.057,4.536-.059.421-.006.85-.006,1.285-.006.732,0,1.478.006,2.243.008,1.452.012,2.969.026,4.536.057.726.01,1.464.024,2.22.039l1.047.025c1.281.026,2.668.049,4.114.063.649.01,1.3.01,1.97.01H481.9c10.506-.061,17.051-1.141,19.463-3.211.933-.8,3.772-3.241.018-9.024a24.973,24.973,0,0,0-2.438-3.121,32.685,32.685,0,0,0-2.359-2.346l-.012-.012a1.536,1.536,0,0,1-.234-.256,1.739,1.739,0,0,1,1.212-2.792c.063,0,.128-.006.2-.006a1.8,1.8,0,0,1,1.157.439l0,.006c2.554,2.233,7.151,6.814,9.258,12.413a1.735,1.735,0,0,1-.156,1.551,8.518,8.518,0,0,1-.9,5.488c-2.417,4.4-8.845,6.84-19.638,7.452-1.822.1-3.713.161-5.783.173-.372,0-.75,0-1.124,0-.663,0-1.324,0-1.987-.012-1.4-.016-2.814-.045-4.223-.08-.895-.02-1.8-.045-2.7-.071l-.533-.014c-1.533-.043-3.06-.081-4.591-.112-1.167-.026-2.334-.039-3.5-.049h-.754c-1.3,0-2.5.012-3.672.049s-2.275.081-3.351.141a65.082,65.082,0,0,0-12.714,1.927c-6.157,1.617-6.34,5.5-5.811,8.711A1.755,1.755,0,0,1,435.3,488.9a2,2,0,0,1-.307.026" transform="translate(76.247 7.592)" fill="#edf6f2"/>
    <path id="Path_11608" data-name="Path 11608" d="M505.638,461.462a33.526,33.526,0,0,0-1.962-3.44c3.593,6.438,3.552,14.382-17.206,15.565-1.9.108-3.79.165-5.689.173-1.025.006-2.054,0-3.08-.008-1.4-.016-2.8-.043-4.195-.083-1.076-.022-2.159-.055-3.233-.081q-2.3-.067-4.6-.114-1.763-.043-3.528-.049c-1.491-.006-2.985.006-4.479.049-1.137.029-2.277.077-3.414.148A66.759,66.759,0,0,0,441.2,475.6c-7.79,2.043-7.59,7.657-7.1,10.689-.167-.9-.344-1.889-.456-2.694-.649-8.867,3.634-12.33,20.923-13.107q1.656-.076,3.465-.116c1.425-.034,2.926-.059,4.5-.061,1.126-.006,2.3,0,3.512,0q2.166.019,4.516.059l2.214.041c.34.01.688.016,1.043.025,1.293.024,2.686.051,4.138.063.992.008,2.019.014,3.054.006,8.127-.045,17.149-.669,20.6-3.627,3.932-3.381,2.662-7.741.346-11.307a26.64,26.64,0,0,0-2.611-3.339,34.093,34.093,0,0,0-2.485-2.481l-.014-.016c3.727,3.256,7.179,7.462,8.788,11.73" transform="translate(77.134 8.479)" fill="#edf6f2"/>
    <path id="Path_11609" data-name="Path 11609" d="M434.288,481.281a1.754,1.754,0,0,1-1.669-1.82l.1-2.635c0-.03,0-.057,0-.087l.118-1.293c0-.043.008-.087.014-.13,1.537-9.2,7.938-12.8,23.627-13.29,1.132-.037,2.344-.057,3.6-.059l.76,0c1.2,0,2.448.016,3.751.032,1.125.028,2.279.057,3.477.1q2.1.07,4.361.171c.264.014.506.022.758.039h.124c.775.043,1.564.081,2.373.11,1.3.063,2.633.118,3.994.167.98.028,1.976.057,2.973.071.758.014,1.527.024,2.289.024,12.761,0,15.528-2.127,16.045-3.394.584-1.444-1.006-4.144-4.363-7.4a1.748,1.748,0,0,1,1.222-3,1.72,1.72,0,0,1,1.212.486l.437.419c.515.52,1.312,1.342,2.275,2.44,3.5,4.14,4.581,7.712,3.263,10.647-1.771,3.942-7.686,5.988-18.064,6.244q-1.513.043-3.017.041c-.547,0-1.09-.006-1.633-.012-1.017-.008-2.031-.033-3.048-.053-1.365-.039-2.725-.087-4.083-.132l-3.27-.132q-2.193-.086-4.38-.152-1.729-.058-3.449-.075-.945-.015-1.881-.014-1.272,0-2.552.026c-.24,0-.464.008-.687.012q-1.495.04-2.8.1a58.241,58.241,0,0,0-11.722,1.478c-7.938,1.836-8.2,6.771-8.341,9.426a1.748,1.748,0,0,1-1.745,1.659c-.024,0-.055,0-.081,0" transform="translate(76.131 7.593)" fill="#edf6f2"/>
    <path id="Path_11610" data-name="Path 11610" d="M497.39,450.147c.451.453,1.236,1.262,2.182,2.34,4.992,5.915,7.161,13.467-13.53,13.986-1.531.042-3.058.045-4.587.028q-1.51-.018-3.022-.055-2.028-.058-4.056-.134-1.638-.061-3.268-.124c-1.47-.059-2.936-.114-4.4-.157-1.155-.034-2.312-.065-3.473-.077q-2.245-.03-4.494.012c-.23,0-.46.006-.687.014-1.017.029-1.962.061-2.844.1A60.649,60.649,0,0,0,443.17,467.6c-9.219,2.133-9.548,8.375-9.693,11.039l.106-2.637.116-1.289c1.342-8.028,6.572-11.35,21.952-11.826,1.133-.041,2.314-.057,3.552-.063,1.419-.01,2.91.006,4.477.035,1.112.024,2.261.055,3.455.091,1.387.045,2.836.1,4.339.173.291.012.586.028.882.043.771.037,1.562.075,2.379.108,1.293.059,2.637.114,4,.159.99.033,2,.061,3,.081,13.879.226,28.027-1.346,15.229-13.786.138.136.279.275.425.415" transform="translate(77.019 8.479)" fill="#edf6f2"/>
    <path id="Path_11611" data-name="Path 11611" d="M437.092,491.465a1.759,1.759,0,0,1-1.608-1.055l-.555-1.287-.713-1.873c-.014-.037-.027-.075-.037-.108-1.332-4.353-1.143-7.639.573-10.059,2.89-4.069,9.8-5.154,19.282-5.533,1.074-.039,2.2-.075,3.363-.1,1.421-.032,2.9-.055,4.457-.067,1.139-.012,2.318-.014,3.536-.021,1.523-.006,3.1-.012,4.746-.012h3.182c1.4-.006,2.824-.008,4.294-.024,1.007-.012,2.035-.026,3.074-.053,4.6-.118,18.6-.472,22.332-4.683,2.271-2.568,2.7-5.791,1.273-9.581a1.75,1.75,0,0,1,.948-2.224,1.806,1.806,0,0,1,.689-.144,1.755,1.755,0,0,1,1.576.984c2.58,5.281,2.828,9.813.744,13.477-2.788,4.907-9.75,7.845-20.679,8.739-1.027.086-2.944.25-7.1.37-.935.028-1.974.053-3.143.069-1.3.029-2.759.049-4.406.061q-1.473.012-3.148.018c-.63.006-1.287.006-1.966.006l-3.042-.006c-.315,0-3.3-.018-3.3-.018l-1.8,0c-.874,0-1.728,0-2.57.012-1.118.006-2.208.025-3.257.045a48.483,48.483,0,0,0-11.09,1.183c-2.658.716-4.256,1.685-4.884,2.973-.681,1.4-.407,3.52.838,6.482a1.759,1.759,0,0,1-.927,2.294,1.819,1.819,0,0,1-.687.141" transform="translate(76.841 13.55)" fill="#edf6f2"/>
    <path id="Path_11612" data-name="Path 11612" d="M486.541,475.206c-1.116.1-3.015.248-7.011.366-.923.02-1.958.051-3.119.069-1.3.02-2.755.045-4.39.057-.982.008-2.031.012-3.142.014-1.478.006-3.078.006-4.813,0-.376,0-.764-.006-1.155-.006l-2.33-.008c-1.5-.006-2.971-.006-4.377.006-1.131.006-2.225.024-3.29.051a51.326,51.326,0,0,0-11.5,1.238c-6.492,1.753-7.995,5.177-5.205,11.828l-.529-1.218-.714-1.867c-3.125-10.221,2.851-12.714,18.255-13.33,1.064-.041,2.176-.071,3.331-.1q2.12-.04,4.437-.063c1.137-.012,2.314-.018,3.522-.024q2.282,0,4.742,0c.594,0,1.2,0,1.806,0h1.377c1.377,0,2.822-.006,4.315-.025,1.019-.012,2.054-.026,3.1-.053,9.618-.244,20.014-1.23,23.595-5.278,2.987-3.369,3.1-7.385,1.606-11.352,3.983,8.16,3.685,17.887-18.505,19.7" transform="translate(77.726 14.441)" fill="#edf6f2"/>
    <path id="Path_11613" data-name="Path 11613" d="M436.019,486.7a4.361,4.361,0,0,1-2.133-.561,4.117,4.117,0,0,1-1.645-1.643,4.334,4.334,0,0,1,.01-4.291,4.083,4.083,0,0,1,1.661-1.641,4.319,4.319,0,0,1,4.215,0,4.125,4.125,0,0,1,1.665,1.643,4.363,4.363,0,0,1,.008,4.288,4.149,4.149,0,0,1-1.643,1.643,4.384,4.384,0,0,1-2.139.561" transform="translate(75.16 37.706)" fill="#edf6f2"/>
    <path id="Path_11614" data-name="Path 11614" d="M435.13,478.877a2.613,2.613,0,0,1,1.277.336,2.391,2.391,0,0,1,.966.958,2.6,2.6,0,0,1,.006,2.586,2.383,2.383,0,0,1-.956.958,2.576,2.576,0,0,1-2.584,0,2.426,2.426,0,0,1-.958-.958,2.6,2.6,0,0,1,0-2.586,2.456,2.456,0,0,1,.972-.958,2.609,2.609,0,0,1,1.273-.336m0,.429a2.21,2.21,0,0,0-1.059.279,1.956,1.956,0,0,0-.811.805,2.158,2.158,0,0,0-.291,1.08,2.214,2.214,0,0,0,.285,1.078,2.059,2.059,0,0,0,.805.795,2.15,2.15,0,0,0,2.145,0,2,2,0,0,0,.8-.795,2.185,2.185,0,0,0,0-2.157,1.98,1.98,0,0,0-.811-.805,2.237,2.237,0,0,0-1.063-.279m-1.135,3.6v-2.79h.958a2.343,2.343,0,0,1,.708.077.7.7,0,0,1,.354.268.718.718,0,0,1,.128.413.753.753,0,0,1-.212.529.86.86,0,0,1-.584.252,1,1,0,0,1,.238.146,3.381,3.381,0,0,1,.411.559l.339.545h-.549l-.246-.443a2.261,2.261,0,0,0-.472-.645.558.558,0,0,0-.36-.1h-.264V482.9Zm.449-1.572h.547a.884.884,0,0,0,.533-.116.375.375,0,0,0,.142-.309.4.4,0,0,0-.069-.224.415.415,0,0,0-.193-.142,1.3,1.3,0,0,0-.449-.049h-.51Z" transform="translate(76.05 38.595)" fill="#edf6f2"/>
    <path id="Path_11615" data-name="Path 11615" d="M435.475,470.673H411.132c-3.774,0-3.042-3.231-3.042-3.231v-20.5h-5.15v22.8s-.464,5.665,5.8,5.665c4.786,0,26.734-.018,26.734-.018Z" transform="translate(45.457 5.599)" fill="#6c3a79"/>
    <path id="Path_11616" data-name="Path 11616" d="M380.121,470.673h35.146c3.778,0,3.042-3.231,3.042-3.231v-20.5h5.152v22.8s.458,5.665-5.8,5.665c-4.788,0-37.541-.018-37.541-.018Z" transform="translate(21.885 5.599)" fill="#6c3a79"/>
    <path id="Path_11617" data-name="Path 11617" d="M431.966,450.314a10.949,10.949,0,0,1,5.48,1.448,10.644,10.644,0,0,1,5.439,9.323,10.713,10.713,0,0,1-1.45,5.435,10.409,10.409,0,0,1-3.945,3.955,10.9,10.9,0,0,1-5.506,1.425,10.27,10.27,0,0,1-7.56-3.146,10.806,10.806,0,0,1,7.542-18.44m.085,4.845a5.331,5.331,0,0,0-4.012,1.669,5.927,5.927,0,0,0-1.6,4.274,6.016,6.016,0,0,0,1.584,4.341,5.3,5.3,0,0,0,4.008,1.661,5.37,5.37,0,0,0,4.038-1.68,6.611,6.611,0,0,0,.026-8.613,5.36,5.36,0,0,0-4.046-1.653" transform="translate(64.429 9.081)" fill="#6c3a79"/>
    <path id="Path_11618" data-name="Path 11618" d="M424.354,455.533c0,.061.016.118.016.177a6,6,0,0,1-1.612,4.323,5.364,5.364,0,0,1-4.038,1.681c-.132,0-.258-.03-.39-.037v4.815c.12,0,.23.014.344.014a10.892,10.892,0,0,0,5.5-1.425,10.4,10.4,0,0,0,3.945-3.953,10.763,10.763,0,0,0,1.446-5.437c0-.051,0-.1,0-.158Z" transform="translate(61.367 14.474)" fill="#6c3a79"/>
    <path id="Path_11619" data-name="Path 11619" d="M380.457,455.533c0,.061-.012.118-.012.177a6,6,0,0,0,1.606,4.323,5.373,5.373,0,0,0,4.038,1.681c.132,0,.256-.03.388-.037v4.815c-.114,0-.226.014-.336.014a10.878,10.878,0,0,1-5.506-1.425,10.418,10.418,0,0,1-3.951-3.953,10.768,10.768,0,0,1-1.45-5.437c0-.051.016-.1.016-.158Z" transform="translate(16.838 14.474)" fill="#6c3a79"/>
    <path id="Path_11620" data-name="Path 11620" d="M389.355,455.712v8.472h5.2v-7.728Z" transform="translate(31.427 14.658)" fill="#6c3a79"/>
    <path id="Path_11621" data-name="Path 11621" d="M399.076,456.481a10.534,10.534,0,0,0-3.963-4.014,10.65,10.65,0,0,0-5.433-1.476,9.915,9.915,0,0,0-6.12,2.058h2.58v4.266a5.192,5.192,0,0,1,3.623-1.391,5.26,5.26,0,0,1,4.012,1.68,6.144,6.144,0,0,1,1.568,4.366v.006H400.5v-.025a10.946,10.946,0,0,0-1.426-5.469" transform="translate(25.439 9.78)" fill="#6c3a79"/>
    <path id="Path_11622" data-name="Path 11622" d="M395.167,447.023l-13.275,13.383,3.648,3.642,16.882-17.025Z" transform="translate(23.715 5.68)" fill="#6c3a79"/>
    <path id="Path_11623" data-name="Path 11623" d="M417.373,464.179a2.669,2.669,0,1,1-2.67-2.67,2.674,2.674,0,0,1,2.67,2.67" transform="translate(54.864 20.649)" fill="#6c3a79"/>
    <path id="Path_11624" data-name="Path 11624" d="M426.95,458.032a12.772,12.772,0,0,0-4.719-4.984,12.262,12.262,0,0,0-6.456-1.83,11.768,11.768,0,0,0-8.41,3.524c-.035.035-.059.069-.089.1l2.446,5.321a7.382,7.382,0,0,1,.933-1.275,7.1,7.1,0,0,1,10.49-.031,8.645,8.645,0,0,1,2.062,5.992,10.3,10.3,0,0,1-.441,3.062h5.541a14.594,14.594,0,0,0,.341-3.087,14.033,14.033,0,0,0-1.7-6.789" transform="translate(49.945 10.015)" fill="#6c3a79"/>
    <path id="Path_11625" data-name="Path 11625" d="M395.773,455.713a11.555,11.555,0,0,0-4.351-4.291,11.926,11.926,0,0,0-5.947-1.572,11.723,11.723,0,0,0-11.555,10.614h-.069l.018.96v.266a5,5,0,0,1-1.338,3.562,4.263,4.263,0,0,1-1.954,1.173,11.74,11.74,0,0,0-1.425.217c-.033,0-.236-.026-.315-.032l-.99-.057v.437a11.221,11.221,0,0,0-2.047.913,11.392,11.392,0,0,0-4.3,4.3,11.771,11.771,0,0,0-1.572,5.9,1.375,1.375,0,0,0,.012.161v.935h7.1l-.018-.954a.773.773,0,0,0-.012-.163,5.013,5.013,0,0,1,1.348-3.668,4.243,4.243,0,0,1,1.958-1.179,13.044,13.044,0,0,0,1.421-.209c.03,0,.238.026.313.026l.992.059v-.431a11.61,11.61,0,0,0,2.05-.919,11.4,11.4,0,0,0,2.314-1.749,11.212,11.212,0,0,0,8.086,3.3,11.879,11.879,0,0,0,5.974-1.55,11.418,11.418,0,0,0,4.3-4.3,11.714,11.714,0,0,0,1.57-5.9,11.568,11.568,0,0,0-1.562-5.85m-6.868,9.54a4.429,4.429,0,0,1-3.361,1.391,4.379,4.379,0,0,1-3.327-1.368,4.913,4.913,0,0,1-1.287-3.195c.006-.171.032-.342.032-.519a1.234,1.234,0,0,0-.012-.158v-.6a4.774,4.774,0,0,1,1.285-2.851,4.384,4.384,0,0,1,3.329-1.378,4.435,4.435,0,0,1,3.367,1.36,4.989,4.989,0,0,1,1.32,3.644,5.045,5.045,0,0,1-1.346,3.672" transform="translate(1.018 8.602)" fill="#fff"/>
    <path id="Path_11626" data-name="Path 11626" d="M379.535,455.533h-5.207c0,.061.014.118.014.177a6,6,0,0,1-1.61,4.323,5.258,5.258,0,0,1-2.467,1.452,11.2,11.2,0,0,0-1.439.218c-.043,0-.088.012-.132.012-.134,0-.258-.03-.384-.037v.134a10.572,10.572,0,0,0-2.523,1.035,10.446,10.446,0,0,0-3.949,3.955,10.75,10.75,0,0,0-1.448,5.435c0,.055.012.11.012.163h5.207c-.006-.065-.014-.12-.014-.179A5.993,5.993,0,0,1,367.2,467.9a5.223,5.223,0,0,1,2.46-1.452,11.968,11.968,0,0,0,1.44-.211c.049,0,.09-.012.136-.012.134,0,.254.022.386.032v-.138a10.787,10.787,0,0,0,2.523-1.033,10.435,10.435,0,0,0,3.947-3.953,10.786,10.786,0,0,0,1.448-5.437c0-.051-.01-.1-.01-.158" transform="translate(1.496 14.474)" fill="#96d760"/>
    <path id="Path_11627" data-name="Path 11627" d="M377.914,450.314a10.942,10.942,0,0,1,5.48,1.448,10.519,10.519,0,0,1,4,3.943,10.85,10.85,0,0,1-.016,10.815,10.393,10.393,0,0,1-3.938,3.955,10.906,10.906,0,0,1-5.508,1.425,10.265,10.265,0,0,1-7.558-3.146,10.807,10.807,0,0,1,7.537-18.44m.09,4.845a5.337,5.337,0,0,0-4.012,1.669,5.921,5.921,0,0,0-1.6,4.274,6.025,6.025,0,0,0,1.584,4.341,5.3,5.3,0,0,0,4.009,1.661,5.369,5.369,0,0,0,4.038-1.68,6.608,6.608,0,0,0,.029-8.613A5.363,5.363,0,0,0,378,455.159" transform="translate(8.579 9.081)" fill="#96d760"/>
    <path id="Path_11628" data-name="Path 11628" d="M364.554,467.351h5.091l6.363,19.363,6.42-19.363h5.088l4.6,27.757h-5.049l-2.946-17.529L378.3,495.108h-4.608l-5.778-17.529L364.9,495.108H359.8Z" transform="translate(0.889 26.686)" fill="#6c3a79"/>
    <path id="Path_11629" data-name="Path 11629" d="M385.339,493.849a11.872,11.872,0,1,1,11.612-13.473h.092l.028.935V493.76h-6.677v-1.074l-.238.108a11.522,11.522,0,0,1-4.817,1.055m0-16.891a5.022,5.022,0,0,0,0,10.043,4.912,4.912,0,0,0,3.731-1.757l1.324-1.537v-.675h-.026l-.079-.964c0-.057.01-.114.018-.169a4.986,4.986,0,0,0-4.967-4.941" transform="translate(15.15 29.532)" fill="#fff"/>
    <path id="Path_11630" data-name="Path 11630" d="M395.639,480.831a10.8,10.8,0,1,0-10.77,11.6,10.593,10.593,0,0,0,4.433-.972v-6.073a5.811,5.811,0,0,1-4.433,2.072,5.957,5.957,0,1,1,5.895-5.954c0,.033-.012.073-.012.114h.106v10.72h4.821v-11.5Z" transform="translate(15.622 30.013)" fill="#6c3a79"/>
    <rect id="Rectangle_4877" data-name="Rectangle 4877" width="5.232" height="19.869" transform="translate(413.23 501.259)" fill="#6c3a79"/>
    <path id="Path_11631" data-name="Path 11631" d="M393.119,480.32h-5.146c0,.061.01.116.01.181a6.033,6.033,0,0,1-1.59,4.321,5.218,5.218,0,0,1-2.985,1.584l3.066,4.107a10.9,10.9,0,0,0,1.324-.643,10.344,10.344,0,0,0,3.9-3.957,10.864,10.864,0,0,0,1.427-5.433c0-.055-.006-.106-.006-.161" transform="translate(25.282 40.087)" fill="#6c3a79"/>
    <rect id="Rectangle_4878" data-name="Rectangle 4878" width="5.1" height="28.462" transform="translate(441.059 493.885)" fill="#6c3a79"/>
    <path id="Path_11632" data-name="Path 11632" d="M388.53,466.748a3.137,3.137,0,0,1,2.322.976,3.378,3.378,0,0,1,.008,4.721,3.044,3.044,0,0,1-2.271.978,3.1,3.1,0,0,1-2.326-1,3.322,3.322,0,0,1-.962-2.4,3.192,3.192,0,0,1,.94-2.318,3.1,3.1,0,0,1,2.289-.958" transform="translate(27.238 26.062)" fill="#6c3a79"/>
    <path id="Path_11633" data-name="Path 11633" d="M398.9,493.849a11.872,11.872,0,1,1,11.618-13.473h.088l.032.935V493.76h-6.679v-1.074l-.238.108a11.533,11.533,0,0,1-4.821,1.055m0-16.891a5.022,5.022,0,0,0,0,10.043,4.923,4.923,0,0,0,3.735-1.757l1.324-1.537v-.675h-.029l-.077-.964c0-.057.008-.112.014-.169a4.986,4.986,0,0,0-4.967-4.941" transform="translate(29.163 29.532)" fill="#fff"/>
    <path id="Path_11634" data-name="Path 11634" d="M409.2,480.831a10.8,10.8,0,1,0-10.777,11.6,10.635,10.635,0,0,0,4.439-.972v-6.073a5.827,5.827,0,0,1-4.439,2.072,5.957,5.957,0,1,1,5.9-5.954c0,.033-.016.073-.016.114h.106v10.72h4.823v-11.5Z" transform="translate(29.636 30.013)" fill="#6c3a79"/>
    <path id="Path_11635" data-name="Path 11635" d="M434.068,476.119a8.184,8.184,0,0,0-2.952-3.9,7.88,7.88,0,0,0-9.988.718,8.168,8.168,0,0,0-2.478,4.8,2.934,2.934,0,0,1,.246,1.193,3.715,3.715,0,0,1-.039.4h.043v12.656h4.638V480.549a22.072,22.072,0,0,0-.045-2.462,3.187,3.187,0,0,1,3.064-2.4,3.122,3.122,0,0,1,1.59.441,3.251,3.251,0,0,1,1.5,2.043,3.372,3.372,0,0,1,.1.76,2.919,2.919,0,0,1-.041.4h.045v12.656h4.638V480.549a16.976,16.976,0,0,0-.323-4.43" transform="translate(61.697 30.217)" fill="#6c3a79"/>
    <path id="Path_11636" data-name="Path 11636" d="M439.529,476.119a8.161,8.161,0,0,0-2.954-3.9,7.88,7.88,0,0,0-9.988.718,8.156,8.156,0,0,0-2.479,4.8,2.32,2.32,0,0,1,.151.433,3.165,3.165,0,0,1,.1.76,2.87,2.87,0,0,1-.035.4h.041v12.656H429V480.549a22.529,22.529,0,0,0-.045-2.462,3.191,3.191,0,0,1,3.07-2.4,3.12,3.12,0,0,1,1.586.441,3.346,3.346,0,0,1,1.6,2.8,2.642,2.642,0,0,1-.041.4h.041v12.656h4.642V480.549a17.02,17.02,0,0,0-.325-4.43" transform="translate(67.338 30.217)" fill="#6c3a79"/>
    <path id="Path_11637" data-name="Path 11637" d="M420.262,493.656a11.03,11.03,0,0,1-8.133-3.426,11.9,11.9,0,0,1,.435-17.009,11.12,11.12,0,0,1,7.678-3.038,11.663,11.663,0,0,1,5.876,1.578,11.4,11.4,0,0,1,4.3,4.292,11.628,11.628,0,0,1,1.545,5.848,11.819,11.819,0,0,1-1.553,5.9,11.271,11.271,0,0,1-4.25,4.3,11.6,11.6,0,0,1-5.9,1.555m.063-16.744a4.333,4.333,0,0,0-3.294,1.377,5.035,5.035,0,0,0-1.326,3.631,5.137,5.137,0,0,0,1.307,3.693,4.3,4.3,0,0,0,3.294,1.364,4.361,4.361,0,0,0,3.329-1.388,5.741,5.741,0,0,0,.02-7.314,4.352,4.352,0,0,0-3.331-1.362" transform="translate(51.483 29.612)" fill="#fff"/>
    <path id="Path_11638" data-name="Path 11638" d="M418.384,489.753a11.744,11.744,0,0,1-2.233-3.158,5.345,5.345,0,0,1-2.967.846,5.211,5.211,0,0,1-3.965-1.659,6.064,6.064,0,0,1-1.564-4.341,5.977,5.977,0,0,1,1.584-4.278A5.245,5.245,0,0,1,413.2,475.5a5.454,5.454,0,0,1,2.948.809,11.7,11.7,0,0,1,2.668-3.564c.1-.089.2-.167.307-.254-.2-.126-.382-.27-.59-.386a10.718,10.718,0,0,0-5.417-1.458,10.168,10.168,0,0,0-7.054,2.8,10.947,10.947,0,0,0-.4,15.654,10.109,10.109,0,0,0,7.478,3.144,10.705,10.705,0,0,0,5.439-1.425c.2-.114.366-.246.551-.366-.254-.22-.5-.447-.746-.693" transform="translate(45.077 30.088)" fill="#6c3a79"/>
    <path id="Path_11639" data-name="Path 11639" d="M419.771,470.643a10.737,10.737,0,0,1,5.417,1.458,10.444,10.444,0,0,1,3.959,3.948,10.677,10.677,0,0,1,1.419,5.376,10.861,10.861,0,0,1-1.431,5.435,10.374,10.374,0,0,1-3.9,3.953,10.705,10.705,0,0,1-5.443,1.428,10.1,10.1,0,0,1-7.477-3.148,10.954,10.954,0,0,1,.4-15.654,10.181,10.181,0,0,1,7.054-2.8m.083,4.853a5.247,5.247,0,0,0-3.963,1.669,5.962,5.962,0,0,0-1.584,4.278,6.059,6.059,0,0,0,1.566,4.337,5.21,5.21,0,0,0,3.963,1.659,5.266,5.266,0,0,0,3.993-1.677,6.676,6.676,0,0,0,.026-8.613,5.271,5.271,0,0,0-4-1.653" transform="translate(51.954 30.087)" fill="#96d760"/>
    <path id="Path_11640" data-name="Path 11640" d="M450.921,489.836l-1.3-.043-2.631-.205c2.664.177,8.9.588,12.114-8.31a61.281,61.281,0,0,0,2.971-11.93c1.074-.012,2.147-.026,3.215-.059-2.3,15.339-6.216,20.173-14.372,20.547" transform="translate(90.985 28.688)" fill="#96d760"/>
    <path id="Path_11641" data-name="Path 11641" d="M442.229,485.97l-1.767-.927-1.147-.665c6.271,3.56,9.849,2.47,12.362-3.758a51.723,51.723,0,0,0,2.619-11.446c.931.028,1.877.053,2.832.081.171.006.348.006.527.016-2.444,15.348-5.614,21.039-15.427,16.7" transform="translate(83.052 28.57)" fill="#96d760"/>
    <path id="Path_11642" data-name="Path 11642" d="M438.594,482.228l-.718-.555-1.006-.823c8.469,6.836,11.011-.114,12.464-11.722,1.023-.008,2.082,0,3.174.01-1.855,13.4-4.707,19.532-13.914,13.091" transform="translate(80.525 28.517)" fill="#96d760"/>
    <path id="Path_11643" data-name="Path 11643" d="M445.942,488.713c-.795-.2-1.763-.5-2.649-.777,2.946.862,8.52,1.749,11.486-5.76a67.083,67.083,0,0,0,3.54-12.893q1.561.04,3.152.057c-2.83,17.216-6.775,21.088-15.529,19.373" transform="translate(87.162 28.682)" fill="#96d760"/>
    <path id="Path_11644" data-name="Path 11644" d="M443.78,478.612c-.362-.108-.687-.209-.96-.305.295.1.626.2.96.305" transform="translate(86.673 38.006)" fill="#96d760"/>
    <path id="Path_11645" data-name="Path 11645" d="M471.263,446.447c-3.758-1.948-7.763-2.316-11.456.242-4.42,3.06-6.637,13.168-8.023,22.637-1.192-.037-2.34-.067-3.453-.089.573-3.845.948-5.681,1.167-6.757,4.447-21.813,14.136-20.955,21.765-16.033" transform="translate(92.368 2.108)" fill="#96d760"/>
    <path id="Path_11646" data-name="Path 11646" d="M470.488,447.426c.787.655,1.531,1.33,2.226,1.993-3.268-2.723-7.442-4.5-11.262-1-3.327,3.048-5.012,11.832-6.027,19.849-.815-.034-1.608-.073-2.379-.11-.3-.014-.592-.029-.882-.041.234-1.83.5-3.652.824-5.462,3.637-20.464,11.529-19.566,17.5-15.232" transform="translate(96.329 3.487)" fill="#96d760"/>
    <path id="Path_11647" data-name="Path 11647" d="M474.944,446.761c.376.258.785.545,1.2.852-6.669-4.54-13.867-5.677-18.385-2.139-3.778,2.954-7.011,6.993-9.825,24.943q-1.857.009-3.552.063c2.845-18.989,9.439-36.52,30.561-23.719" transform="translate(88.288 0.889)" fill="#96d760"/>
    <path id="Path_11648" data-name="Path 11648" d="M471.788,450.662c.964,1.071,1.678,1.95,2.072,2.456.118.161.236.309.356.459-10.789-14.13-14.054-.429-15.482,13.32-1-.018-2.007-.045-3-.077.165-1.464.342-2.928.555-4.39,2.973-20.475,10.213-17.427,15.5-11.769" transform="translate(100.021 5.098)" fill="#96d760"/>
    <path id="Path_11649" data-name="Path 11649" d="M433.844,467.71c.065.356.128.7.191,1.017-.063-.285-.128-.632-.191-1.017" transform="translate(77.398 27.056)" fill="#6c3a79"/>
    <path id="Path_11650" data-name="Path 11650" d="M468.653,454.251c.069.118.142.24.224.366-.287-.453-.586-.9-.895-1.344.236.342.472.679.671.978" transform="translate(112.674 12.138)" fill="#6c3a79"/>
    <path id="Path_11651" data-name="Path 11651" d="M451.48,480.45c1.035-.023,2.113-.026,3.225-.026q2.083,0,4.347.026,1.437.018,2.944.049c.158,0,.311,0,.468.008q2.519.037,4.829.055c1.076,0,2.119,0,3.127,0,1.556-.008,3.024-.031,4.433-.057l3.172-.093c18.3-.645,22.7-3.382,26.1-6.789,4.042-4.065,3.774-11.346.063-18.509.244.451.486.893.7,1.293,10.228,22.557-8.092,26.982-27.344,27.531-1.068.032-2.141.049-3.215.059-1.486.01-2.966,0-4.431-.014q-1.589-.019-3.151-.057c-1.631-.037-3.227-.077-4.776-.124-.173-.008-.354-.008-.525-.014q-1.436-.04-2.832-.082-2.218-.058-4.313-.091c-1.092-.012-2.151-.018-3.178-.01-11.6.079-18.716,1.8-12.954,10.978l-.708-1.1-.466-.779c-5.276-9.872,1.072-12,14.488-12.257" transform="translate(78.737 14.04)" fill="#6c3a79"/>
    <path id="Path_11652" data-name="Path 11652" d="M469.8,456.328c-.451-.809-.937-1.655-1.376-2.393.5.791.96,1.592,1.376,2.393" transform="translate(113.127 12.822)" fill="#6c3a79"/>
    <path id="Path_11653" data-name="Path 11653" d="M505.638,461.462a33.526,33.526,0,0,0-1.962-3.44c3.593,6.438,3.552,14.382-17.206,15.565-1.9.108-3.79.165-5.689.173-1.025.006-2.054,0-3.08-.008-1.4-.016-2.8-.043-4.195-.083-1.076-.022-2.159-.055-3.233-.081q-2.3-.067-4.6-.114-1.763-.043-3.528-.049c-1.491-.006-2.985.006-4.479.049-1.137.029-2.277.077-3.414.148A66.759,66.759,0,0,0,441.2,475.6c-7.79,2.043-7.59,7.657-7.1,10.689-.167-.9-.344-1.889-.456-2.694-.649-8.867,3.634-12.33,20.923-13.107q1.656-.076,3.465-.116c1.425-.034,2.926-.059,4.5-.061,1.126-.006,2.3,0,3.512,0q2.166.019,4.516.059l2.214.041c.34.01.688.016,1.043.025,1.293.024,2.686.051,4.138.063.992.008,2.019.014,3.054.006,8.127-.045,17.149-.669,20.6-3.627,3.932-3.381,2.662-7.741.346-11.307a26.64,26.64,0,0,0-2.611-3.339,34.093,34.093,0,0,0-2.485-2.481l-.014-.016c3.727,3.256,7.179,7.462,8.788,11.73" transform="translate(77.134 8.479)" fill="#6c3a79"/>
    <path id="Path_11654" data-name="Path 11654" d="M497.39,450.147c.451.453,1.236,1.262,2.182,2.34,4.992,5.915,7.161,13.467-13.53,13.986-1.531.042-3.058.045-4.587.028q-1.51-.018-3.022-.055-2.028-.058-4.056-.134-1.638-.061-3.268-.124c-1.47-.059-2.936-.114-4.4-.157-1.155-.034-2.312-.065-3.473-.077q-2.245-.03-4.494.012c-.23,0-.46.006-.687.014-1.017.029-1.962.061-2.844.1A60.649,60.649,0,0,0,443.17,467.6c-9.219,2.133-9.548,8.375-9.693,11.039l.106-2.637.116-1.289c1.342-8.028,6.572-11.35,21.952-11.826,1.133-.041,2.314-.057,3.552-.063,1.419-.01,2.91.006,4.477.035,1.112.024,2.261.055,3.455.091,1.387.045,2.836.1,4.339.173.291.012.586.028.882.043.771.037,1.562.075,2.379.108,1.293.059,2.637.114,4,.159.99.033,2,.061,3,.081,13.879.226,28.027-1.346,15.229-13.786.138.136.279.275.425.415" transform="translate(77.019 8.479)" fill="#6c3a79"/>
    <path id="Path_11655" data-name="Path 11655" d="M486.541,475.206c-1.116.1-3.015.248-7.011.366-.923.02-1.958.051-3.119.069-1.3.02-2.755.045-4.39.057-.982.008-2.031.012-3.142.014-1.478.006-3.078.006-4.813,0-.376,0-.764-.006-1.155-.006l-2.33-.008c-1.5-.006-2.971-.006-4.377.006-1.131.006-2.225.024-3.29.051a51.326,51.326,0,0,0-11.5,1.238c-6.492,1.753-7.995,5.177-5.205,11.828l-.529-1.218-.714-1.867c-3.125-10.221,2.851-12.714,18.255-13.33,1.064-.041,2.176-.071,3.331-.1q2.12-.04,4.437-.063c1.137-.012,2.314-.018,3.522-.024q2.282,0,4.742,0c.594,0,1.2,0,1.806,0h1.377c1.377,0,2.822-.006,4.315-.025,1.019-.012,2.054-.026,3.1-.053,9.618-.244,20.014-1.23,23.595-5.278,2.987-3.369,3.1-7.385,1.606-11.352,3.983,8.16,3.685,17.887-18.505,19.7" transform="translate(77.726 14.441)" fill="#6c3a79"/>
    <path id="Path_11656" data-name="Path 11656" d="M435.13,478.877a2.613,2.613,0,0,1,1.277.336,2.391,2.391,0,0,1,.966.958,2.6,2.6,0,0,1,.006,2.586,2.383,2.383,0,0,1-.956.958,2.576,2.576,0,0,1-2.584,0,2.426,2.426,0,0,1-.958-.958,2.6,2.6,0,0,1,0-2.586,2.456,2.456,0,0,1,.972-.958,2.609,2.609,0,0,1,1.273-.336m0,.429a2.21,2.21,0,0,0-1.059.279,1.956,1.956,0,0,0-.811.805,2.158,2.158,0,0,0-.291,1.08,2.214,2.214,0,0,0,.285,1.078,2.059,2.059,0,0,0,.805.795,2.15,2.15,0,0,0,2.145,0,2,2,0,0,0,.8-.795,2.185,2.185,0,0,0,0-2.157,1.98,1.98,0,0,0-.811-.805,2.237,2.237,0,0,0-1.063-.279m-1.135,3.6v-2.79h.958a2.343,2.343,0,0,1,.708.077.7.7,0,0,1,.354.268.718.718,0,0,1,.128.413.753.753,0,0,1-.212.529.86.86,0,0,1-.584.252,1,1,0,0,1,.238.146,3.381,3.381,0,0,1,.411.559l.339.545h-.549l-.246-.443a2.261,2.261,0,0,0-.472-.645.558.558,0,0,0-.36-.1h-.264V482.9Zm.449-1.572h.547a.884.884,0,0,0,.533-.116.375.375,0,0,0,.142-.309.4.4,0,0,0-.069-.224.415.415,0,0,0-.193-.142,1.3,1.3,0,0,0-.449-.049h-.51Z" transform="translate(76.05 38.595)" fill="#6c3a79"/>
  </g>
</svg>
