<svg xmlns="http://www.w3.org/2000/svg" xmlns:xlink="http://www.w3.org/1999/xlink" width="159.337" height="76" viewBox="0 0 159.337 76">
  <defs>
    <linearGradient id="linear-gradient" y1="0.5" x2="1" y2="0.5" gradientUnits="objectBoundingBox">
      <stop offset="0" stop-color="#2a2b72"/>
      <stop offset="1" stop-color="#21977e"/>
    </linearGradient>
  </defs>
  <g id="logo" transform="translate(-0.154 -0.09)">
    <path id="Path_11726" data-name="Path 11726" d="M1.954,25.628a2.712,2.712,0,0,0,.421,1.693,1.824,1.824,0,0,0,1.494.526H11.11V20.8q0-4.084,3.755-4.085h4.751v8.833q0,4.084-3.755,4.085H3.908q-3.756,0-3.754-4.085V21.97l1.8-1.166v4.824Zm10.957,2.219H15.9a1.821,1.821,0,0,0,1.5-.527,2.71,2.71,0,0,0,.421-1.693V18.509H14.829a1.822,1.822,0,0,0-1.494.523,2.71,2.71,0,0,0-.422,1.694v7.121Zm1.38-15.759a1.182,1.182,0,0,1,.345-.856,1.188,1.188,0,0,1,1.684,0,1.233,1.233,0,0,1,0,1.712,1.19,1.19,0,0,1-1.686,0,1.174,1.174,0,0,1-.345-.856ZM23.217,20.8q0-4.084,3.755-4.085h4.751V30.025a11.473,11.473,0,0,1-.268,2.586,4.9,4.9,0,0,1-.921,1.966A4.671,4.671,0,0,1,28.755,35.9a8.558,8.558,0,0,1-2.894.622l-1.148-1.6a6.614,6.614,0,0,0,3.946-1.09,3.889,3.889,0,0,0,1.265-3.228v-.973h-2.95q-3.756,0-3.755-4.085V20.8Zm1.8,4.824a2.7,2.7,0,0,0,.422,1.693,1.816,1.816,0,0,0,1.493.527h2.989V18.509H26.934a1.823,1.823,0,0,0-1.493.523,2.71,2.71,0,0,0-.422,1.694ZM38.849,31a10.13,10.13,0,0,1-.153,1.888,4.234,4.234,0,0,1-.535,1.419,4.417,4.417,0,0,1-1.054,1.148,12.2,12.2,0,0,1-1.668,1.071l-1.263-1.633a12.7,12.7,0,0,0,1.4-.74,3.3,3.3,0,0,0,.88-.778,2.654,2.654,0,0,0,.46-.973,5.825,5.825,0,0,0,.134-1.361V16.718h1.8V27.847h1.5v1.789h-1.5V31Zm12.184-1.361a3.037,3.037,0,0,1-2.145-.778,3.044,3.044,0,0,1-2.146.778h-6.59V27.847h7.432q-.963-1.24-2.029-2.393A31.571,31.571,0,0,0,43.064,23.1v-.351a7.04,7.04,0,0,1,.422-2.489,5.459,5.459,0,0,1,3.063-3.211,6.339,6.339,0,0,1,4.675,0A5.457,5.457,0,0,1,54.29,20.26a7.067,7.067,0,0,1,.421,2.489v.35a31.314,31.314,0,0,0-2.49,2.354q-1.067,1.152-2.031,2.393h6.283v1.79H51.033Zm-2.145-2.958q.98-1.317,2.069-2.548.459-.525.937-1.011l1.017-1.031a4.016,4.016,0,0,0-1.323-2.665,4.174,4.174,0,0,0-5.4,0,4.008,4.008,0,0,0-1.32,2.665l1.015,1.031q.48.487.94,1.011c.306.351.626.726.956,1.13S48.478,26.134,48.888,26.677Zm10.305-5.912a4.163,4.163,0,0,1,1.073-3.113A4.3,4.3,0,0,1,63.408,16.6a4.446,4.446,0,0,1,3.179,1.052A4.081,4.081,0,0,1,67.7,20.764V28.74q0,4.122-4.292,4.124a4.745,4.745,0,0,1-2.817-.778,3.658,3.658,0,0,1-1.4-2.451H56.281v-1.79h2.912Zm1.8,7.975a2.324,2.324,0,0,0,.595,1.789,2.613,2.613,0,0,0,1.82.546,2.742,2.742,0,0,0,1.895-.546A2.329,2.329,0,0,0,65.9,28.74V20.726a2.33,2.33,0,0,0-.595-1.79,2.746,2.746,0,0,0-1.9-.545,2.617,2.617,0,0,0-1.82.545,2.33,2.33,0,0,0-.594,1.79V28.74ZM9.243,46.014l.175-2.326L6.549,52.508a1.19,1.19,0,0,1-1.106.817,1.26,1.26,0,0,1-1.084-.742L1.589,43.51l.176,2.505V58.9H.155V42.333A1.328,1.328,0,0,1,2.772,42c1.083,3.35,1.687,6.186,2.643,9.536,1.033-3.145,1.863-6.571,2.845-9.612a1.325,1.325,0,0,1,2.617.357V58.9H9.268v-.1H9.245V46.014ZM20.6,52.61H15.862c-.855,3.347-1.282,4.959-1.585,6.288H12.541L16.77,42.051A1.644,1.644,0,0,1,18.254,40.8a1.637,1.637,0,0,1,1.435,1.226L24,58.9H22.206L20.6,52.609Zm-2.291-10-2.065,8.359h3.954l-1.888-8.359Zm-.05-.231.05.231a.222.222,0,0,1,.026-.127Zm8.81-1.406h3.524a3.947,3.947,0,0,1,4.028,4.092V47.8A3.634,3.634,0,0,1,31.9,51.1a3.585,3.585,0,0,1,2.793,3.347V58.9H33.055V54.449c0-1.431-1.637-2.5-2.947-2.5H27.239V58.9H25.63V42.459a1.392,1.392,0,0,1,1.436-1.482Zm.175,1.662v-.1c-.024.051-.05.1-.125.1Zm0,0v7.644h2.869c1.309,0,2.87-1.074,2.87-2.479V45.068a2.393,2.393,0,0,0-2.391-2.429Zm9.514,2.4c0-2.787,2.291-4.192,4.631-4.192,2.317,0,4.633,1.4,4.633,4.192v9.79c0,2.813-2.316,4.219-4.633,4.219-2.34,0-4.631-1.406-4.631-4.218v-9.79Zm1.612,9.79c0,1.689,1.486,2.558,3.019,2.558,1.511,0,3-.868,3-2.558v-9.79c0-1.661-1.487-2.53-3-2.53-1.535,0-3.019.868-3.019,2.53Zm9.992-9.79c0-2.786,2.291-4.192,4.632-4.192,2.316,0,4.632,1.406,4.632,4.192v9.79c0,2.813-2.316,4.219-4.632,4.219-2.341,0-4.632-1.406-4.632-4.219Zm1.612,9.79c0,1.689,1.487,2.558,3.022,2.558,1.51,0,3-.868,3-2.558v-9.79c0-1.662-1.487-2.53-3-2.53-1.535,0-3.022.868-3.022,2.53v9.79ZM67.692,42.665l-6.067.05v6.162h5.662v1.662H61.625V58.9H59.987V42.461A1.483,1.483,0,0,1,61.45,41h6.242Z" transform="translate(0 2.046)" fill="#54504e"/>
    <path id="Path_11727" data-name="Path 11727" d="M108.71,41.778a3.678,3.678,0,1,1,3.622-3.678,3.651,3.651,0,0,1-3.622,3.678M89.263,39.93a1.8,1.8,0,0,1-1.412-.6,2.168,2.168,0,0,1-.531-1.511,21.682,21.682,0,0,1,1.84-8.354,21.3,21.3,0,0,1,4.711-6.8,22.507,22.507,0,0,1,6.891-4.53,19.752,19.752,0,0,1,8.278-1.558,20.747,20.747,0,0,1,14.968,6.543,22.035,22.035,0,0,1,4.56,7.1,20.884,20.884,0,0,1,1.487,8.3,22.38,22.38,0,0,1-1.733,8.3,20.418,20.418,0,0,1-4.808,6.9,21.987,21.987,0,0,1-6.939,4.7A21.144,21.144,0,0,1,108.347,60h-.2c-.2,0-.645-.106-1.339-.172a15.962,15.962,0,0,1-2.625-.591c-.184-.052-.379-.131-.571-.193a15.071,15.071,0,0,0,2.12-3.4,19.084,19.084,0,0,0,2.712.284c.4,0,.793-.017,1.19-.051s.761-.051,1.091-.051a16.817,16.817,0,0,0,6.048-1.913A18.079,18.079,0,0,0,121.63,50.1a17.644,17.644,0,0,0,3.272-5.285,18.222,18.222,0,0,0,1.288-6.29,18.929,18.929,0,0,0-1.288-7,17.121,17.121,0,0,0-3.619-5.686,18.127,18.127,0,0,0-5.5-3.917,16.2,16.2,0,0,0-6.839-1.5h-1.092a7.259,7.259,0,0,0-1.19.142,17.5,17.5,0,0,0-10.8,5.667,18.476,18.476,0,0,0-3.374,5.341,16.625,16.625,0,0,0-1.291,6.346v.1a1.739,1.739,0,0,1-1.931,1.913M108.74.09c-20.558,0-37.223,17.014-37.223,38s16.666,38,37.223,38,37.223-17.012,37.223-38S129.3.09,108.742.09" transform="translate(13.528)" fill="#eae8e9"/>
    <g id="Group_2297" data-name="Group 2297" transform="translate(86.857 3.393)">
      <path id="Path_11728" data-name="Path 11728" d="M30.7.675a34.559,34.559,0,0,0-12.791,4.4A34.065,34.065,0,0,0,7.622,14.126,35.741,35.741,0,0,0,1.7,26.1a34.893,34.893,0,0,0,3.28,26.337A12.6,12.6,0,0,0,8.767,56.5a14.757,14.757,0,0,0,5.075,2.182,16.165,16.165,0,0,0,5.635.216,14.049,14.049,0,0,0,5.349-1.881l.942-.559a3.335,3.335,0,0,0,.539-.387l.1-.087a14.26,14.26,0,0,0,3.814-4.574L30.957,50l1.57.266a15.083,15.083,0,0,0,10.2-1.808c.24-.144.523-.328.785-.516.345-.244.654-.452.95-.632a14.934,14.934,0,0,0,3.617-4.052A16.033,16.033,0,0,0,50.069,38.2a15.282,15.282,0,0,0,.134-5.4,15.7,15.7,0,0,0-1.814-5.278A16.289,16.289,0,0,0,44.328,22.9a14.8,14.8,0,0,0-5.222-2.6,15.968,15.968,0,0,0-5.9-.413,14.354,14.354,0,0,0-5.762,1.975l-.94.56a5.083,5.083,0,0,0-.688.491l-.064.05a15.61,15.61,0,0,0-3.677,4.066,15.316,15.316,0,0,0-2,4.989,16.034,16.034,0,0,0-.149,5.491,14.061,14.061,0,0,0,1.847,5.217l.157.289a4,4,0,0,1-1.613,5.435,4.031,4.031,0,0,1-3.287.437,4.309,4.309,0,0,1-2.478-1.979,23.509,23.509,0,0,1-2.229-17.947,24.933,24.933,0,0,1,4-8.1A22.439,22.439,0,0,1,23.363,14.7,23.155,23.155,0,0,1,41.2,12.37a24.016,24.016,0,0,1,8.279,4.07A22.646,22.646,0,0,1,55.533,23.4a24.184,24.184,0,0,1,2.957,8.736,22.472,22.472,0,0,1-.734,9.223,27.6,27.6,0,0,1-4,8.2c-3.859,5.7-5.471,9.005-18.836,20.062,0,0,3.784-.2,5.417-.477A46.33,46.33,0,0,0,46.3,67.763a29.535,29.535,0,0,0,4.034-1.532c1.375-.676,1.852-.936,2.015-1.035a36.6,36.6,0,0,0,3.727-2.543,33.661,33.661,0,0,0,12.4-18.378A33.931,33.931,0,0,0,69.453,30.8a36.028,36.028,0,0,0-4.322-12.883A32.724,32.724,0,0,0,56.3,7.693,36.789,36.789,0,0,0,44.137,1.644,34.337,34.337,0,0,0,35.009.391,33.04,33.04,0,0,0,30.7.674m2.875,39.9a5.187,5.187,0,0,1-3.433-2.68,5.467,5.467,0,0,1-.644-3.824A5.647,5.647,0,0,1,31.5,30.727l.274-.193.427-.255a5.744,5.744,0,0,1,7.76,1.976l.074.137a5.7,5.7,0,0,1-1.286,6.983,3.42,3.42,0,0,1-.847.7l-.136.075a5.831,5.831,0,0,1-2.635.625,6.256,6.256,0,0,1-1.561-.2" transform="translate(-0.476 -0.391)" fill="url(#linear-gradient)"/>
    </g>
  </g>
</svg>
